<?xml version="1.0" encoding="utf-8"?>
<!-- Generator: Adobe Illustrator 24.0.1, SVG Export Plug-In . SVG Version: 6.00 Build 0)  -->
<svg version="1.1" id="Layer_1" xmlns="http://www.w3.org/2000/svg" xmlns:xlink="http://www.w3.org/1999/xlink" x="0px" y="0px"
	 viewBox="0 0 1125 2436" style="enable-background:new 0 0 1125 2436;" xml:space="preserve">
<style type="text/css">
	.st0{opacity:0.5;fill:#5CFFF3;}
	.st1{opacity:0.2;fill:#5CFFF3;}
	.st2{opacity:0.4;fill:#0F054C;}
	.st3{fill:url(#SVGID_1_);}
	.st4{opacity:0.48;fill:url(#SVGID_2_);}
	.st5{opacity:0.48;fill:url(#SVGID_3_);}
	.st6{opacity:0.48;fill:url(#SVGID_4_);}
	.st7{fill:url(#SVGID_5_);}
	.st8{opacity:0.48;fill:url(#SVGID_6_);}
	.st9{fill:url(#SVGID_7_);}
	.st10{opacity:0.3;fill:#42E8E0;}
	.st11{opacity:5.000000e-02;}
	.st12{clip-path:url(#SVGID_10_);}
	.st13{fill:#42E8E0;}
	.st14{fill:url(#SVGID_11_);}
	.st15{fill:url(#SVGID_12_);}
	.st16{fill:url(#SVGID_13_);}
	.st17{fill:url(#SVGID_14_);}
	.st18{fill:url(#SVGID_15_);}
	.st19{fill:url(#SVGID_16_);}
	.st20{fill:url(#SVGID_17_);}
	.st21{fill:url(#SVGID_18_);}
	.st22{fill:url(#SVGID_19_);}
	.st23{fill:url(#SVGID_20_);}
	.st24{fill:url(#SVGID_21_);}
	.st25{fill:url(#SVGID_22_);}
	.st26{fill:url(#SVGID_23_);}
	.st27{opacity:0.8;fill:#42E8E0;}
	.st28{opacity:0.6;fill:#42E8E0;}
	.st29{opacity:0.4;fill:#42E8E0;}
	.st30{opacity:0.2;fill:#42E8E0;}
	.st31{opacity:0.1;fill:#42E8E0;}
</style>
<g>
	<g>
		<polygon class="st0" points="1184.9,2011.6 1221,2032.5 1221,2115.9 1184.9,2095.1 		"/>
		<polygon class="st1" points="1148.7,2032.5 1184.9,2053.3 1184.9,2095.1 1148.7,2074.2 		"/>
		<polygon class="st0" points="1112.6,1886.5 1148.7,1907.3 1148.7,2074.2 1112.6,2053.3 		"/>
		<polygon class="st1" points="1076.5,1823.9 1112.6,1844.7 1112.6,2053.3 1076.5,2032.5 		"/>
		<polygon class="st0" points="1040.4,1844.7 1076.5,1865.6 1076.5,2032.5 1040.4,2011.6 		"/>
		<polygon class="st1" points="1004.2,1698.7 1040.4,1719.6 1040.4,2011.6 1004.2,1990.8 		"/>
		<polygon class="st0" points="968.1,1719.6 1004.2,1740.4 1004.2,1990.8 968.1,1969.9 		"/>
		<polygon class="st1" points="932,1740.4 968.1,1761.3 968.1,1969.9 932,1949 		"/>
		<polygon class="st0" points="895.8,1636.2 932,1657 932,1949 895.8,1928.2 		"/>
		<polygon class="st1" points="859.7,1531.9 895.8,1552.7 895.8,1928.2 859.7,1907.3 		"/>
		<polygon class="st0" points="823.6,1552.7 859.7,1573.6 859.7,1907.3 823.6,1886.5 		"/>
		<polygon class="st1" points="787.4,1448.4 823.6,1469.3 823.6,1886.5 787.4,1865.6 		"/>
		<polygon class="st0" points="751.3,1427.6 787.4,1448.4 787.4,1865.6 751.3,1844.7 		"/>
		<polygon class="st1" points="715.2,1323.3 751.3,1344.1 751.3,1844.7 715.2,1823.9 		"/>
	</g>
	<g>
		<g>
			<ellipse class="st2" cx="750.7" cy="2234.3" rx="330.9" ry="191.1"/>
			
				<linearGradient id="SVGID_1_" gradientUnits="userSpaceOnUse" x1="-139.0495" y1="1957.8086" x2="-89.4308" y2="2796.2246" gradientTransform="matrix(1 -0.5774 0.866 0.5 -1194.2365 877.1608)">
				<stop  offset="0" style="stop-color:#42E8E0"/>
				<stop  offset="1.571381e-02" style="stop-color:#40DDDA"/>
				<stop  offset="9.207258e-02" style="stop-color:#3AAEC0"/>
				<stop  offset="0.173" style="stop-color:#3484A9"/>
				<stop  offset="0.2573" style="stop-color:#2F6195"/>
				<stop  offset="0.3458" style="stop-color:#2B4486"/>
				<stop  offset="0.44" style="stop-color:#282E79"/>
				<stop  offset="0.5425" style="stop-color:#261E71"/>
				<stop  offset="0.6594" style="stop-color:#24156C"/>
				<stop  offset="0.8226" style="stop-color:#24126A"/>
			</linearGradient>
			<ellipse class="st3" cx="750.7" cy="2132" rx="376.7" ry="217.5"/>
			<linearGradient id="SVGID_2_" gradientUnits="userSpaceOnUse" x1="317.1557" y1="2108.3494" x2="1063.0034" y2="2108.3494">
				<stop  offset="0" style="stop-color:#42E8E0"/>
				<stop  offset="0.1507" style="stop-color:#43E3E0"/>
				<stop  offset="0.3285" style="stop-color:#45D5DF"/>
				<stop  offset="0.5199" style="stop-color:#49BDDD"/>
				<stop  offset="0.7209" style="stop-color:#4E9CDB"/>
				<stop  offset="0.9274" style="stop-color:#5472D8"/>
				<stop  offset="1" style="stop-color:#5761D7"/>
			</linearGradient>
			<path class="st4" d="M1127.4,2060.4l-9.3-0.1c-15.1-38.7-48.8-75.5-101-105.7c-147.1-84.9-385.6-84.9-532.7,0
				c-49.3,28.5-82.1,62.9-98.3,99.2l-11.8-0.1v48.2c-2.9,57.8,33.8,116.1,110.1,160.2c147.1,84.9,385.6,84.9,532.7,0
				c73.5-42.5,110.3-98.1,110.3-153.8l0,0V2060.4z"/>
			<linearGradient id="SVGID_3_" gradientUnits="userSpaceOnUse" x1="317.1557" y1="2108.3494" x2="1063.0034" y2="2108.3494">
				<stop  offset="0" style="stop-color:#42E8E0"/>
				<stop  offset="0.1507" style="stop-color:#43E3E0"/>
				<stop  offset="0.3285" style="stop-color:#45D5DF"/>
				<stop  offset="0.5199" style="stop-color:#49BDDD"/>
				<stop  offset="0.7209" style="stop-color:#4E9CDB"/>
				<stop  offset="0.9274" style="stop-color:#5472D8"/>
				<stop  offset="1" style="stop-color:#5761D7"/>
			</linearGradient>
			<path class="st5" d="M1127.4,2060.4l-9.3-0.1c-15.1-38.7-48.8-75.5-101-105.7c-147.1-84.9-385.6-84.9-532.7,0
				c-49.3,28.5-82.1,62.9-98.3,99.2l-11.8-0.1v48.2c-2.9,57.8,33.8,116.1,110.1,160.2c147.1,84.9,385.6,84.9,532.7,0
				c73.5-42.5,110.3-98.1,110.3-153.8l0,0V2060.4z"/>
			<linearGradient id="SVGID_4_" gradientUnits="userSpaceOnUse" x1="317.1557" y1="2108.3494" x2="1063.0034" y2="2108.3494">
				<stop  offset="0" style="stop-color:#42E8E0"/>
				<stop  offset="0.1507" style="stop-color:#43E3E0"/>
				<stop  offset="0.3285" style="stop-color:#45D5DF"/>
				<stop  offset="0.5199" style="stop-color:#49BDDD"/>
				<stop  offset="0.7209" style="stop-color:#4E9CDB"/>
				<stop  offset="0.9274" style="stop-color:#5472D8"/>
				<stop  offset="1" style="stop-color:#5761D7"/>
			</linearGradient>
			<path class="st6" d="M1127.4,2060.4l-9.3-0.1c-15.1-38.7-48.8-75.5-101-105.7c-147.1-84.9-385.6-84.9-532.7,0
				c-49.3,28.5-82.1,62.9-98.3,99.2l-11.8-0.1v48.2c-2.9,57.8,33.8,116.1,110.1,160.2c147.1,84.9,385.6,84.9,532.7,0
				c73.5-42.5,110.3-98.1,110.3-153.8l0,0V2060.4z"/>
			<linearGradient id="SVGID_5_" gradientUnits="userSpaceOnUse" x1="317.1557" y1="2089.7109" x2="1063.0034" y2="2089.7109">
				<stop  offset="0" style="stop-color:#42E8E0"/>
				<stop  offset="1.571381e-02" style="stop-color:#40DDDA"/>
				<stop  offset="9.207258e-02" style="stop-color:#3AAEC0"/>
				<stop  offset="0.173" style="stop-color:#3484A9"/>
				<stop  offset="0.2573" style="stop-color:#2F6195"/>
				<stop  offset="0.3458" style="stop-color:#2B4486"/>
				<stop  offset="0.44" style="stop-color:#282E79"/>
				<stop  offset="0.5425" style="stop-color:#261E71"/>
				<stop  offset="0.6594" style="stop-color:#24156C"/>
				<stop  offset="0.8226" style="stop-color:#24126A"/>
			</linearGradient>
			<path class="st7" d="M1127.4,2041.7l-9.3-0.1c-15.1-38.7-48.8-75.5-101-105.7c-147.1-84.9-385.6-84.9-532.7,0
				c-49.3,28.5-82.1,62.9-98.3,99.2l-11.8-0.1v48.2c-2.9,57.8,33.8,116.1,110.1,160.2c147.1,84.9,385.6,84.9,532.7,0
				c73.5-42.5,110.3-98.1,110.3-153.8l0,0V2041.7z"/>
			<linearGradient id="SVGID_6_" gradientUnits="userSpaceOnUse" x1="376.7711" y1="2109.4404" x2="1124.7546" y2="2109.4404">
				<stop  offset="0" style="stop-color:#42E8E0"/>
				<stop  offset="0.1507" style="stop-color:#43E3E0"/>
				<stop  offset="0.3285" style="stop-color:#45D5DF"/>
				<stop  offset="0.5199" style="stop-color:#49BDDD"/>
				<stop  offset="0.7209" style="stop-color:#4E9CDB"/>
				<stop  offset="0.9274" style="stop-color:#5472D8"/>
				<stop  offset="1" style="stop-color:#5761D7"/>
			</linearGradient>
			<path class="st8" d="M1118.1,2041.6c-0.5-1.3-1.1-2.7-1.7-4v-31.7h-19.7v-2.3c-5-6.7-10.6-13.3-16.8-19.7v22h-11.3v-33
				c-5.3-4.8-10.9-9.4-16.8-14v46.9h-11.3v-55.1c-5.4-3.7-11-7.4-16.9-11v66.1h-11.2v-72.6c-5.5-3.1-11.2-6.1-16.9-8.9v81.5h-11.2
				v-86.8c-5.6-2.5-11.2-5-17-7.3v94.2h-11.1v-76.3h-17v76.3h-11.1v-55.3H911v55.3h-11v-34.4h-17.1v34.4h-10.9v-13.5h-17.2v13.5
				H646.8v-13.5h-17.2v13.5h-10.9v-34.4h-17.1v34.4h-11v-55.3h-17.1v55.3h-11.1v-76.3h-17v76.3h-11.1v-94.2
				c-5.8,2.3-11.4,4.8-17,7.3v86.9h-11.2v-81.6c-5.8,2.8-11.4,5.8-16.9,8.9v72.7h-11.2v-66.2c-5.9,3.6-11.5,7.2-16.9,10.9v55.3
				h-11.3v-47.1c-6,4.6-11.6,9.2-16.8,14v33.1h-11.3v-22.1c-6.2,6.4-11.8,13-16.8,19.6v2.5h-19.7v29.2l-8.4-0.1v80.9
				c3,14.5,8.6,28.9,16.7,42.9v-50.5h11.4v67.6c5,6.7,10.6,13.2,16.8,19.6v-87.3H433v98.2c5.3,4.8,10.9,9.4,16.8,14v-112.2h11.3
				v120.4c5.4,3.7,11,7.4,16.9,10.9v-131.3h11.2v137.8c5.5,3.1,11.2,6.1,16.9,8.9v-146.7h11.2v152c5.6,2.5,11.2,5,17,7.3v-159.4
				h11.1v163.7c5.6,2.1,11.3,4.1,17,6v-169.7h11.1v173.3c5.6,1.7,11.3,3.4,17.1,4.9v-178.2h11v181.1c5.7,1.4,11.4,2.7,17.1,4v-185.1
				h10.9v187.3c5.7,1.1,11.4,2.1,17.2,3.1v-190.4h10.9v192.1c5.7,0.8,11.5,1.6,17.3,2.3v-194.4h10.8v195.6
				c5.8,0.6,11.5,1.1,17.3,1.5v-197.1h10.8v197.8c5.8,0.3,11.6,0.6,17.4,0.7v-198.5H742v198.8c5.8,0.1,11.7,0.1,17.5,0v-198.8h10.7
				v198.5c5.8-0.2,11.6-0.4,17.4-0.7v-197.8h10.8v197.1c5.8-0.4,11.6-0.9,17.3-1.5v-195.6h10.8v194.4c5.8-0.7,11.5-1.4,17.3-2.3
				v-192.1h10.9v190.4c5.8-1,11.5-2,17.2-3.1v-187.3h10.9v185.1c5.8-1.2,11.5-2.6,17.1-4v-181.1h11v178.2c5.8-1.6,11.5-3.2,17.1-5
				v-173.3h11.1V2278c5.7-1.9,11.4-3.9,17-6v-163.7h11.1v159.3c5.8-2.3,11.4-4.8,17-7.3v-152h11.2V2255c5.8-2.9,11.4-5.8,16.9-8.9
				v-137.8h11.2v131.3c5.9-3.6,11.5-7.2,16.9-11v-120.3h11.3v112.1c6-4.6,11.6-9.2,16.8-14v-98.1h11.3v87.2
				c6.2-6.4,11.8-13,16.8-19.7v-67.5h11.4v50.2c8.1-14.1,13.7-28.7,16.7-43.3v-73.6L1118.1,2041.6z"/>
			
				<linearGradient id="SVGID_7_" gradientUnits="userSpaceOnUse" x1="-60.9032" y1="1867.5703" x2="-11.2845" y2="2705.9863" gradientTransform="matrix(1 -0.5774 0.866 0.5 -1194.2365 877.1608)">
				<stop  offset="0" style="stop-color:#42E8E0"/>
				<stop  offset="1.571381e-02" style="stop-color:#40DDDA"/>
				<stop  offset="9.207258e-02" style="stop-color:#3AAEC0"/>
				<stop  offset="0.173" style="stop-color:#3484A9"/>
				<stop  offset="0.2573" style="stop-color:#2F6195"/>
				<stop  offset="0.3458" style="stop-color:#2B4486"/>
				<stop  offset="0.44" style="stop-color:#282E79"/>
				<stop  offset="0.5425" style="stop-color:#261E71"/>
				<stop  offset="0.6594" style="stop-color:#24156C"/>
				<stop  offset="0.8226" style="stop-color:#24126A"/>
			</linearGradient>
			<ellipse class="st9" cx="750.7" cy="2041.7" rx="376.7" ry="217.5"/>
			<path class="st10" d="M750.8,1824.3c-85.4,0-170.7,16.6-240.2,49.9l-112.4,244.3c18.3,28.1,46.9,54.4,86.1,77.1
				c24.3,14,51.1,25.7,79.6,35.1L750.8,1824.3z"/>
			<path class="st10" d="M856.3,1833L663,2253.2c46.2,6.4,94.1,7.6,141,3.8l178-386.9C943.7,1852.9,901,1840.5,856.3,1833z"/>
			<g class="st11">
				<defs>
					<ellipse id="SVGID_8_" class="st11" cx="750.7" cy="2041.7" rx="333.6" ry="192.6"/>
				</defs>
				<linearGradient id="SVGID_9_" gradientUnits="userSpaceOnUse" x1="691.8872" y1="1747.876" x2="878.247" y2="2679.2468">
					<stop  offset="0" style="stop-color:#42E8E0"/>
					<stop  offset="1.571381e-02" style="stop-color:#40DDDA"/>
					<stop  offset="9.207258e-02" style="stop-color:#3AAEC0"/>
					<stop  offset="0.173" style="stop-color:#3484A9"/>
					<stop  offset="0.2573" style="stop-color:#2F6195"/>
					<stop  offset="0.3458" style="stop-color:#2B4486"/>
					<stop  offset="0.44" style="stop-color:#282E79"/>
					<stop  offset="0.5425" style="stop-color:#261E71"/>
					<stop  offset="0.6594" style="stop-color:#24156C"/>
					<stop  offset="0.8226" style="stop-color:#24126A"/>
				</linearGradient>
				<use xlink:href="#SVGID_8_"  style="overflow:visible;fill:url(#SVGID_9_);"/>
				<clipPath id="SVGID_10_">
					<use xlink:href="#SVGID_8_"  style="overflow:visible;"/>
				</clipPath>
				<g class="st12">
					<polygon class="st13" points="154.8,2040.9 151.3,2038.8 732.4,1703.3 736,1705.4 					"/>
					<polygon class="st13" points="165.1,2046.8 161.5,2044.7 742.6,1709.2 746.2,1711.3 					"/>
					<polygon class="st13" points="175.3,2052.7 171.7,2050.7 752.9,1715.1 756.4,1717.2 					"/>
					<polygon class="st13" points="185.5,2058.6 182,2056.6 763.1,1721.1 766.7,1723.1 					"/>
					<polygon class="st13" points="195.8,2064.5 192.2,2062.5 773.3,1727 776.9,1729 					"/>
					<polygon class="st13" points="206,2070.4 202.5,2068.4 783.6,1732.9 787.1,1734.9 					"/>
					<polygon class="st13" points="216.3,2076.4 212.7,2074.3 793.8,1738.8 797.4,1740.8 					"/>
					<polygon class="st13" points="226.5,2082.3 222.9,2080.2 804.1,1744.7 807.6,1746.8 					"/>
					<polygon class="st13" points="236.7,2088.2 233.2,2086.1 814.3,1750.6 817.9,1752.7 					"/>
					<polygon class="st13" points="247,2094.1 243.4,2092 824.5,1756.5 828.1,1758.6 					"/>
					<polygon class="st13" points="257.2,2100 253.6,2097.9 834.8,1762.4 838.3,1764.5 					"/>
					<polygon class="st13" points="267.4,2105.9 263.9,2103.9 845,1768.3 848.6,1770.4 					"/>
					<polygon class="st13" points="277.7,2111.8 274.1,2109.8 855.3,1774.3 858.8,1776.3 					"/>
					<polygon class="st13" points="287.9,2117.7 284.4,2115.7 865.5,1780.2 869.1,1782.2 					"/>
					<polygon class="st13" points="298.2,2123.6 294.6,2121.6 875.7,1786.1 879.3,1788.1 					"/>
					<polygon class="st13" points="308.4,2129.6 304.8,2127.5 886,1792 889.5,1794 					"/>
					<polygon class="st13" points="318.6,2135.5 315.1,2133.4 896.2,1797.9 899.8,1800 					"/>
					<polygon class="st13" points="328.9,2141.4 325.3,2139.3 906.4,1803.8 910,1805.9 					"/>
					<polygon class="st13" points="339.1,2147.3 335.6,2145.2 916.7,1809.7 920.2,1811.8 					"/>
					<polygon class="st13" points="349.4,2153.2 345.8,2151.2 926.9,1815.6 930.5,1817.7 					"/>
					<polygon class="st13" points="359.6,2159.1 356,2157.1 937.2,1821.5 940.7,1823.6 					"/>
					<polygon class="st13" points="369.8,2165 366.3,2163 947.4,1827.5 951,1829.5 					"/>
					<polygon class="st13" points="380.1,2170.9 376.5,2168.9 957.6,1833.4 961.2,1835.4 					"/>
					<polygon class="st13" points="390.3,2176.9 386.7,2174.8 967.9,1839.3 971.4,1841.3 					"/>
					<polygon class="st13" points="400.5,2182.8 397,2180.7 978.1,1845.2 981.7,1847.2 					"/>
					<polygon class="st13" points="410.8,2188.7 407.2,2186.6 988.4,1851.1 991.9,1853.2 					"/>
					<polygon class="st13" points="421,2194.6 417.5,2192.5 998.6,1857 1002.2,1859.1 					"/>
					<polygon class="st13" points="431.3,2200.5 427.7,2198.4 1008.8,1862.9 1012.4,1865 					"/>
					<polygon class="st13" points="441.5,2206.4 437.9,2204.4 1019.1,1868.8 1022.6,1870.9 					"/>
					<polygon class="st13" points="451.7,2212.3 448.2,2210.3 1029.3,1874.7 1032.9,1876.8 					"/>
					<polygon class="st13" points="462,2218.2 458.4,2216.2 1039.5,1880.7 1043.1,1882.7 					"/>
					<polygon class="st13" points="472.2,2224.1 468.7,2222.1 1049.8,1886.6 1053.3,1888.6 					"/>
					<polygon class="st13" points="482.5,2230.1 478.9,2228 1060,1892.5 1063.6,1894.5 					"/>
					<polygon class="st13" points="492.7,2236 489.1,2233.9 1070.3,1898.4 1073.8,1900.4 					"/>
					<polygon class="st13" points="502.9,2241.9 499.4,2239.8 1080.5,1904.3 1084.1,1906.4 					"/>
					<polygon class="st13" points="513.2,2247.8 509.6,2245.7 1090.7,1910.2 1094.3,1912.3 					"/>
					<polygon class="st13" points="523.4,2253.7 519.8,2251.6 1101,1916.1 1104.5,1918.2 					"/>
					<polygon class="st13" points="533.6,2259.6 530.1,2257.6 1111.2,1922 1114.8,1924.1 					"/>
					<polygon class="st13" points="543.9,2265.5 540.3,2263.5 1121.5,1927.9 1125,1930 					"/>
					<polygon class="st13" points="554.1,2271.4 550.6,2269.4 1131.7,1933.9 1135.3,1935.9 					"/>
					<polygon class="st13" points="564.4,2277.3 560.8,2275.3 1141.9,1939.8 1145.5,1941.8 					"/>
					<polygon class="st13" points="574.6,2283.3 571,2281.2 1152.2,1945.7 1155.7,1947.7 					"/>
					<polygon class="st13" points="584.8,2289.2 581.3,2287.1 1162.4,1951.6 1166,1953.6 					"/>
					<polygon class="st13" points="595.1,2295.1 591.5,2293 1172.6,1957.5 1176.2,1959.6 					"/>
					<polygon class="st13" points="605.3,2301 601.8,2298.9 1182.9,1963.4 1186.4,1965.5 					"/>
					<polygon class="st13" points="615.6,2306.9 612,2304.8 1193.1,1969.3 1196.7,1971.4 					"/>
					<polygon class="st13" points="625.8,2312.8 622.2,2310.8 1203.4,1975.2 1206.9,1977.3 					"/>
					<polygon class="st13" points="636,2318.7 632.5,2316.7 1213.6,1981.1 1217.2,1983.2 					"/>
					<polygon class="st13" points="646.3,2324.6 642.7,2322.6 1223.8,1987.1 1227.4,1989.1 					"/>
					<polygon class="st13" points="656.5,2330.5 652.9,2328.5 1234.1,1993 1237.6,1995 					"/>
					<polygon class="st13" points="666.7,2336.5 663.2,2334.4 1244.3,1998.9 1247.9,2000.9 					"/>
					<polygon class="st13" points="677,2342.4 673.4,2340.3 1254.6,2004.8 1258.1,2006.8 					"/>
					<polygon class="st13" points="687.2,2348.3 683.7,2346.2 1264.8,2010.7 1268.4,2012.8 					"/>
					<polygon class="st13" points="697.5,2354.2 693.9,2352.1 1275,2016.6 1278.6,2018.7 					"/>
					<polygon class="st13" points="707.7,2360.1 704.1,2358 1285.3,2022.5 1288.8,2024.6 					"/>
					<polygon class="st13" points="717.9,2366 714.4,2364 1295.5,2028.4 1299.1,2030.5 					"/>
					<polygon class="st13" points="728.2,2371.9 724.6,2369.9 1305.7,2034.3 1309.3,2036.4 					"/>
					<polygon class="st13" points="738.4,2377.8 734.9,2375.8 1316,2040.3 1319.5,2042.3 					"/>
					<polygon class="st13" points="748.7,2383.7 745.1,2381.7 1326.2,2046.2 1329.8,2048.2 					"/>
					<polygon class="st13" points="758.9,2389.7 755.3,2387.6 1336.5,2052.1 1340,2054.1 					"/>
					<polygon class="st13" points="769.1,2395.6 765.6,2393.5 1346.7,2058 1350.3,2060 					"/>
				</g>
			</g>
			<linearGradient id="SVGID_11_" gradientUnits="userSpaceOnUse" x1="417.1332" y1="1948.6777" x2="1084.2346" y2="1948.6777">
				<stop  offset="0" style="stop-color:#2B237C"/>
				<stop  offset="1" style="stop-color:#180D5B"/>
			</linearGradient>
			<path class="st14" d="M514.8,1918.5c130.3-75.2,341.5-75.2,471.7,0c62.3,36,94.8,82.6,97.5,129.7c3-51.4-29.5-103.4-97.5-142.7
				c-130.3-75.2-341.5-75.2-471.7,0c-68,39.3-100.5,91.2-97.5,142.7C420.1,2001.1,452.5,1954.5,514.8,1918.5z"/>
			<g>
				<linearGradient id="SVGID_12_" gradientUnits="userSpaceOnUse" x1="505.5557" y1="2060.1353" x2="957.4744" y2="2060.1353">
					<stop  offset="0" style="stop-color:#2B237C"/>
					<stop  offset="1" style="stop-color:#180D5B"/>
				</linearGradient>
				<path class="st15" d="M853.8,2001c-20.2-1.7-39.5,1.5-58,9.7c22.4-18.6,17.3-37.7-15.5-57.1c-0.8-0.5-1.6-0.9-2.4-1.4
					c-11.1-6.5-22.4-11.4-33.8-14.6c-12.4-3.4-23.9-5.2-34.5-5.2c-10.6,0-21.7,1.4-33.1,4.3c-6,1.5-11.8,3.2-17.3,5.1l-21-12.1
					l-30.9,17.8l17.3,10c-3.1,1.7-6.2,3.4-9.3,5.2l-11.3,6.5l-17.1-9.9l-30.9,17.8l17.1,9.9l-21.3,12.3l-8.4,4.8l-2.3,1.3
					l-35.5,20.5l30.9,17.8l35.5-20.5l222.9,128.7l-35.5,20.5l30.9,17.8l35.5-20.5l10.6-6.1l21.3-12.3l17.4,10.1l30.9-17.8l-11.1-6.4
					l-6.4-3.7l20.5-11.8l17.4,10.1l30.9-17.8l-11.1-6.4l-8.9-5.1c12.2-10.6,18.7-21.3,19.4-32.1c0.9-16.1-12.5-32.3-40.2-48.4
					c-0.6-0.3-1.2-0.7-1.9-1.1C894.3,2009.4,873.9,2002.7,853.8,2001z M646.1,1993.7l10-5.8c24.6-14.2,48.1-14.8,70.6-1.9
					c13.2,7.6,20.4,14.6,21.6,20.9c1.2,6.3-5,13.4-18.5,21.2l-12,6.9L646.1,1993.7z M844.7,2108.3l-85.4-49.3l12.4-7.1
					c14-8.1,27.1-11.8,39.3-11.2c12.3,0.6,26.4,5.5,42.4,14.8c14.3,8.3,22,15.9,23.2,22.9c1.1,7-5.1,14.4-18.7,22.3L844.7,2108.3z"
					/>
				<linearGradient id="SVGID_13_" gradientUnits="userSpaceOnUse" x1="563.2961" y1="1948.1381" x2="564.8898" y2="1975.0674">
					<stop  offset="0" style="stop-color:#42E8E0"/>
					<stop  offset="1.571381e-02" style="stop-color:#40DDDA"/>
					<stop  offset="9.207258e-02" style="stop-color:#3AAEC0"/>
					<stop  offset="0.173" style="stop-color:#3484A9"/>
					<stop  offset="0.2573" style="stop-color:#2F6195"/>
					<stop  offset="0.3458" style="stop-color:#2B4486"/>
					<stop  offset="0.44" style="stop-color:#282E79"/>
					<stop  offset="0.5425" style="stop-color:#261E71"/>
					<stop  offset="0.6594" style="stop-color:#24156C"/>
					<stop  offset="0.8226" style="stop-color:#24126A"/>
				</linearGradient>
				<polygon class="st16" points="555.8,1952.2 555.8,1972 573,1962.1 				"/>
				<linearGradient id="SVGID_14_" gradientUnits="userSpaceOnUse" x1="614.774" y1="1918.4572" x2="616.3678" y2="1945.3866">
					<stop  offset="0" style="stop-color:#42E8E0"/>
					<stop  offset="1.571381e-02" style="stop-color:#40DDDA"/>
					<stop  offset="9.207258e-02" style="stop-color:#3AAEC0"/>
					<stop  offset="0.173" style="stop-color:#3484A9"/>
					<stop  offset="0.2573" style="stop-color:#2F6195"/>
					<stop  offset="0.3458" style="stop-color:#2B4486"/>
					<stop  offset="0.44" style="stop-color:#282E79"/>
					<stop  offset="0.5425" style="stop-color:#261E71"/>
					<stop  offset="0.6594" style="stop-color:#24156C"/>
					<stop  offset="0.8226" style="stop-color:#24126A"/>
				</linearGradient>
				<polygon class="st17" points="607.3,1922.5 607.3,1942.3 624.5,1932.5 				"/>
				<linearGradient id="SVGID_15_" gradientUnits="userSpaceOnUse" x1="801.0071" y1="1958.3" x2="802.9045" y2="1990.3621">
					<stop  offset="0" style="stop-color:#2B237C"/>
					<stop  offset="1" style="stop-color:#180D5B"/>
				</linearGradient>
				<polygon class="st18" points="809.4,1962.1 809.4,1985.7 793.9,1976.2 				"/>
				<linearGradient id="SVGID_16_" gradientUnits="userSpaceOnUse" x1="935.0984" y1="2051.52" x2="966.8407" y2="2058.1721">
					<stop  offset="0" style="stop-color:#2B237C"/>
					<stop  offset="1" style="stop-color:#180D5B"/>
				</linearGradient>
				<polygon class="st19" points="956.9,2041.7 956.9,2070.5 933.7,2056.1 				"/>
				<linearGradient id="SVGID_17_" gradientUnits="userSpaceOnUse" x1="524.7682" y1="1988.0198" x2="2019.4998" y2="2301.2603">
					<stop  offset="0" style="stop-color:#42E8E0"/>
					<stop  offset="1.571381e-02" style="stop-color:#40DDDA"/>
					<stop  offset="9.207258e-02" style="stop-color:#3AAEC0"/>
					<stop  offset="0.173" style="stop-color:#3484A9"/>
					<stop  offset="0.2573" style="stop-color:#2F6195"/>
					<stop  offset="0.3458" style="stop-color:#2B4486"/>
					<stop  offset="0.44" style="stop-color:#282E79"/>
					<stop  offset="0.5425" style="stop-color:#261E71"/>
					<stop  offset="0.6594" style="stop-color:#24156C"/>
					<stop  offset="0.8226" style="stop-color:#24126A"/>
				</linearGradient>
				<path class="st20" d="M853.8,1975.9c-20.2-1.7-39.5,1.5-58,9.7c22.4-18.6,17.3-37.7-15.5-57.1c-0.8-0.5-1.6-0.9-2.4-1.4
					c-11.1-6.5-22.4-11.4-33.8-14.6c-12.4-3.4-23.9-5.2-34.5-5.2c-10.6,0-21.7,1.4-33.1,4.3c-6,1.5-11.8,3.2-17.3,5.1l-21-12.1
					l-30.9,17.8l17.3,10c-3.1,1.7-6.2,3.4-9.3,5.2l-11.3,6.5l-17.1-9.9l-30.9,17.8l17.1,9.9l-21.3,12.3l-8.4,4.8l-2.3,1.3
					l-35.5,20.5l30.9,17.8l35.5-20.5l222.9,128.7l-35.5,20.5l30.9,17.8l35.5-20.5l10.6-6.1l21.3-12.3l17.4,10.1l30.9-17.8l-11.1-6.4
					l-6.4-3.7l20.5-11.8l17.4,10.1l30.9-17.8l-11.1-6.4l-8.9-5.1c12.2-10.6,18.7-21.3,19.4-32.1c0.9-16.1-12.5-32.3-40.2-48.4
					c-0.6-0.3-1.2-0.7-1.9-1.1C894.3,1984.3,873.9,1977.6,853.8,1975.9z M646.1,1968.7l10-5.8c24.6-14.2,48.1-14.8,70.6-1.9
					c13.2,7.6,20.4,14.6,21.6,20.9c1.2,6.3-5,13.4-18.5,21.2l-12,6.9L646.1,1968.7z M844.7,2083.3l-85.4-49.3l12.4-7.1
					c14-8.1,27.1-11.8,39.3-11.2c12.3,0.6,26.4,5.5,42.4,14.8c14.3,8.3,22,15.9,23.2,22.9c1.1,7-5.1,14.4-18.7,22.3L844.7,2083.3z"
					/>
				<linearGradient id="SVGID_18_" gradientUnits="userSpaceOnUse" x1="926.9631" y1="2107.3567" x2="966.2123" y2="2115.582">
					<stop  offset="0" style="stop-color:#2B237C"/>
					<stop  offset="1" style="stop-color:#180D5B"/>
				</linearGradient>
				<polygon class="st21" points="957.5,2089.1 957.5,2114.1 926.6,2132 926.6,2106.9 				"/>
				<linearGradient id="SVGID_19_" gradientUnits="userSpaceOnUse" x1="875.5624" y1="2137.033" x2="914.8116" y2="2145.2581">
					<stop  offset="0" style="stop-color:#2B237C"/>
					<stop  offset="1" style="stop-color:#180D5B"/>
				</linearGradient>
				<polygon class="st22" points="906.1,2118.7 906.1,2143.8 875.2,2161.6 875.2,2136.6 				"/>
				<linearGradient id="SVGID_20_" gradientUnits="userSpaceOnUse" x1="756.3211" y1="2165.1692" x2="804.6263" y2="2175.292">
					<stop  offset="0" style="stop-color:#2B237C"/>
					<stop  offset="1" style="stop-color:#180D5B"/>
				</linearGradient>
				<polygon class="st23" points="790.3,2165.4 790.3,2190.5 759.4,2172.7 759.4,2147.6 				"/>
				<linearGradient id="SVGID_21_" gradientUnits="userSpaceOnUse" x1="519.205" y1="1991.9963" x2="522.809" y2="2052.8921">
					<stop  offset="0" style="stop-color:#42E8E0"/>
					<stop  offset="1.571381e-02" style="stop-color:#40DDDA"/>
					<stop  offset="9.207258e-02" style="stop-color:#3AAEC0"/>
					<stop  offset="0.173" style="stop-color:#3484A9"/>
					<stop  offset="0.2573" style="stop-color:#2F6195"/>
					<stop  offset="0.3458" style="stop-color:#2B4486"/>
					<stop  offset="0.44" style="stop-color:#282E79"/>
					<stop  offset="0.5425" style="stop-color:#261E71"/>
					<stop  offset="0.6594" style="stop-color:#24156C"/>
					<stop  offset="0.8226" style="stop-color:#24126A"/>
				</linearGradient>
				<polygon class="st24" points="505.6,2001 505.6,2026.1 536.5,2044 536.5,2018.9 				"/>
			</g>
			<linearGradient id="SVGID_22_" gradientUnits="userSpaceOnUse" x1="552.4506" y1="1991.557" x2="555.9506" y2="2050.6963">
				<stop  offset="0" style="stop-color:#2B237C"/>
				<stop  offset="1" style="stop-color:#180D5B"/>
			</linearGradient>
			<polygon class="st25" points="571.9,2023.5 571.9,1998.4 536.5,2018.9 536.5,2044 			"/>
			<linearGradient id="SVGID_23_" gradientUnits="userSpaceOnUse" x1="676.8231" y1="1963.9944" x2="689.1606" y2="2172.4629">
				<stop  offset="0" style="stop-color:#42E8E0"/>
				<stop  offset="1.571381e-02" style="stop-color:#40DDDA"/>
				<stop  offset="9.207258e-02" style="stop-color:#3AAEC0"/>
				<stop  offset="0.173" style="stop-color:#3484A9"/>
				<stop  offset="0.2573" style="stop-color:#2F6195"/>
				<stop  offset="0.3458" style="stop-color:#2B4486"/>
				<stop  offset="0.44" style="stop-color:#282E79"/>
				<stop  offset="0.5425" style="stop-color:#261E71"/>
				<stop  offset="0.6594" style="stop-color:#24156C"/>
				<stop  offset="0.8226" style="stop-color:#24126A"/>
			</linearGradient>
			<polygon class="st26" points="571.9,1998.4 571.9,2023.5 773.2,2139.6 794.9,2127.1 			"/>
		</g>
	</g>
	<g>
		<path class="st13" d="M755.3,1860.5c-13.7,0-27.4-3-37.8-9c-10.5-6.1-16.3-14.2-16.3-23c0-8.8,5.8-17,16.3-23
			c20.8-12,54.7-12,75.6,0c10.5,6.1,16.3,14.2,16.3,23c0,8.8-5.8,17-16.3,23C782.7,1857.5,769,1860.5,755.3,1860.5z M755.3,1800.5
			c-12.9,0-25.9,2.8-35.7,8.5c-9.1,5.3-14.2,12.2-14.2,19.4c0,7.2,5,14.1,14.2,19.4c19.7,11.4,51.7,11.4,71.4,0
			c9.1-5.3,14.2-12.2,14.2-19.4c0-7.2-5-14.1-14.2-19.4C781.1,1803.4,768.2,1800.5,755.3,1800.5z"/>
		
			<image style="overflow:visible;" width="142" height="181" xlink:href="7E05E96C6D574B35.png"  transform="matrix(1 0 0 1 552 1761)">
		</image>
		<path class="st13" d="M777.7,1841.4c-12.3,7.1-32.4,7.1-44.7,0c-12.4-7.1-12.4-18.7,0-25.8c12.3-7.1,32.4-7.1,44.7,0
			C790,1822.7,790,1834.3,777.7,1841.4z"/>
		<polygon class="st13" points="885.7,1766 863.6,1753.2 901.3,1731.4 923.5,1744.2 		"/>
		<polygon class="st27" points="845.9,1745.8 818,1737.5 842.2,1710.1 870.1,1718.3 		"/>
		<polygon class="st28" points="797.2,1733.6 766.2,1730.8 774.6,1700.4 805.5,1703.2 		"/>
		<polygon class="st29" points="744.4,1730.8 713.4,1733.6 705.1,1703.2 736,1700.4 		"/>
		<polygon class="st30" points="692.6,1737.5 664.7,1745.7 640.5,1718.3 668.4,1710.1 		"/>
		<polygon class="st31" points="647,1753.2 624.8,1766 587.1,1744.2 609.3,1731.4 		"/>
		<polygon class="st30" points="811.8,1800.4 804,1795.9 860.3,1763.4 868.1,1767.9 		"/>
		<polygon class="st29" points="794,1791.7 784.1,1788.8 820.3,1747.8 830.1,1750.7 		"/>
		<polygon class="st28" points="772.4,1786.6 761.5,1785.6 773.9,1740.2 784.8,1741.2 		"/>
		<polygon class="st27" points="749.1,1785.6 738.2,1786.6 725.8,1741.2 736.6,1740.2 		"/>
		<polygon class="st13" points="726.4,1788.8 716.6,1791.7 680.5,1750.7 690.3,1747.8 		"/>
		<polygon class="st13" points="706.6,1795.9 698.8,1800.4 642.5,1767.9 650.3,1763.4 		"/>
		<polygon class="st13" points="691.5,1806.2 686.5,1811.8 615.6,1791 620.6,1785.3 		"/>
		<polygon class="st13" points="682.7,1818.6 681,1824.9 602.3,1817.7 604.1,1811.4 		"/>
		<polygon class="st13" points="681,1832.1 682.7,1838.3 604.1,1845.5 602.3,1839.2 		"/>
		<polygon class="st13" points="686.5,1845.1 691.5,1850.8 620.6,1871.7 615.6,1866 		"/>
		<polygon class="st13" points="698.8,1856.6 706.6,1861.1 650.3,1893.6 642.5,1889.1 		"/>
		<g>
			<path class="st28" d="M976.5,1722.9c82.8,57.7,87.4,140.1,13.9,200.5l29.7,27.4c101.3-72.9,99.1-177.9-6.6-249.4L976.5,1722.9z"
				/>
			<path class="st30" d="M800.1,1992.1c-87.6,7.9-180.2-7.5-247.7-46.5c-15.9-9.2-29.5-19.2-40.8-29.7l-50.5,10
				c14.6,14.7,32.7,28.5,54.4,41c85.3,49.3,204.7,66.7,314.4,52.6L800.1,1992.1z"/>
			<path class="st13" d="M419.5,1856.3l50.5-10c-8.9-48.1,18.5-98,82.3-134.9c105.6-61,273-64.5,385.8-10.5l37.1-21.4
				c-133.3-65.7-333.8-62.2-459.8,10.6C436.9,1735.3,404.9,1797.3,419.5,1856.3z"/>
		</g>
		<g>
			<polygon class="st13" points="724.3,1938 704.6,1926.6 958.5,1780 978.2,1791.4 			"/>
			<polygon class="st27" points="752.4,1954.3 732.7,1942.8 843,1879.1 862.8,1890.5 			"/>
			<polygon class="st28" points="782.5,1971.6 762.7,1960.2 938.4,1858.8 958.1,1870.2 			"/>
			<polygon class="st30" points="812.1,1988.7 792.3,1977.3 929,1898.3 948.8,1909.7 			"/>
		</g>
	</g>
</g>
</svg>
