<?xml version="1.0" encoding="utf-8"?>
<!-- Generator: Adobe Illustrator 24.0.1, SVG Export Plug-In . SVG Version: 6.00 Build 0)  -->
<svg version="1.1" id="Layer_1" xmlns="http://www.w3.org/2000/svg" xmlns:xlink="http://www.w3.org/1999/xlink" x="0px" y="0px"
	 viewBox="0 0 400 300" style="enable-background:new 0 0 400 300;" xml:space="preserve">
<style type="text/css">
	.st0{fill:#FFFFFF;}
	.st1{fill:#231F20;}
	.st2{fill:#2A30FE;}
	.st3{fill:#D1D3D4;}
	.st4{fill:#68E1FD;}
</style>
<g id="_559_finance_app_flatline">
	<path class="st0" d="M261.4,85.2h61.2l0,0v38c0,1.6-1.3,2.9-2.9,2.9l0,0h-55.3c-1.6,0-2.9-1.3-2.9-2.9v0V85.2L261.4,85.2z"/>
	<path class="st1" d="M319.6,126.4h-55.3c-1.8,0-3.3-1.5-3.3-3.3V85.2c0-0.2,0.2-0.3,0.3-0.4h61.2c0.2,0,0.4,0.2,0.4,0.4
		c0,0,0,0,0,0v37.9C322.9,124.9,321.4,126.4,319.6,126.4C319.6,126.4,319.6,126.4,319.6,126.4z M261.7,85.5v37.6
		c0,1.4,1.1,2.6,2.6,2.6h55.3c1.4,0,2.6-1.1,2.6-2.6c0,0,0,0,0,0V85.5H261.7z"/>
	<path class="st0" d="M264.3,79.8h55.3c1.6,0,2.9,1.3,2.9,2.9c0,0,0,0,0,0v2.5l0,0h-61.2l0,0v-2.5C261.4,81.1,262.7,79.8,264.3,79.8
		L264.3,79.8z"/>
	<path class="st1" d="M322.5,85.5h-61.2c-0.2,0-0.3-0.2-0.3-0.4v-2.5c0-1.8,1.5-3.3,3.3-3.3h55.3c1.8,0,3.2,1.5,3.3,3.3v2.5
		C322.9,85.4,322.7,85.5,322.5,85.5z M261.7,84.8h60.5v-2.2c0-1.4-1.2-2.6-2.6-2.6h-55.3c-1.4,0-2.6,1.1-2.6,2.6V84.8z"/>
	<circle class="st2" cx="276.4" cy="96.4" r="3.9"/>
	<path class="st2" d="M269.3,108.3c0.1-4,3.4-7.1,7.4-6.9c3.8,0.1,6.8,3.2,6.9,6.9H269.3z"/>
	<circle class="st2" cx="307.5" cy="96.4" r="3.9"/>
	<path class="st2" d="M300.3,108.3c0.1-4,3.4-7.1,7.4-6.9c3.8,0.1,6.8,3.2,6.9,6.9H300.3z"/>
	<path class="st1" d="M298.7,96.8h-9.2c-0.2,0-0.4-0.2-0.4-0.4c0-0.2,0.2-0.4,0.4-0.4c0,0,0,0,0,0h8.4l-1.8-1.9
		c-0.1-0.1-0.1-0.4,0-0.5c0,0,0,0,0,0c0.1-0.1,0.4-0.1,0.5,0l2.4,2.5c0.1,0.1,0.1,0.2,0.1,0.4C298.9,96.7,298.8,96.8,298.7,96.8z"/>
	<path class="st1" d="M296.4,99c-0.1,0-0.2,0-0.3-0.1c-0.1-0.1-0.1-0.4,0-0.5l2.3-2.2c0.1-0.1,0.4-0.1,0.5,0c0.1,0.1,0.1,0.3,0,0.5
		l-2.3,2.2C296.5,99,296.5,99,296.4,99z"/>
	<path class="st1" d="M294.3,99.7h-9.2c-0.1,0-0.3-0.1-0.3-0.2c-0.1-0.1,0-0.3,0.1-0.4l2.4-2.5c0.1-0.1,0.4-0.2,0.5,0
		c0.1,0.1,0.2,0.4,0,0.5c0,0,0,0,0,0l-1.8,1.9h8.4c0.2,0,0.3,0.2,0.4,0.4C294.7,99.6,294.5,99.7,294.3,99.7L294.3,99.7z"/>
	<path class="st1" d="M287.4,102c-0.1,0-0.2,0-0.2-0.1l-2.3-2.2c-0.1-0.1-0.1-0.4,0-0.5c0.1-0.1,0.4-0.1,0.5,0l2.3,2.2
		c0.1,0.1,0.1,0.4,0,0.5c0,0,0,0,0,0C287.6,101.9,287.5,102,287.4,102z"/>
	<path class="st3" d="M310.2,113h-36.5c-0.2,0-0.4-0.2-0.4-0.4c0-0.2,0.2-0.4,0.4-0.4h36.5c0.2,0,0.4,0.2,0.4,0.4
		C310.6,112.8,310.4,113,310.2,113z"/>
	<path class="st3" d="M310.2,115.6h-36.5c-0.2,0-0.4-0.2-0.4-0.4c0-0.2,0.2-0.4,0.4-0.4h36.5c0.2,0,0.4,0.2,0.4,0.4
		S310.4,115.6,310.2,115.6z"/>
	<path class="st3" d="M306.4,118.2h-32.7c-0.2,0-0.4-0.2-0.4-0.4c0-0.2,0.2-0.4,0.4-0.4h32.7c0.2,0,0.4,0.2,0.4,0.4
		C306.8,118,306.6,118.2,306.4,118.2z"/>
	<circle class="st4" cx="265.7" cy="82.5" r="0.9"/>
	<circle class="st3" cx="269" cy="82.5" r="0.9"/>
	<circle class="st3" cx="272.3" cy="82.5" r="0.9"/>
	<path class="st0" d="M332,81.7h78.9l0,0v93.1c0,2.1-1.7,3.8-3.8,3.8h-71.3c-2.1,0-3.8-1.7-3.8-3.8L332,81.7L332,81.7z"/>
	<path class="st1" d="M407.1,179h-71.3c-2.3,0-4.2-1.9-4.2-4.2V81.7c0-0.2,0.2-0.4,0.4-0.4h79c0.2,0,0.4,0.2,0.4,0.4v93.1
		C411.3,177.1,409.4,179,407.1,179z M332.4,82.1v92.8c0,1.9,1.5,3.4,3.4,3.5h71.3c1.9,0,3.4-1.5,3.5-3.5V82.1H332.4z"/>
	<path class="st1" d="M394.8,171h-46.8c-2,0-3.7-1.7-3.7-3.7V165c0-2.1,1.7-3.7,3.7-3.7h46.8c2.1,0,3.7,1.7,3.7,3.7l0,0v2.2
		C398.6,169.3,396.9,171,394.8,171z M348.1,162.1c-1.6,0-3,1.3-3,3v2.2c0,1.6,1.3,3,3,3h46.8c1.6,0,3-1.3,3-3V165c0-1.6-1.3-3-3-3
		l0,0H348.1z"/>
	<rect x="343.3" y="107.2" class="st2" width="6.3" height="45.1"/>
	<rect x="354.8" y="117.8" class="st2" width="6.3" height="34.5"/>
	<rect x="366.4" y="110.9" class="st2" width="6.3" height="41.4"/>
	<rect x="377.9" y="123.4" class="st2" width="6.3" height="28.9"/>
	<rect x="389.5" y="110.9" class="st2" width="6.3" height="41.4"/>
	<path class="st1" d="M395.6,89.8H385c-0.2,0-0.4-0.2-0.4-0.4s0.2-0.4,0.4-0.4h10.6c0.2,0,0.4,0.2,0.4,0.4
		C395.9,89.7,395.8,89.8,395.6,89.8z"/>
	<path class="st1" d="M391.9,93.8H385c-0.2,0-0.4-0.2-0.4-0.4c0-0.2,0.2-0.4,0.4-0.4h6.9c0.2,0,0.4,0.2,0.4,0.4
		C392.3,93.6,392.1,93.8,391.9,93.8z"/>
	<path class="st3" d="M381.8,111.4c-3.3,0-6.3-3.7-8.6-6.7c-1.5-1.9-3-3.8-3.9-3.8l0,0c-1.1,0-2.6,0.9-4.2,1.8
		c-2.2,1.2-4.6,2.7-6.9,2.5c-4.3-0.2-12.4-9.7-12.7-10.1c-0.1-0.1-0.1-0.4,0-0.5c0,0,0,0,0,0c0.1-0.1,0.4-0.1,0.5,0
		c0.1,0.1,8.2,9.7,12.2,9.9c2.1,0.1,4.4-1.2,6.5-2.4c1.7-1,3.3-1.9,4.5-1.9s2.8,1.8,4.5,4.1c2.3,2.9,5.1,6.6,8.2,6.4
		c2.7-0.1,3.9-2.4,5.3-4.9c1.3-2.5,2.6-4.8,5.3-5.3c0.2,0,0.4,0.1,0.4,0.3c0,0.2-0.1,0.3-0.3,0.4c-2.3,0.4-3.5,2.6-4.8,4.9
		c-1.4,2.5-2.8,5.1-5.9,5.3L381.8,111.4z"/>
	<path class="st3" d="M401.1,152.7h-62.9c-0.2,0-0.4-0.2-0.4-0.4c0,0,0,0,0,0c0-0.2,0.2-0.3,0.4-0.4h62.9c0.2,0,0.4,0.2,0.4,0.4l0,0
		C401.4,152.5,401.3,152.7,401.1,152.7C401.1,152.7,401.1,152.7,401.1,152.7z"/>
	<path class="st3" d="M345.9,96.2c-0.8,0-1.4-0.6-1.4-1.4s0.6-1.4,1.4-1.4s1.4,0.6,1.4,1.4v0C347.3,95.6,346.6,96.2,345.9,96.2z
		 M345.9,94.1c-0.4,0-0.7,0.3-0.7,0.7c0,0.4,0.3,0.7,0.7,0.7c0.4,0,0.7-0.3,0.7-0.7c0,0,0,0,0,0C346.5,94.4,346.2,94.1,345.9,94.1
		C345.9,94.1,345.9,94.1,345.9,94.1z"/>
	<path class="st3" d="M392.6,102.2c-0.8,0-1.4-0.6-1.4-1.4c0-0.8,0.6-1.4,1.4-1.4c0.8,0,1.4,0.6,1.4,1.4
		C394.1,101.5,393.4,102.2,392.6,102.2z M392.6,100.1c-0.4,0-0.7,0.3-0.7,0.7s0.3,0.7,0.7,0.7s0.7-0.3,0.7-0.7
		S393,100.1,392.6,100.1C392.6,100.1,392.6,100.1,392.6,100.1z"/>
	<path class="st0" d="M335.8,73.7h71.3c2.1,0,3.8,1.7,3.8,3.8v4.1l0,0H332l0,0v-4.1C332,75.4,333.7,73.7,335.8,73.7z"/>
	<path class="st1" d="M410.9,82.1H332c-0.2,0-0.4-0.2-0.4-0.4v-4.1c0-2.3,1.9-4.2,4.2-4.2h71.3c2.3,0,4.2,1.9,4.2,4.2v4.1
		C411.4,81.9,411.2,82.1,410.9,82.1C411,82.1,410.9,82.1,410.9,82.1z M332.4,81.3h78.2v-3.7c0-1.9-1.5-3.4-3.5-3.5h-71.3
		c-1.9,0-3.4,1.5-3.4,3.5L332.4,81.3z"/>
	<path class="st0" d="M197.8,121.1h52.8c1.6,0,2.8,1.3,2.8,2.8v66.2c0,1.6-1.3,2.8-2.8,2.8h-52.8c-1.6,0-2.8-1.3-2.8-2.8v-66.2
		C194.9,122.4,196.2,121.1,197.8,121.1z"/>
	<path class="st1" d="M250.6,193.3h-52.8c-1.8,0-3.2-1.4-3.2-3.2v-66.2c0-1.8,1.4-3.2,3.2-3.2h52.8c1.8,0,3.2,1.4,3.2,3.2v66.2
		C253.8,191.9,252.3,193.3,250.6,193.3C250.6,193.3,250.6,193.3,250.6,193.3z M197.8,121.5c-1.3,0-2.4,1.1-2.4,2.4v66.2
		c0,1.3,1.1,2.4,2.4,2.5c0,0,0,0,0,0h52.8c1.3,0,2.4-1.1,2.4-2.4v-66.2c0-1.3-1.1-2.4-2.4-2.4H197.8z"/>
	<path class="st3" d="M238.6,177.8h-31.5c-0.2,0-0.4-0.2-0.4-0.4c0-0.2,0.2-0.4,0.4-0.4h31.5c0.2,0,0.4,0.2,0.4,0.4
		C239,177.6,238.9,177.8,238.6,177.8z"/>
	<path class="st3" d="M223.4,182.9h-16.3c-0.2,0-0.4-0.2-0.4-0.4c0-0.2,0.2-0.4,0.4-0.4h16.3c0.2,0,0.4,0.2,0.4,0.4
		C223.8,182.7,223.6,182.9,223.4,182.9z"/>
	<path class="st2" d="M209.1,137.3c4.6,4.6,9.2,9.2,13.7,13.8c0.1,0.2,0.3,0.2,0.6,0.2h21.1c-0.4,11.2-9.8,20-21,19.6
		c-11.2-0.4-20-9.8-19.6-21c0.2-4.7,2-9.2,5.1-12.7L209.1,137.3z"/>
	<path class="st3" d="M224.9,130.2v19.6h0.2l19,0c0.4,0,0.4,0,0.4-0.4c-0.5-7.6-5.2-14.3-12.1-17.4c-2.1-0.9-4.3-1.5-6.6-1.7
		L224.9,130.2z"/>
	<path class="st3" d="M223.4,149.6v-19.3c-2.3,0.1-4.5,0.6-6.7,1.4c-2.6,1-4.9,2.5-6.9,4.4L223.4,149.6z"/>
	<path class="st0" d="M284.3,139.1c-4.5-1.4-6.9-6.6-8.1-10.8c-1.3-4.8-2.9-8.7-1-13.7c0.4-1.1,1.1-2.3,2.3-2.7
		c0.3,0,0.6-0.1,0.8-0.3c0.2-0.2,0.4-0.4,0.4-0.7c2.7-6.5,10.5-6.6,16.3-5.7c3.4,0.5,7.8,2.1,8.8,5.5c1.9,6.4,0.3,13.3-3.2,18.9
		C297.3,134.8,291.1,141.2,284.3,139.1z"/>
	<path class="st1" d="M286.9,139.9c-0.9,0-1.8-0.1-2.7-0.4l0,0c-4.7-1.4-7.2-6.8-8.4-11.1c-0.2-0.5-0.3-1.1-0.5-1.6
		c-1.2-4.2-2.3-7.8-0.5-12.3c0.6-1.6,1.5-2.6,2.6-2.9l0.2-0.1c0.4,0,0.7-0.3,0.8-0.7c2.9-6.7,10.7-7,16.8-6c2.3,0.4,7.9,1.7,9.1,5.8
		c1.8,6.1,0.6,13-3.3,19.2C297.7,135,292.4,139.9,286.9,139.9z M290.3,105.2c-4.6,0-9.2,1.3-11.2,5.9c-0.1,0.3-0.3,0.6-0.6,0.9
		c-0.2,0.2-0.5,0.3-0.8,0.3l-0.2,0.1c-0.8,0.2-1.5,1.1-2.1,2.4c-1.7,4.3-0.6,7.8,0.6,11.8c0.2,0.5,0.3,1.1,0.5,1.6
		c1.2,4.1,3.5,9.3,7.8,10.6l0,0c6.1,1.8,12.3-3.6,15.9-9.4c3.8-5.9,5-12.7,3.2-18.5c-1.1-3.7-6.3-4.9-8.5-5.3
		C293.5,105.4,291.9,105.2,290.3,105.2L290.3,105.2z"/>
	<path class="st0" d="M304.8,126.2c0,0,4.8,6,4.1,7.5c-0.8,1.4-3.8,0.8-3.8,0.8"/>
	<path class="st1" d="M306.6,135c-0.5,0-1-0.1-1.5-0.2c-0.2,0-0.3-0.2-0.3-0.5c0-0.2,0.2-0.3,0.5-0.3c0.8,0.2,2.8,0.4,3.4-0.6
		c0.4-0.8-1.8-4.2-4-7.1c-0.1-0.2-0.1-0.4,0.1-0.5c0.2-0.1,0.4-0.1,0.5,0.1c1.2,1.5,4.9,6.4,4.1,7.9
		C308.7,134.8,307.5,135,306.6,135z"/>
	<path class="st0" d="M303.1,117.8c2.9,2,2.6,6.7,2.8,9.8c0.4,4.3,0.6,8.6,0.8,12.9c0.1,2.7-6.9,3.4-8.2,2.7l2.1,10.6l-15.3-4.3
		l-0.7-12.4c0,0,4.6-0.4,6.9-6.1c2.3-5.7,1.4-14.3,1.4-14.3S300.3,115.8,303.1,117.8z"/>
	<path class="st1" d="M300.5,154.1h-0.1l-15.3-4.3c-0.2,0-0.3-0.2-0.3-0.3l-0.7-12.4c0-0.2,0.1-0.4,0.3-0.4c0.2,0,4.4-0.5,6.6-5.9
		c2.2-5.6,1.3-14,1.3-14.1c0-0.1,0-0.2,0.1-0.3c0.1-0.1,0.2-0.1,0.3-0.1c0.3,0,7.6-0.7,10.5,1.3l0,0c2.6,1.7,2.7,5.4,2.9,8.4
		c0,0.6,0.1,1.1,0.1,1.7c0.4,4.3,0.6,8.6,0.8,12.9c0,0.9-0.5,1.7-1.3,2.1c-1.8,1.1-5.2,1.5-6.8,1.2l2,10c0,0.1,0,0.3-0.1,0.4
		C300.7,154.1,300.6,154.1,300.5,154.1z M285.6,149.1l14.4,4.1l-1.9-10c0-0.1,0-0.3,0.1-0.4c0.1-0.1,0.3-0.1,0.4,0
		c0.9,0.5,4.8,0.2,6.7-1c0.7-0.4,1-0.9,1-1.4c-0.2-4.3-0.4-8.6-0.8-12.9c0-0.5-0.1-1.1-0.1-1.7c-0.1-2.8-0.3-6.3-2.5-7.8l0,0
		c-2.3-1.6-8.1-1.3-9.6-1.2c0.1,1.8,0.6,8.9-1.4,14.1c-2,5.2-5.7,6.1-6.8,6.4L285.6,149.1z"/>
	<path class="st0" d="M306.3,137.2c0,0-4.2,0-5.2-5.7"/>
	<path class="st1" d="M306.3,137.6c0,0-4.5-0.1-5.6-6c0-0.2,0.1-0.4,0.3-0.4c0.2,0,0.4,0.1,0.4,0.3c0.9,5.3,4.7,5.4,4.8,5.4
		c0.2,0,0.4,0.2,0.4,0.4C306.7,137.4,306.5,137.6,306.3,137.6z"/>
	<path class="st0" d="M296.9,129.7c-0.2-1.1-0.7-2-1.5-2.8c-0.5-0.7-1.1-1.3-1.7-1.8c-0.7-0.5-1.5-0.7-2.4-0.5
		c-0.7,0.3-1.3,0.8-1.5,1.5c-0.3,0.7-0.4,1.4-0.3,2.2c0.1,3.3,2,6.3,5,7.8l-0.3-0.2"/>
	<path class="st1" d="M294.4,136.4c-0.1,0-0.1,0-0.2,0c-3-1.6-5-4.7-5.2-8.1c0-0.8,0.1-1.6,0.4-2.3c0.3-0.8,1-1.4,1.8-1.7
		c0.9-0.2,1.9,0,2.7,0.6c0.7,0.5,1.3,1.2,1.8,1.9c0.8,0.8,1.3,1.9,1.5,3c0,0.2-0.1,0.4-0.3,0.4c-0.2,0-0.4-0.1-0.4-0.3
		c-0.2-1-0.7-1.9-1.4-2.6c-0.5-0.6-1-1.2-1.6-1.7c-0.6-0.4-1.3-0.6-2-0.4c-0.6,0.2-1.1,0.7-1.3,1.3c-0.3,0.6-0.4,1.3-0.3,2
		c0.1,2.9,1.8,5.6,4.3,7.2c0.1,0,0.2,0,0.3,0.1l0.3,0.2c0.2,0.1,0.2,0.4,0,0.5C294.6,136.4,294.5,136.4,294.4,136.4L294.4,136.4z"/>
	<path class="st1" d="M298.5,143.1c0,0-3.7-0.8-5.7-3.1c0,0,0.7,5.7,6.4,7.1L298.5,143.1z"/>
	<path class="st1" d="M299.2,147.4L299.2,147.4c-6-1.4-6.8-7.3-6.8-7.4c0-0.2,0.1-0.3,0.2-0.4c0.2-0.1,0.3,0,0.4,0.1
		c1.8,2.2,5.4,3,5.5,3c0.2,0,0.3,0.2,0.3,0.3l0.8,3.9C299.7,147.2,299.5,147.4,299.2,147.4C299.3,147.4,299.3,147.4,299.2,147.4
		L299.2,147.4z M293.5,141.2c0.8,2.5,2.7,4.5,5.3,5.3l-0.6-3.1C296.5,143,294.9,142.3,293.5,141.2L293.5,141.2z"/>
	
		<ellipse transform="matrix(7.706703e-02 -0.997 0.997 7.706703e-02 155.7324 415.1657)" class="st1" cx="302.1" cy="123.5" rx="1.5" ry="0.6"/>
	<path class="st0" d="M262.2,174.8l-7.9,13.8l-20.5-21c0,0,1.7-8.9-0.6-8.2c-1.4,0.5-2.6,1.4-3.5,2.6c0,0-1.8-12.3-6.6-8.2
		s-2.6,11.1,1,17.9c2.7,5.1,26.6,41.9,33.2,40.4s22.4-35,22.4-35L262.2,174.8z"/>
	<path class="st1" d="M257.1,212.5c-7.5,0-30.8-36.2-33.2-40.6c-3-5.7-6.4-13.8-1-18.4c1-0.9,2-1.1,2.9-0.8c2.5,1,3.8,6.3,4.2,8.4
		c0.9-0.9,1.9-1.7,3.1-2.1c0.3-0.1,0.7-0.1,1,0.2c1.3,1.1,0.4,6.7,0.1,8.3l20,20.4l7.6-13.4c0.1-0.1,0.2-0.2,0.4-0.2l17.6,2.3
		c0.1,0,0.2,0.1,0.3,0.2c0.1,0.1,0.1,0.2,0,0.3c-0.7,1.4-15.9,33.7-22.6,35.2C257.4,212.5,257.3,212.5,257.1,212.5z M225.1,153.3
		c-0.6,0.1-1.2,0.3-1.6,0.8c-3.8,3.3-3.5,8.8,1.1,17.5c2.9,5.5,26.7,41.6,32.8,40.2c5.9-1.3,19.9-30.2,21.9-34.3l-16.9-2.2
		l-7.7,13.6c-0.1,0.1-0.2,0.2-0.3,0.2c-0.1,0-0.2,0-0.3-0.1l-20.5-21c-0.1-0.1-0.1-0.2-0.1-0.3c0.5-2.8,0.9-7.1,0.2-7.8
		c0,0-0.1-0.1-0.2,0c-1.3,0.5-2.5,1.3-3.3,2.4c-0.1,0.1-0.3,0.2-0.4,0.2c-0.2,0-0.3-0.2-0.3-0.3c-0.3-2.1-1.6-7.8-3.8-8.6
		C225.5,153.4,225.3,153.3,225.1,153.3z"/>
	<path class="st0" d="M322.1,168.6c0,0,15.9-4.1,21.8-7.6c6.5-3.8,18.8-28,22.8-34.1c2.2-3.3,3.8-7,4.8-10.8c0.5-1.7,0.7-3-0.2-4.6
		c-0.2-0.3-3-3.4-3.1-3.1c0.8-2.2,1.5-4.2,2.3-6.3c0.2-0.6,0.4-1.3-0.1-1.8c-0.4-0.3-1-0.3-1.4,0c-0.4,0.3-0.7,0.7-1,1.2l-6.5,11.3
		c0.1-1.4-0.2-2.8-0.8-4c-0.1-0.3-0.3-0.5-0.5-0.6c-0.7-0.4-1.4,0.6-1.6,1.4c-1.2,4.1-0.3,9-2.8,12.6c-1.9,2.7-18.8,23-18.8,23
		l-14.9,3.8"/>
	<path class="st2" d="M322.1,169c-0.2,0-0.4-0.1-0.4-0.3c0-0.2,0.1-0.4,0.3-0.4c0.2,0,15.9-4.1,21.7-7.6c4.7-2.8,12.7-16.8,18-26.1
		c1.9-3.4,3.6-6.2,4.6-7.8c2.1-3.3,3.7-6.9,4.7-10.7c0.4-1.6,0.7-2.8-0.2-4.4c-0.8-1-1.7-2-2.7-2.8c-0.1,0-0.1,0-0.2,0
		c-0.2-0.1-0.3-0.3-0.2-0.5l0,0c0.5-1.4,1-2.7,1.5-4.1c0.3-0.8,0.6-1.5,0.9-2.3c0.3-0.8,0.3-1.1,0-1.3c-0.3-0.2-0.6-0.2-0.9,0
		c-0.3,0.3-0.6,0.6-0.8,1l-6.5,11.3c-0.1,0.2-0.3,0.2-0.4,0.2c-0.1-0.1-0.2-0.2-0.2-0.3c0-1.3-0.2-2.6-0.8-3.8
		c-0.1-0.2-0.2-0.3-0.3-0.5c-0.1,0-0.2,0-0.3,0c-0.4,0.3-0.7,0.7-0.8,1.1c-0.4,1.6-0.7,3.1-0.8,4.8c-0.3,2.8-0.5,5.6-2.1,8
		c-1.9,2.7-18.1,22.2-18.8,23c-0.1,0.1-0.1,0.1-0.2,0.1l-14.9,3.8c-0.2,0-0.4-0.1-0.5-0.3c-0.1-0.2,0.1-0.4,0.3-0.5c0,0,0,0,0,0
		l14.8-3.8c1.2-1.5,16.9-20.2,18.7-22.8c1.5-2.2,1.8-4.9,2-7.6c0.1-1.7,0.4-3.3,0.8-4.9c0.2-0.7,0.6-1.3,1.2-1.6
		c0.3-0.1,0.7-0.1,0.9,0.1c0.3,0.2,0.5,0.4,0.6,0.8c0.4,0.9,0.7,1.9,0.8,2.9l5.9-10.2c0.3-0.5,0.6-0.9,1.1-1.3
		c0.6-0.4,1.3-0.4,1.9,0c0.5,0.5,0.5,1.2,0.2,2.2c-0.3,0.8-0.6,1.5-0.9,2.3c-0.5,1.2-0.9,2.4-1.4,3.7c1.1,0.9,2.1,1.9,3,3.1
		c0.9,1.8,0.7,3.2,0.2,4.9c-1,3.9-2.6,7.6-4.8,10.9c-1,1.6-2.7,4.5-4.6,7.8c-5.7,9.9-13.4,23.5-18.3,26.4
		c-5.9,3.5-21.2,7.5-21.9,7.7L322.1,169z"/>
	<path class="st1" d="M325.9,234.7l-5-22.6l-49.5,13.3c0,0,0.1,3.7,0.2,9.3L325.9,234.7z"/>
	<path class="st2" d="M335.9,143.5c0,0-56.3-1.2-63.4,8.9c-5.6,8.4-10.2,17.3-13.9,26.7l10.1,9.5c0,13.4,0.6,26.8,2,40.1
		c17.4,3.1,53.6-10.9,53.3-11l-4.6-46.8l21.5-6.7L335.9,143.5z"/>
	<path class="st1" d="M268,185.1L268,185.1c-0.2,0-0.4-0.2-0.4-0.4c0,0,0,0,0,0c0-0.8,0.7-20.8,3.4-27.8c0.1-0.2,0.3-0.3,0.5-0.2
		c0,0,0,0,0,0c0.2,0.1,0.3,0.3,0.2,0.5c0,0,0,0,0,0c-2.7,6.9-3.3,27.3-3.4,27.5C268.4,184.9,268.2,185.1,268,185.1z"/>
	<path class="st1" d="M311.7,173.2c-0.2,0-0.3-0.1-0.4-0.3c-0.1-0.2,0.1-0.4,0.3-0.5l15.9-4.5c0.2-0.1,0.4,0.1,0.5,0.3
		c0.1,0.2-0.1,0.4-0.3,0.5l0,0l-15.9,4.5C311.8,173.3,311.7,173.3,311.7,173.2z"/>
	<path class="st0" d="M373.9,227h-27.8c-1.6,0-2.9-1.3-2.9-2.9c0,0,0,0,0,0v-30.7c0-1.6,1.3-2.9,2.9-2.9l0,0h24.5l6.2,6V224
		C376.8,225.6,375.5,226.9,373.9,227C373.9,227,373.9,227,373.9,227z"/>
	<path class="st1" d="M373.9,227.3h-27.8c-1.8,0-3.3-1.5-3.3-3.3l0,0v-30.7c0-1.8,1.5-3.3,3.3-3.3h24.5c0.1,0,0.2,0,0.3,0.1l6.2,6
		c0.1,0.1,0.1,0.2,0.1,0.3V224C377.2,225.8,375.7,227.3,373.9,227.3z M346.1,190.7c-1.4,0-2.5,1.1-2.6,2.6V224
		c0,1.4,1.1,2.6,2.6,2.6l0,0h27.8c1.4,0,2.5-1.1,2.6-2.6v-27.5l-6-5.8H346.1z"/>
	<circle class="st4" cx="336.8" cy="77.8" r="1.3"/>
	<circle class="st3" cx="341.3" cy="77.8" r="1.3"/>
	<circle class="st3" cx="345.7" cy="77.8" r="1.3"/>
	<path class="st3" d="M370.4,98c-0.1,0-0.2,0-0.2-0.1c-0.2-0.1-0.2-0.4,0-0.5l3.3-3.9c0.1-0.1,0.2-0.1,0.3-0.1h8.3
		c0.2,0,0.4,0.2,0.4,0.4c0,0.2-0.2,0.4-0.4,0.4h-8.1l-3.2,3.8C370.6,98,370.5,98,370.4,98z"/>
	<polygon class="st2" points="370.6,190.3 370.6,196.6 376.8,196.4 	"/>
	<path class="st2" d="M370.6,196.9c-0.1,0-0.2,0-0.3-0.1c-0.1-0.1-0.1-0.2-0.1-0.3v-6.2c0-0.2,0.1-0.3,0.2-0.4
		c0.1-0.1,0.3,0,0.4,0.1l6.2,6c0.1,0.2,0.1,0.4,0,0.5c-0.1,0.1-0.2,0.1-0.3,0.1L370.6,196.9L370.6,196.9z M371,191.3v4.9l4.9-0.1
		L371,191.3z"/>
	<path class="st2" d="M228.7,206.5h7.9c1.2,0,2.1,0.9,2.1,2.1v7.9c0,1.2-0.9,2.1-2.1,2.1h-7.9c-1.2,0-2.1-0.9-2.1-2.1v-7.9
		C226.6,207.5,227.5,206.5,228.7,206.5z"/>
	<path class="st0" d="M226.3,202.7h8.1c1.1,0,2,0.9,2,2v8.1c0,1.1-0.9,2-2,2h-8.1c-1.1,0-2-0.9-2-2v-8.1
		C224.4,203.5,225.2,202.7,226.3,202.7z"/>
	<path class="st1" d="M234.5,215.1h-8.1c-1.3,0-2.4-1-2.4-2.3c0,0,0,0,0,0v-8.1c0-1.3,1.1-2.3,2.3-2.3h8.1c1.3,0,2.3,1.1,2.3,2.3
		v8.1C236.8,214.1,235.7,215.1,234.5,215.1z M226.3,203.1c-0.9,0-1.6,0.7-1.6,1.6c0,0,0,0,0,0v8.1c0,0.9,0.7,1.6,1.6,1.6h8.1
		c0.9,0,1.6-0.7,1.6-1.6v-8.1c0-0.9-0.7-1.6-1.6-1.6H226.3z"/>
	<path class="st2" d="M358.3,220.1v-1.8c-0.7-0.2-1.3-0.3-1.9-0.5c-1.2-0.4-2.2-1.1-2.9-2.2c-0.6-0.9-0.9-2-0.9-3.1h3.5
		c0,1.3,0.9,2.3,2.2,2.6v-4.8c-0.7-0.2-1.4-0.4-2.1-0.6c-0.8-0.2-1.5-0.6-2.1-1.2c-0.6-0.6-1-1.4-1.1-2.2c-0.2-1-0.1-2.1,0.2-3.1
		c0.5-1.4,1.7-2.6,3.1-3.1c0.6-0.2,1.2-0.3,1.8-0.5l0.2,0v-2.5h3.3v0.2c0,0.7,0,1.4,0,2.1c0,0.2,0.1,0.2,0.2,0.3
		c1.1,0.2,2.2,0.7,3.1,1.4c0.9,0.8,1.6,1.9,1.8,3.1c0.1,0.3,0.1,0.7,0.1,1h-3.6c0-1-0.6-1.9-1.5-2.3v4.5l0.4,0.1
		c1,0.2,1.9,0.5,2.8,0.9c1.4,0.6,2.3,1.9,2.4,3.4c0.2,1.4-0.1,2.8-0.9,3.9c-0.7,0.9-1.6,1.6-2.7,2c-0.7,0.2-1.4,0.4-2.1,0.6v1.8
		L358.3,220.1z M361.6,211v4.2c0.5-0.1,1-0.3,1.5-0.7c0.8-0.6,0.9-1.8,0.3-2.6c-0.1-0.1-0.2-0.2-0.3-0.3
		C362.6,211.4,362.1,211.2,361.6,211z M358.3,206.7v-4c-0.4,0.2-0.9,0.4-1.3,0.6c-0.8,0.6-1,1.6-0.4,2.4c0.1,0.2,0.3,0.4,0.5,0.5
		C357.5,206.4,357.9,206.5,358.3,206.7L358.3,206.7z"/>
	<rect x="213.5" y="90.1" class="st3" width="33.8" height="20.1"/>
</g>
</svg>
