<?xml version="1.0" encoding="utf-8"?>
<!-- Generator: Adobe Illustrator 24.0.1, SVG Export Plug-In . SVG Version: 6.00 Build 0)  -->
<svg version="1.1" id="Layer_1" xmlns="http://www.w3.org/2000/svg" xmlns:xlink="http://www.w3.org/1999/xlink" x="0px" y="0px"
	 viewBox="0 0 400 300" style="enable-background:new 0 0 400 300;" xml:space="preserve">
<style type="text/css">
	.st0{fill:#FFFFFF;}
	.st1{fill:#231F20;}
	.st2{fill:#E6E7E8;}
	.st3{fill:#2A30FE;}
	.st4{fill:#00E4C1;}
	.st5{fill:none;}
	.st6{fill:#68E1FD;}
	.st7{fill:#050505;}
</style>
<g id="_556_bank_note_flatline">
	<polygon class="st0" points="341.2,176 58.8,176 64.8,165.2 72.7,150.4 77.7,141.3 85.7,126.6 91.6,115.8 308.4,115.8 314.3,126.6 
		322.3,141.3 327.3,150.4 335.2,165.2 	"/>
	<path class="st1" d="M308.4,115.8l5.9,10.9l8,14.7l5,9.1l8,14.7l5.9,10.8H58.8l5.9-10.9l8-14.7l5-9.1l8-14.7l5.9-10.9L308.4,115.8
		 M308.4,114.7H91.6c-0.4,0-0.7,0.2-0.9,0.5l-5.9,10.9l-8,14.7l-5,9.1l-8,14.7L58,175.6c-0.3,0.5-0.1,1.1,0.4,1.4
		c0.1,0.1,0.3,0.1,0.5,0.1h282.3c0.6,0,1-0.4,1-1c0-0.2,0-0.3-0.1-0.5l-5.9-10.9l-8-14.7l-5-9.1l-8-14.7l-5.9-10.9
		C309.1,114.9,308.8,114.7,308.4,114.7L308.4,114.7z"/>
	<path class="st2" d="M319.8,169.5H83.7c-0.2,0-0.3-0.1-0.4-0.2c-0.1-0.2-0.1-0.3,0-0.5c0.2-0.3,0.4-0.7,0.6-1
		c1.3-2.8,1.4-5.3,0.3-7.1c-1-1.6-2.9-2.4-5.4-2.4c-0.3,0-0.5-0.2-0.5-0.5c0-0.1,0-0.2,0.1-0.2l14.7-28.1c0.1-0.2,0.3-0.3,0.4-0.3
		c4.8,0,10.4-3.3,12.3-7.1c0.1-0.2,0.2-0.4,0.3-0.7c0.1-0.2,0.3-0.3,0.5-0.3h190.7c0.2,0,0.4,0.1,0.5,0.3c0.1,0.2,0.2,0.4,0.3,0.7
		c1.8,3.9,7.5,7.1,12.3,7.1c0.2,0,0.4,0.1,0.4,0.3l14.7,28.1c0.1,0.3,0,0.6-0.2,0.7c-0.1,0-0.1,0.1-0.2,0.1c-2.5,0-4.4,0.9-5.4,2.5
		c-1.1,1.8-1,4.4,0.3,7.1c0.2,0.4,0.4,0.7,0.6,1c0.1,0.2,0.1,0.3,0,0.5C320.2,169.4,320,169.5,319.8,169.5z M84.5,168.5H319
		l-0.2-0.4c-1.5-3.1-1.6-6-0.2-8.1c1.2-1.8,3.3-2.9,5.4-2.9L309.9,130c-5.2-0.1-10.9-3.5-12.9-7.7c-0.1-0.1-0.1-0.3-0.2-0.4h-190
		c-0.1,0.2-0.1,0.3-0.2,0.4c-2,4.2-7.7,7.6-12.9,7.7l-14.2,27.1c2.2,0,4.2,1.1,5.4,2.9c1.3,2.1,1.2,5-0.2,8.1L84.5,168.5z"/>
	<polygon class="st2" points="227.4,176 172.6,176 173.8,165.2 175.3,150.4 176.3,141.3 177.8,126.6 179,115.8 221,115.8 
		222.2,126.6 223.7,141.3 224.7,150.4 226.2,165.2 	"/>
	<path class="st1" d="M221,115.8l1.1,10.9l1.5,14.7l1,9.1l1.6,14.7l1.1,10.8h-54.7l1.1-10.9l1.6-14.7l1-9.1l1.5-14.7l1.1-10.8H221
		 M221,114.8h-42c-0.5,0-0.9,0.4-1,0.9l-1.1,10.9l-1.6,14.7l-1,9.1l-1.5,14.7l-1.1,10.9c0,0.3,0.1,0.6,0.2,0.8
		c0.2,0.2,0.5,0.3,0.7,0.3h54.7c0.3,0,0.6-0.1,0.7-0.3c0.2-0.2,0.3-0.5,0.2-0.8l-1.1-10.9l-1.5-14.7l-1-9.1l-1.6-14.7l-1.1-10.9
		C221.9,115.1,221.5,114.7,221,114.8z"/>
	<path class="st0" d="M250.1,107.2c2.9,1.3,5.2,3.8,6.3,6.8c2.8,7.4,6.6,27.2,6.6,27.2c8.4,0.8,16.8,1.8,25.1,2.9
		c3.9,0.5,7.9,1,11.8,1.7c1.6,0.4,3.2,0.6,4.8,0.6c1.6-0.1,3.8-0.6,5.4,0c0.2,0,0.3,0.2,0.4,0.4c0,0.2,0,0.4-0.1,0.5l-1,1.7
		c0.7,0.3,1.4,0.6,2.1,1.1c1.4,1,1.6,3,0.6,4.3c-0.3,0.4-0.6,0.7-1,0.9c-1.1,0.4-2.2,0.5-3.4,0.5c-1.4,0.1-2.7,0.2-4.1,0.2
		c-2.8-0.1-5.5-0.3-8.3-0.4c-4.6-0.2-9.3-0.4-13.9-0.7c-10.2-0.6-20.7-1.1-30.7-3.1c-1.8-0.4-5.2-0.7-6.3-2.3
		C241,144.7,250.1,107.2,250.1,107.2z"/>
	<path class="st1" d="M303.9,156.5h-0.5c-1.7,0-3.5-0.1-5.2-0.2c-1-0.1-2.1-0.1-3.1-0.2c-5.2-0.2-9.7-0.5-13.9-0.7l-2.4-0.1
		c-9.4-0.6-19.1-1.1-28.4-3l-0.9-0.2c-2-0.4-4.7-0.8-5.8-2.4c-3.3-4.7,4.9-38.6,5.9-42.5c0-0.1,0.1-0.3,0.3-0.3
		c0.1-0.1,0.3-0.1,0.4,0c3,1.4,5.4,3.9,6.5,7.1c2.6,6.9,6,24.1,6.5,27c8.6,0.9,16.9,1.8,24.8,2.9c3.7,0.5,7.8,1,11.8,1.7
		c0.4,0.1,0.8,0.1,1.2,0.2c1.1,0.3,2.3,0.4,3.5,0.4c0.5,0,1-0.1,1.5-0.1c1.4-0.3,2.7-0.2,4.1,0.2c0.3,0.1,0.6,0.4,0.7,0.7
		c0.1,0.3,0,0.6-0.2,0.9l-0.7,1.2l0.2,0.1c0.5,0.2,1,0.5,1.5,0.8c1.6,1.2,1.8,3.5,0.6,5.1c-0.3,0.4-0.7,0.7-1.1,0.9
		c-0.8,0.4-1.8,0.5-2.7,0.5c-0.3,0-0.6,0-0.9,0C306.2,156.4,305,156.5,303.9,156.5z M250.5,108c-2.6,10.8-8.4,37.5-5.9,41.1
		c0.9,1.2,3.4,1.7,5.1,2l0.9,0.2c9.2,1.9,18.9,2.4,28.2,3l2.4,0.1c4.1,0.2,8.7,0.5,13.9,0.7c1.1,0.1,2.1,0.1,3.1,0.2
		c1.7,0.1,3.4,0.2,5.1,0.2c1.3,0,2.5-0.1,4-0.2c0.3,0,0.6,0,1,0c0.8,0.1,1.5-0.1,2.2-0.4c1.3-0.7,1.8-2.2,1.1-3.5
		c-0.2-0.3-0.4-0.6-0.7-0.9c-0.4-0.3-0.8-0.5-1.2-0.6c-0.3-0.1-0.5-0.2-0.8-0.4c-0.1-0.1-0.2-0.2-0.2-0.3c0-0.1,0-0.3,0.1-0.4l1-1.7
		c0,0,0-0.1,0.1-0.1h-0.1c-1.2-0.3-2.4-0.4-3.6-0.1c-0.5,0.1-1.1,0.1-1.6,0.1c-1.2,0-2.5-0.1-3.7-0.4l-1.2-0.2
		c-4-0.7-8-1.2-11.7-1.7c-8-1-16.4-2-25.1-2.9c-0.2,0-0.4-0.2-0.4-0.4c0-0.2-3.8-19.9-6.6-27.2C254.9,111.7,253,109.4,250.5,108z"/>
	<path class="st0" d="M129.1,133.9c0,0,1.6-42.4,2.8-45.5s5.2-6.5,3.7-9.7s-6.8-10.5-7.8-13s-2.3-9.7-7.1-11.7s-3.1,3.2-2.1,6.4
		s1.8,20.7,1.3,29.8s-11.2,50.2-11.2,50.2"/>
	<path class="st1" d="M108.7,140.9h-0.1c-0.3-0.1-0.4-0.3-0.4-0.6c0,0,0,0,0,0c0.1-0.4,10.7-41.2,11.2-50.1
		c0.5-9.3-0.4-26.6-1.3-29.6l-0.1-0.5c-0.8-2.5-1.7-5.4-0.4-6.6c0.7-0.6,1.7-0.6,3.3,0c4.2,1.7,5.8,7.1,6.8,10.3
		c0.2,0.7,0.4,1.3,0.6,1.8c1.1,2.1,2.3,4.1,3.6,6c1.5,2.2,2.9,4.6,4.2,7c1.1,2.4-0.5,4.8-2,7c-0.7,1-1.3,2-1.7,3.1
		c-0.9,2.4-2.2,30.7-2.7,45.4c0,0.3-0.2,0.5-0.5,0.5s-0.5-0.2-0.5-0.5c0.1-1.7,1.6-42.5,2.8-45.7c0.5-1.2,1.1-2.3,1.9-3.3
		c1.4-2,2.8-4.2,1.9-6.1c-1.2-2.4-2.6-4.6-4.1-6.8c-1.4-2-2.6-4-3.7-6.2c-0.2-0.5-0.4-1.1-0.6-1.8c-0.9-3-2.5-8.1-6.2-9.7
		c-1.1-0.5-1.9-0.5-2.2-0.2c-0.8,0.7,0.1,3.8,0.7,5.6l0.2,0.5c1,3.4,1.8,21,1.3,30s-10.8,48.6-11.2,50.3
		C109.1,140.8,108.9,140.9,108.7,140.9z"/>
	<path class="st0" d="M132.8,112.5l0.8-1.9c4.4-10.3,8.4-15.6,11.8-19.3s9.3-8.6,10.1-11.6s-1.5-7.7-1.2-9.8s0.5-17.8-2.2-18.6
		c-5.6-1.6-7.5,19.3-9.7,23s-9.5,17.6-16.5,26.1c-2.3,2.8-6.1,7.2-10.1,12.2L132.8,112.5z"/>
	<path class="st1" d="M132.8,113h-17.1c-0.3,0-0.5-0.2-0.5-0.5c0-0.1,0-0.2,0.1-0.3c3-3.8,5.9-7.2,8.2-9.9l2-2.3
		c5.6-6.8,11.5-17.2,14.6-22.8c0.8-1.4,1.4-2.5,1.9-3.2c0.7-1.1,1.4-4.2,2.1-7.4c1.5-6.4,3.1-13.7,6.1-15.5c0.6-0.4,1.4-0.5,2.1-0.3
		c3.6,1,2.6,18.9,2.5,19.1c0,1.2,0.2,2.4,0.6,3.6c0.5,2.1,1.1,4.4,0.6,6.3c-0.6,2.3-3.8,5.5-7,8.6c-1.2,1.2-2.3,2.2-3.2,3.2
		c-3.1,3.3-7.2,8.5-11.7,19.1l-0.8,1.9C133.2,112.9,133,113,132.8,113z M116.8,112h15.7l0.7-1.6c4.6-10.8,8.8-16,11.9-19.4
		c0.9-1,2.1-2.1,3.2-3.3c2.9-2.8,6.2-6.1,6.7-8.1c0.4-1.6-0.1-3.9-0.6-5.8c-0.4-1.3-0.6-2.6-0.6-3.9c0.4-3.3,0.2-17.5-1.8-18
		c-0.4-0.1-0.9-0.1-1.3,0.2c-2.6,1.5-4.3,9.2-5.6,14.8c-0.8,3.5-1.5,6.5-2.2,7.7c-0.4,0.7-1.1,1.8-1.8,3.2
		c-3.2,5.6-9,16.1-14.7,22.9c-0.6,0.7-1.2,1.5-2,2.3C122.1,105.5,119.5,108.6,116.8,112L116.8,112z"/>
	<path class="st3" d="M183.3,118.1c0,0-8-3.8-23.6,1.1s-31.7,11.3-31.7,11.3l9.5-25.5h-16.1c0,0-28.9,22.1-23,36.5
		s84.9,11.9,84.9,11.9L183.3,118.1z"/>
	<path class="st1" d="M169.1,154.1c-23.1,0-66.8-1.5-71.2-12.4c-2.5-6.2,0.6-14.3,9.4-24.2c4.2-4.7,8.8-9,13.8-12.9
		c0.1-0.1,0.2-0.1,0.3-0.1h16.1c0.2,0,0.3,0.1,0.4,0.2c0.1,0.1,0.1,0.3,0.1,0.5l-9.1,24.4c3.8-1.5,17.5-6.8,30.7-10.9
		c15.6-4.9,23.6-1.2,24-1c0.2,0.1,0.3,0.3,0.3,0.4v35.2c0,0.3-0.2,0.5-0.5,0.5C182.5,153.9,177,154.1,169.1,154.1z M121.5,105.5
		c-2.1,1.7-28.2,22.4-22.7,35.8c2.3,5.7,17.6,9.5,44.2,11c18.5,1,36.6,0.6,39.7,0.5v-34.4c-1.6-0.6-9.4-3-23,1.2
		c-15.4,4.8-31.5,11.2-31.7,11.3c-0.2,0.1-0.4,0-0.5-0.1c-0.1-0.1-0.2-0.3-0.1-0.5l9.3-24.8L121.5,105.5z"/>
	<path class="st4" d="M233.2,102.6c0,0-25.5,24.4-30.6,25.4c-4.4,0.8-8-7.5-19.3-9.9v35.3c10.8-0.1,31.6-0.5,43.2-1.9
		c16.1-1.9,29.7-4.2,34.4-23.5S245.4,102.8,233.2,102.6z"/>
	<path class="st1" d="M183.3,153.9c-0.1,0-0.3,0-0.4-0.1c-0.1-0.1-0.2-0.2-0.1-0.4v-35.3c0-0.1,0.1-0.3,0.2-0.4
		c0.1-0.1,0.3-0.1,0.4-0.1c6.4,1.3,10.4,4.6,13.4,7c2.3,1.9,4,3.3,5.8,2.9c3.9-0.8,21.6-16.9,30.4-25.3c0.1-0.1,0.2-0.1,0.4-0.1
		c8.2,0.1,19.7,2.8,25.4,10.1c3.4,4.3,4.3,9.7,2.8,15.9c-4.9,20.2-20.1,22.1-34.8,23.9C215.1,153.4,194.5,153.8,183.3,153.9
		L183.3,153.9z M183.8,118.7v34.2c11.3-0.1,31.4-0.5,42.7-1.9c17.7-2.1,29.6-4.9,33.9-23.1c1.4-5.9,0.5-11-2.6-15
		c-5.4-7-16.5-9.6-24.4-9.7c-2.3,2.2-25.7,24.4-30.7,25.4c-2.2,0.4-4.1-1.2-6.6-3.1C193.2,123,189.6,120.1,183.8,118.7z"/>
	<path class="st0" d="M268,74.8c-0.6-3.8-1.2-7.3-4.2-10.3c-2.9-2.8-6.7-4.4-10.7-4.8c-6.3-0.7-12.6,1.4-17.4,5.6
		c-4.5,4-7.2,9.8-7.3,15.8c0.1,6.4-1.4,12.8-1.5,19.3c-0.1,3.4-0.3,7.9,2.7,10.2c0.9,0.7-0.1-0.8,1-0.8c3.7,0.3,7.7,0.7,11.4,0.3
		c3.5-0.4,6.6-2,10-2.5c2.2-0.2,4.4,0.1,6.4,0.8c0.4,0.1,0.9,0.2,1.3,0.3c3.3,0.9,6.7,0.7,9.9-0.7c3.1-1.4,5.2-4.5,5.3-7.9
		c0-2.8-1.6-5.3-2.8-7.8c-2.4-4.9-2.8-10.5-3.7-15.8C268.2,76,268.1,75.4,268,74.8z"/>
	<path class="st1" d="M229.9,111.4c-0.2,0-0.4-0.1-0.6-0.3c-3.1-2.4-3-6.7-2.9-10.2v-0.4c0.1-3,0.4-6,0.8-9
		c0.5-3.4,0.7-6.9,0.8-10.3c0.1-6.2,2.8-12.1,7.5-16.2c4.9-4.3,11.3-6.4,17.8-5.7c4.1,0.4,8,2.2,11,5c3.2,3.2,3.8,6.9,4.4,10.5l0,0
		l0,0.3c0.1,0.5,0.2,1,0.2,1.6c0.2,1.1,0.4,2.2,0.5,3.3c0.6,4.2,1.3,8.5,3.1,12.4c0.2,0.4,0.5,0.9,0.7,1.4c1.1,2.1,2.2,4.2,2.2,6.6
		c-0.1,3.6-2.3,6.9-5.6,8.4c-3.2,1.4-6.8,1.6-10.2,0.7l-1.3-0.3l-0.3-0.1c-1.9-0.7-3.9-0.9-5.9-0.7c-1.6,0.3-3.1,0.7-4.6,1.2
		c-1.8,0.6-3.6,1-5.4,1.3c-3.2,0.3-6.5,0.2-9.7-0.1l-1.8-0.1l0,0v0.1c0.1,0.3-0.1,0.6-0.3,0.7C230,111.4,229.9,111.4,229.9,111.4z
		 M250.7,60.1c-5.4,0-10.6,2-14.7,5.6c-4.4,3.9-7,9.5-7.2,15.5c0,3.5-0.3,7-0.8,10.5c-0.3,2.9-0.7,5.9-0.8,8.9v0.4
		c-0.1,3.1-0.2,7,2.2,9.1c0-0.1,0.1-0.2,0.2-0.3c0.2-0.2,0.5-0.3,0.8-0.2l1.8,0.1c3.2,0.3,6.4,0.4,9.6,0.1c1.8-0.3,3.5-0.7,5.2-1.3
		c1.6-0.5,3.2-0.9,4.8-1.2c2.1-0.2,4.3,0.1,6.3,0.8l0.3,0.1l1.3,0.3c3.2,0.9,6.5,0.6,9.5-0.6c2.9-1.3,4.9-4.2,5-7.5
		c0-2.2-1.1-4.2-2.1-6.2c-0.2-0.5-0.5-0.9-0.7-1.4c-1.9-4-2.6-8.4-3.2-12.7c-0.2-1.1-0.3-2.2-0.5-3.3c-0.1-0.5-0.2-1.1-0.2-1.6v-0.3
		c-0.5-3.5-1.1-7.1-4.1-10c-2.9-2.7-6.5-4.3-10.4-4.7C252.2,60.1,251.5,60.1,250.7,60.1z"/>
	<path class="st0" d="M264.4,77.9c0,0,2.8,9.3,0.9,16.2c-1,3.9-4.3,6.9-8.3,7.6l-0.6,12.3c0,0-0.3,6.3-8,4.9
		c-4.5-0.8-8.3-3.9-10-8.2l0.3-22.7c0,0,9-4.6,8.7-12.8C247.4,75.3,257.6,80.9,264.4,77.9z"/>
	<path class="st1" d="M250.5,119.7c-0.7,0-1.4-0.1-2.1-0.2c-4.7-0.8-8.6-4-10.4-8.5c0-0.1,0-0.1,0-0.2l0.3-22.7
		c0-0.2,0.1-0.4,0.3-0.4c0.1-0.1,8.7-4.5,8.4-12.3c0-0.2,0.1-0.3,0.2-0.4c0.2-0.1,0.3-0.1,0.5,0c0.1,0.1,10,5.4,16.6,2.6
		c0.1-0.1,0.3-0.1,0.4,0c0.1,0.1,0.2,0.2,0.3,0.3c0.1,0.4,2.8,9.6,0.9,16.5c-1,4-4.2,7-8.3,7.8l-0.6,11.9c-0.1,1.7-0.9,3.2-2.2,4.3
		C253.5,119.3,252,119.8,250.5,119.7z M238.9,110.7c1.7,4.1,5.3,7,9.6,7.8c2.4,0.4,4.3,0.1,5.6-0.9c1-0.9,1.7-2.2,1.8-3.6l0.6-12.3
		c0-0.2,0.2-0.4,0.4-0.5c3.8-0.6,6.9-3.4,7.8-7.2c1.6-5.8-0.2-13.4-0.7-15.4c-5.9,2.2-13.7-1.3-16.2-2.5c-0.2,7.2-7.2,11.4-8.7,12.3
		L238.9,110.7z"/>
	<path class="st0" d="M243.1,86.7c0,0-3.4-8.8-7.9-3.6s1.4,11.4,5.2,11.1"/>
	<path class="st1" d="M240.1,94.7c-2.3,0-5-1.9-6.3-4.5c-1.3-2.4-0.9-5.4,1-7.4c1.2-1.4,2.5-2,3.9-1.8c3,0.5,4.9,5.3,4.9,5.5
		c0.1,0.2,0,0.5-0.2,0.7c-0.2,0.1-0.5,0-0.7-0.2c0,0,0,0,0-0.1c0,0-1.7-4.4-4.2-4.9c-1-0.2-1.9,0.3-2.9,1.4c-1.6,1.7-2,4.3-0.9,6.3
		c1.2,2.3,3.7,4.1,5.7,3.9c0.3,0,0.5,0.2,0.5,0.5c0,0.3-0.2,0.5-0.5,0.5L240.1,94.7z"/>
	<path class="st1" d="M256.1,95.4c-0.9,0-1.8-0.2-2.7-0.4c-0.3-0.1-0.4-0.4-0.3-0.6c0,0,0,0,0,0c0.1-0.3,0.4-0.4,0.6-0.3
		c0,0,0,0,0,0c0.6,0.2,2.6,0.7,3.6,0.2c0.2-0.5-1.2-3.5-3.2-6.4c-0.2-0.2-0.1-0.5,0.1-0.7c0.2-0.2,0.5-0.1,0.7,0.1
		c0.9,1.3,3.8,5.7,3.3,7.3c-0.1,0.3-0.3,0.5-0.5,0.6C257.2,95.3,256.7,95.4,256.1,95.4z"/>
	<path class="st1" d="M257,101.7c0,0-6.6,0.5-10.4-0.7c0,0,3.6,9.9,9.9,10.2L257,101.7z"/>
	<path class="st1" d="M256.6,111.7L256.6,111.7c-6.5-0.3-10.2-10.1-10.4-10.5c-0.1-0.2,0-0.4,0.1-0.5c0.1-0.1,0.3-0.2,0.5-0.1
		c3.6,1.1,10.1,0.7,10.2,0.7c0.1,0,0.3,0,0.4,0.2c0.1,0.1,0.2,0.2,0.1,0.4l-0.5,9.5C257.1,111.5,256.8,111.8,256.6,111.7z
		 M247.5,101.7c1,2.3,4.1,8.3,8.6,8.9l0.4-8.4C253.5,102.4,250.5,102.3,247.5,101.7L247.5,101.7z"/>
	<ellipse transform="matrix(1 -2.617982e-03 2.617982e-03 1 -0.2223 0.6518)" class="st1" cx="248.9" cy="85.2" rx="1" ry="1.7"/>
	<ellipse transform="matrix(1 -2.617982e-03 2.617982e-03 1 -0.2211 0.6759)" class="st1" cx="258.1" cy="84.8" rx="1" ry="1.7"/>
	<path class="st0" d="M227,96c-0.4,4.5-0.9,9.6,0.9,13.8c2.4,5.7,9.5,4.5,14.1,2.4c1.9-0.9,4.1-2.1,4.6-4.1c0.4-1.7-0.4-3.5-1.3-5
		c-2.1-3.5-4.7-6.5-7.8-9.1"/>
	<path class="st1" d="M234.7,114.5c-1.1,0-2.3-0.2-3.3-0.6c-1.8-0.7-3.2-2.1-3.9-3.9c-1.8-4.2-1.3-9.1-0.9-13.5V96
		c0-0.3,0.3-0.5,0.6-0.4c0.3,0,0.5,0.3,0.4,0.5v0.6c-0.4,4.3-0.8,9.1,0.9,13c0.6,1.5,1.8,2.8,3.4,3.3c2.5,1,6.3,0.5,10-1.2
		c2-0.9,3.9-2,4.3-3.8c0.4-1.6-0.4-3.3-1.2-4.7c-2-3.4-4.6-6.5-7.7-9c-0.2-0.2-0.2-0.5-0.1-0.7c0.2-0.2,0.5-0.2,0.7-0.1
		c3.1,2.6,5.8,5.8,7.9,9.3c0.9,1.5,1.9,3.5,1.3,5.4c-0.6,2.2-2.7,3.4-4.9,4.5C239.8,113.7,237.3,114.4,234.7,114.5z"/>
	<path class="st1" d="M249.9,91.9c-3.1,0-5.7-2.5-5.7-5.7c0-3.1,2.5-5.7,5.7-5.7c3.1,0,5.7,2.5,5.7,5.7c0,2.8-2,5.2-4.8,5.7
		C250.4,91.9,250.2,91.9,249.9,91.9z M249.9,81.7c-0.2,0-0.5,0-0.7,0.1c-2.5,0.4-4.2,2.7-3.8,5.2c0,0,0,0,0,0
		c0.4,2.5,2.7,4.2,5.2,3.8c1.2-0.2,2.3-0.8,3-1.8c0.7-1,1-2.2,0.8-3.4C254.1,83.4,252.1,81.7,249.9,81.7L249.9,81.7z"/>
	<path class="st1" d="M259.8,91.9c-3.1,0-5.6-2.5-5.6-5.6c0-1.2,0.4-2.3,1.1-3.3c1.8-2.5,5.3-3,7.8-1.2c2.5,1.8,3,5.3,1.2,7.8
		c-0.9,1.2-2.2,2-3.7,2.2C260.3,91.9,260,91.9,259.8,91.9z M259.8,81.7c-0.2,0-0.5,0-0.7,0.1c-2.5,0.4-4.2,2.7-3.8,5.2
		c0.2,1.2,0.8,2.3,1.8,3c2,1.5,4.9,1.1,6.4-1c0,0,0,0,0,0c0.7-1,1-2.2,0.8-3.4C263.9,83.4,262,81.7,259.8,81.7L259.8,81.7z"/>
	<path class="st1" d="M252.1,97.8c-1.4,0.1-2.7-0.4-3.8-1.2c-0.8-0.7-1.3-1.7-1.4-2.8c0-0.3,0.2-0.5,0.5-0.5c0.3,0,0.5,0.2,0.5,0.4
		c0,0,0,0,0,0c0.1,0.8,0.5,1.6,1.1,2.1c1.1,0.8,2.5,1.2,3.8,0.9c0.3,0,0.5,0.2,0.5,0.5s-0.2,0.5-0.5,0.5L252.1,97.8z"/>
	<line class="st5" x1="244.8" y1="85.2" x2="241.9" y2="84.4"/>
	<path class="st1" d="M244.8,85.7c0,0-0.1,0-0.1,0l-2.9-0.8c-0.3-0.1-0.4-0.4-0.4-0.6s0.4-0.4,0.6-0.4l2.9,0.8
		c0.3,0.1,0.4,0.4,0.3,0.6l0,0C245.2,85.6,245,85.7,244.8,85.7z"/>
	<path class="st1" d="M266,87.1h-1.4c-0.3,0-0.5-0.2-0.5-0.5s0.2-0.5,0.5-0.5h1.4c0.3,0,0.5,0.2,0.5,0.5
		C266.5,86.9,266.3,87.1,266,87.1z"/>
	<path class="st6" d="M278.2,132.7c-2.6,4.4,0.3,14.1,0.3,14.1l3.9,2.8c5.9,3.4,13.4,1.3,16.8-4.6c3.3-5.7,1.4-13-4.1-16.5l-4.3-2.1
		C290.8,126.3,280.8,128.3,278.2,132.7z"/>
	<path class="st1" d="M288.7,151.9c-2.3,0-4.6-0.6-6.6-1.8l-3.9-2.9c-0.1-0.1-0.2-0.2-0.2-0.3c-0.1-0.4-3-10-0.3-14.5
		s12.5-6.5,12.9-6.6c0.1,0,0.2,0,0.3,0l4.3,2.1c6.1,3.6,8.1,11.5,4.4,17.6C297.4,149.4,293.2,151.8,288.7,151.9L288.7,151.9z
		 M278.9,146.5l3.8,2.7c5.6,3.4,12.9,1.5,16.2-4.1s1.5-12.9-4.1-16.2l-4.1-2c-1.3,0.3-9.8,2.2-12.1,6.1S278.6,145.2,278.9,146.5z"/>
	<circle class="st4" cx="286" cy="137.4" r="12.3"/>
	<path class="st1" d="M286,150.2c-7.1,0-12.8-5.7-12.8-12.8c0-7.1,5.7-12.8,12.8-12.8c7.1,0,12.8,5.7,12.8,12.8
		c0,2.3-0.6,4.6-1.8,6.6C294.7,147.9,290.5,150.2,286,150.2z M286,125.6c-6.5,0-11.8,5.3-11.8,11.8s5.3,11.8,11.8,11.8
		c6.5,0,11.8-5.3,11.8-11.8c0-4.2-2.2-8-5.7-10.1l0,0C290.3,126.2,288.2,125.6,286,125.6L286,125.6z"/>
	<path class="st4" d="M254.1,148.3v6.4c0,2.4,5.9,4.3,13.1,4.3s13.1-1.9,13.1-4.3v-6.4H254.1z"/>
	<path class="st1" d="M267.2,159.5c-6.6,0-13.6-1.7-13.6-4.8v-6.4c0-0.3,0.2-0.5,0.5-0.5h26.2c0.3,0,0.5,0.2,0.5,0.5v6.4
		C280.9,157.8,273.8,159.5,267.2,159.5z M254.6,148.8v5.9c0,1.8,5.2,3.8,12.6,3.8s12.6-2,12.6-3.8v-5.9H254.6z"/>
	<ellipse class="st1" cx="267.2" cy="148.3" rx="13.1" ry="4.4"/>
	<path class="st1" d="M267.2,153.2c-6.6,0-13.6-1.7-13.6-4.9s7-4.9,13.6-4.9s13.6,1.7,13.6,4.9S273.8,153.2,267.2,153.2z
		 M267.2,144.5c-7.4,0-12.6,2-12.6,3.9s5.2,3.9,12.6,3.9s12.6-2,12.6-3.9S274.7,144.5,267.2,144.5z"/>
	<path class="st4" d="M257.2,139.6v6.4c0,2.4,5.9,4.4,13.1,4.4s13.1-2,13.1-4.4v-6.3L257.2,139.6z"/>
	<path class="st1" d="M270.3,150.8c-6.6,0-13.6-1.7-13.6-4.9v-6.3c0-0.3,0.2-0.5,0.5-0.5h26.2c0.3,0,0.5,0.2,0.5,0.5v6.4
		C283.9,149.1,276.9,150.8,270.3,150.8z M257.7,140.1v5.9c0,1.8,5.2,3.9,12.6,3.9s12.6-2,12.6-3.9v-5.8L257.7,140.1z"/>
	<ellipse class="st1" cx="270.3" cy="139.6" rx="13.1" ry="4.4"/>
	<path class="st1" d="M270.3,144.5c-6.6,0-13.6-1.7-13.6-4.8s7-4.9,13.6-4.9s13.6,1.7,13.6,4.9S276.9,144.5,270.3,144.5z
		 M270.3,135.8c-7.4,0-12.6,2-12.6,3.9s5.2,3.8,12.6,3.8s12.6-2,12.6-3.8S277.8,135.8,270.3,135.8z"/>
	<path class="st4" d="M254.6,129.9v6.4c0,2.4,5.9,4.3,13.1,4.3s13.1-1.9,13.1-4.3v-6.4H254.6z"/>
	<path class="st1" d="M267.6,141.1c-6.6,0-13.6-1.7-13.6-4.8v-6.4c0-0.3,0.2-0.5,0.5-0.5h26.2c0.3,0,0.5,0.2,0.5,0.5v6.4
		C281.3,139.4,274.2,141.1,267.6,141.1z M255,130.4v5.9c0,1.8,5.2,3.8,12.6,3.8s12.6-2,12.6-3.8v-5.9H255z"/>
	<ellipse class="st1" cx="267.6" cy="129.9" rx="13.1" ry="4.4"/>
	<path class="st1" d="M267.6,134.8c-6.6,0-13.6-1.7-13.6-4.9s7-4.8,13.6-4.8s13.6,1.7,13.6,4.8C281.3,133.1,274.2,134.8,267.6,134.8
		z M267.6,126.1c-7.4,0-12.6,2-12.6,3.9s5.2,3.9,12.6,3.9s12.6-2,12.6-3.9S275.1,126.1,267.6,126.1z"/>
	<path class="st4" d="M288.6,147.2v6.3c0,2.4,5.9,4.4,13.1,4.4s13.1-1.9,13.1-4.4v-6.3H288.6z"/>
	<path class="st1" d="M301.7,158.4c-6.6,0-13.6-1.7-13.6-4.9v-6.3c0-0.3,0.2-0.5,0.5-0.5h26.2c0.3,0,0.5,0.2,0.5,0.5v6.3
		C315.4,156.7,308.3,158.4,301.7,158.4z M289.1,147.7v5.8c0,1.8,5.2,3.9,12.6,3.9s12.6-2,12.6-3.9v-5.8H289.1z"/>
	<ellipse class="st1" cx="301.7" cy="147.2" rx="13.1" ry="4.4"/>
	<path class="st1" d="M301.7,152.1c-6.6,0-13.6-1.7-13.6-4.9s7-4.9,13.6-4.9s13.6,1.7,13.6,4.9S308.3,152.1,301.7,152.1z
		 M301.7,143.4c-7.4,0-12.6,2-12.6,3.9s5.2,3.9,12.6,3.9s12.6-2,12.6-3.9S309.2,143.4,301.7,143.4z"/>
	<path class="st4" d="M286.9,139.7v6.3c0,2.4,5.9,4.4,13.1,4.4s13.1-2,13.1-4.4v-6.3H286.9z"/>
	<path class="st1" d="M300,150.9c-6.6,0-13.6-1.7-13.6-4.9v-6.3c0-0.3,0.2-0.5,0.5-0.5h26.2c0.3,0,0.5,0.2,0.5,0.5v6.3
		C313.6,149.2,306.6,150.9,300,150.9z M287.4,140.2v5.8c0,1.8,5.2,3.9,12.6,3.9s12.6-2,12.6-3.9v-5.8H287.4z"/>
	<ellipse class="st1" cx="300" cy="139.7" rx="13.1" ry="4.4"/>
	<path class="st1" d="M300,144.6c-6.6,0-13.6-1.7-13.6-4.9s7-4.9,13.6-4.9s13.6,1.7,13.6,4.9S306.6,144.6,300,144.6z M300,135.9
		c-7.4,0-12.6,2-12.6,3.9s5.2,3.9,12.6,3.9s12.6-2,12.6-3.9S307.5,135.9,300,135.9z"/>
	<path class="st4" d="M289,130.6v6.3c0,2.4,5.9,4.4,13.1,4.4s13.1-2,13.1-4.4v-6.3H289z"/>
	<path class="st1" d="M302.1,141.7c-6.6,0-13.6-1.7-13.6-4.9v-6.3c0-0.3,0.2-0.5,0.5-0.5h26.2c0.3,0,0.5,0.2,0.5,0.5v6.3
		C315.8,140,308.7,141.7,302.1,141.7z M289.5,131.1v5.8c0,1.8,5.2,3.9,12.6,3.9s12.6-2,12.6-3.9v-5.8H289.5z"/>
	<ellipse class="st1" cx="302.1" cy="130.6" rx="13.1" ry="4.4"/>
	<path class="st1" d="M302.1,135.4c-6.6,0-13.6-1.7-13.6-4.9s7-4.8,13.6-4.8s13.6,1.7,13.6,4.8C315.8,133.7,308.7,135.4,302.1,135.4
		z M302.1,126.7c-7.4,0-12.6,2-12.6,3.9s5.2,3.9,12.6,3.9s12.6-2,12.6-3.9S309.6,126.7,302.1,126.7z"/>
	<path class="st4" d="M286.9,121.3v6.3c0,2.4,5.9,4.4,13.1,4.4s13.1-2,13.1-4.3v-6.3L286.9,121.3z"/>
	<path class="st1" d="M300,132.6c-6.6,0-13.6-1.7-13.6-4.8v-6.3c0-0.3,0.2-0.5,0.5-0.5h26.2c0.3,0,0.5,0.2,0.5,0.5v6.3
		C313.6,130.9,306.6,132.6,300,132.6z M287.4,121.9v5.8c0,1.8,5.2,3.8,12.6,3.8s12.6-2,12.6-3.8v-5.8H287.4z"/>
	<ellipse class="st1" cx="300" cy="121.3" rx="13.1" ry="4.3"/>
	<path class="st1" d="M300,126.2c-6.6,0-13.6-1.7-13.6-4.8s7-4.8,13.6-4.8s13.6,1.7,13.6,4.8S306.6,126.2,300,126.2z M300,117.5
		c-7.4,0-12.6,2-12.6,3.8s5.2,3.8,12.6,3.8s12.6-2,12.6-3.8S307.5,117.5,300,117.5z"/>
	<path class="st4" d="M291.2,113.8v6.3c0,2.4,5.9,4.3,13.1,4.3s13.1-2,13.1-4.3v-6.3H291.2z"/>
	<path class="st1" d="M304.3,125c-6.6,0-13.6-1.7-13.6-4.8v-6.3c0-0.3,0.2-0.5,0.5-0.5h26.2c0.3,0,0.5,0.2,0.5,0.5v6.3
		C317.9,123.3,310.9,125,304.3,125z M291.7,114.3v5.8c0,1.8,5.2,3.8,12.6,3.8s12.6-2,12.6-3.8v-5.8H291.7z"/>
	<ellipse class="st1" cx="304.3" cy="113.8" rx="13.1" ry="4.3"/>
	<path class="st1" d="M304.3,118.7c-6.6,0-13.6-1.7-13.6-4.8s7-4.8,13.6-4.8s13.6,1.7,13.6,4.8S310.9,118.7,304.3,118.7z M304.3,110
		c-7.4,0-12.6,2-12.6,3.8s5.2,3.8,12.6,3.8s12.6-2,12.6-3.8S311.7,110,304.3,110L304.3,110z"/>
	<path class="st4" d="M288.3,106.3v6.3c0,2.4,5.9,4.3,13.1,4.3s13.1-2,13.1-4.3v-6.3H288.3z"/>
	<path class="st1" d="M301.4,117.5c-6.6,0-13.6-1.7-13.6-4.8v-6.3c0-0.3,0.2-0.5,0.5-0.5h26.2c0.3,0,0.5,0.2,0.5,0.5v6.3
		C315,115.8,308,117.5,301.4,117.5z M288.8,106.8v5.8c0,1.8,5.2,3.8,12.6,3.8s12.6-2,12.6-3.8v-5.8H288.8z"/>
	<ellipse class="st4" cx="301.4" cy="106.3" rx="13.1" ry="4.3"/>
	<path class="st1" d="M301.4,111.2c-6.6,0-13.6-1.7-13.6-4.8s7-4.8,13.6-4.8s13.6,1.7,13.6,4.8S308,111.2,301.4,111.2z M301.4,102.5
		c-7.4,0-12.6,2-12.6,3.8s5.2,3.8,12.6,3.8s12.6-2,12.6-3.8S308.8,102.5,301.4,102.5z"/>
	<path class="st4" d="M273.8,155.2l0.3,4.7c0.1,3.2,6.1,5.6,13.5,5.5s13.4-2.8,13.3-6l-0.3-4.7L273.8,155.2z"/>
	<path class="st1" d="M287,165.9c-3.1,0.1-6.2-0.5-9.1-1.5c-2.8-1.1-4.3-2.7-4.3-4.4l-0.3-4.7c0-0.1,0-0.3,0.1-0.4
		c0.1-0.1,0.2-0.2,0.4-0.2l26.8-0.5c0.3,0,0.5,0.2,0.5,0.4c0,0,0,0,0,0l0.3,4.7c0,1.8-1.4,3.4-4.1,4.6c-3.1,1.3-6.3,1.9-9.6,1.9H287
		z M274.3,155.7l0.2,4.2c0,1.3,1.4,2.6,3.7,3.6c6,2.1,12.6,2,18.6-0.4c2.3-1,3.6-2.4,3.6-3.7l-0.3-4.2L274.3,155.7z"/>
	
		<ellipse transform="matrix(0.9998 -1.867394e-02 1.867394e-02 0.9998 -2.8436 5.3908)" class="st4" cx="287.2" cy="155" rx="13.4" ry="5.7"/>
	<path class="st1" d="M286.8,161.2c-3.1,0.1-6.2-0.5-9.1-1.6c-2.8-1.1-4.3-2.7-4.3-4.4s1.4-3.4,4.1-4.6c3.1-1.3,6.3-1.9,9.6-1.9
		c7.8-0.2,14,2.5,14,6l0,0c0.1,3.5-6,6.4-13.8,6.5L286.8,161.2z M287.8,149.7h-0.6c-3.2,0-6.3,0.6-9.2,1.8c-2.3,1-3.6,2.4-3.5,3.7
		s1.4,2.6,3.7,3.5c3,1.1,6.1,1.6,9.3,1.5c7-0.1,12.9-2.6,12.8-5.5l0,0C300.1,152,294.5,149.7,287.8,149.7L287.8,149.7z"/>
	<path class="st4" d="M254.4,122.4l0.3,4.7c0.1,3.2,6.1,5.6,13.5,5.5s13.4-2.8,13.3-6l-0.3-4.7L254.4,122.4z"/>
	<path class="st1" d="M267.6,133.1c-7.5,0-13.3-2.6-13.4-6l-0.3-4.7c0-0.1,0-0.3,0.1-0.4c0.1-0.1,0.2-0.2,0.4-0.2l26.8-0.5
		c0.3,0,0.5,0.2,0.5,0.5l0.3,4.7c0,1.8-1.4,3.4-4.1,4.6c-3.1,1.3-6.3,1.9-9.6,1.9L267.6,133.1z M254.9,122.9l0.3,4.2
		c0.1,2.9,6,5.2,13,5c3.2,0,6.3-0.6,9.2-1.8c2.3-1,3.6-2.4,3.5-3.7l-0.3-4.2L254.9,122.9z"/>
	
		<ellipse transform="matrix(0.9998 -1.867394e-02 1.867394e-02 0.9998 -2.2349 5.0215)" class="st4" cx="267.8" cy="122.2" rx="13.4" ry="5.7"/>
	<path class="st1" d="M267.3,128.4c-7.5,0-13.3-2.6-13.4-6c0-1.8,1.4-3.4,4.1-4.6c6.2-2.4,13.1-2.5,19.3-0.4
		c2.8,1.1,4.3,2.7,4.3,4.4l0,0c0,1.8-1.4,3.4-4.1,4.6c-3.1,1.3-6.3,1.9-9.6,1.9L267.3,128.4z M268.3,116.9h-0.6
		c-3.2,0-6.3,0.6-9.2,1.8c-2.3,1-3.6,2.4-3.6,3.7c0.1,2.8,6,5.1,13,5c3.2,0,6.3-0.6,9.2-1.8c2.3-1,3.6-2.4,3.5-3.7l0,0
		c0-1.3-1.4-2.6-3.7-3.5C274.2,117.4,271.2,116.9,268.3,116.9z"/>
	<path class="st0" d="M227.4,125.7c0,0,7.2,43.8,15.3,44.9c15,1.9,44.6-17.1,44.6-17.1s15.1-1.4,15.1-2.7s-5.1-1.5-5.1-1.5
		s9.1-0.4,8.8-2s-7-1-7-1s9-0.7,8.3-2.4s-8.3-0.8-8.3-0.8s7.8-1.5,6.9-3.2s-15.5,2.6-15.5,2.6s5.4-3.1,3.7-5.1s-9,6.2-9,6.2
		l-34,12.5l-4.5-30.1c0,0-1.9-7.8-10.3-7.8S227.4,125.7,227.4,125.7z"/>
	<path class="st1" d="M245,171.2c-0.8,0-1.6,0-2.4-0.1c-3.6-0.5-7.3-8.3-11.1-23.2c-2.8-11-4.6-22-4.6-22.1c0,0,0-0.1,0-0.1
		c0.5-4.8,4.7-8.3,9.6-8.1c8.7,0,10.7,8.1,10.8,8.2l4.4,29.6l33.4-12.2c0.9-1,6.1-6.6,8.6-6.6l0,0c0.4,0,0.8,0.2,1.1,0.5
		c0.4,0.4,0.5,1,0.4,1.5c-0.3,1.1-1,2-1.9,2.7c5.5-1.5,12.5-3.1,13.3-1.6c0.2,0.3,0.2,0.7,0,1c-0.7,0.9-1.7,1.5-2.7,1.7
		c1.9,0.1,3.7,0.4,4.1,1.4c0.1,0.3,0.1,0.6-0.1,0.9c-0.4,0.6-1.6,1.1-3.1,1.4c1,0.2,1.7,0.6,1.9,1.2c0.1,0.3,0,0.5-0.2,0.8
		c-0.6,0.7-2.7,1.2-4.9,1.4c0.4,0.1,0.8,0.3,1.1,0.6c0.2,0.2,0.3,0.5,0.3,0.8c0,0.4-0.1,1.7-15.5,3.1
		C285.3,155.3,260.1,171.2,245,171.2z M227.9,125.7c2,12.1,8.6,43.6,14.9,44.4c14.6,1.9,44-16.8,44.2-17c0.1,0,0.1-0.1,0.2-0.1
		c6.5-0.6,13.5-1.6,14.6-2.3c-0.4-0.4-2.5-0.8-4.6-0.9c-0.3,0-0.5-0.2-0.5-0.5s0.2-0.5,0.5-0.5c4.2-0.2,8-0.8,8.3-1.4
		c-0.1-0.5-3.3-0.8-6.5-0.6c-0.3,0-0.5-0.2-0.5-0.5s0.2-0.5,0.5-0.5c4-0.3,7.6-1.1,7.8-1.8c-0.4-0.8-4.3-0.9-7.7-0.5
		c-0.3,0-0.5-0.2-0.6-0.4c0-0.3,0.1-0.5,0.4-0.6c2.5-0.5,6.1-1.6,6.5-2.4c-0.8-0.8-8.3,0.8-14.9,2.8c-0.3,0.1-0.5-0.1-0.6-0.3
		c-0.1-0.2,0-0.5,0.2-0.6c1-0.6,3.6-2.4,3.8-3.7c0.1-0.2,0-0.5-0.2-0.7c-0.1-0.1-0.2-0.1-0.3-0.1c-1.6,0-5.7,3.9-7.9,6.4
		c-0.1,0.1-0.1,0.1-0.2,0.1l-34.1,12.4c-0.1,0.1-0.3,0.1-0.4,0c-0.1-0.1-0.2-0.2-0.2-0.4l-4.5-30.1c-1.2-4.4-5.2-7.5-9.8-7.3
		C228.9,118.6,228,124.9,227.9,125.7z"/>
	<path class="st1" d="M118.5,134.4c-0.2,0-0.4-0.1-0.5-0.3c-0.1-0.3,0-0.5,0.3-0.6c0,0,0,0,0,0l5.7-2.3c0.3-0.1,0.5,0,0.7,0.3
		c0.1,0.3,0,0.5-0.3,0.6l-5.7,2.3L118.5,134.4z"/>
	<path class="st1" d="M212.6,133.5c-3.6,0-12.5-4.8-12.9-5c-0.2-0.1-0.3-0.4-0.2-0.7c0.1-0.2,0.4-0.3,0.7-0.2c0.1,0,9,4.9,12.4,4.9
		c0.3,0,0.5,0.2,0.5,0.5S212.9,133.5,212.6,133.5L212.6,133.5z"/>
	<rect x="58.8" y="176" class="st0" width="282.3" height="69.9"/>
	<path class="st1" d="M341.2,176v70H58.8v-70H341.2 M341.2,175H58.8c-0.6,0-1,0.4-1,1v70c0,0.6,0.4,1,1,1h282.3c0.6,0,1-0.4,1-1v-70
		C342.2,175.4,341.7,175,341.2,175z"/>
	<path class="st1" d="M199.9,221.7h-77.6c-0.3,0-0.5-0.2-0.5-0.5s0.2-0.5,0.5-0.5h77.6c0.3,0,0.5,0.2,0.5,0.5
		S200.2,221.7,199.9,221.7z"/>
	<rect x="171.8" y="175.6" class="st2" width="56.5" height="73.2"/>
	<path class="st1" d="M228.2,249.3h-56.5c-0.3,0-0.5-0.2-0.5-0.5v-73.2c0-0.3,0.2-0.5,0.5-0.5h56.5c0.3,0,0.5,0.2,0.5,0.5v73.2
		C228.7,249.1,228.5,249.3,228.2,249.3z M172.2,248.3h55.5v-72.2h-55.5L172.2,248.3z"/>
	<path class="st1" d="M151.4,191.6H58.8c-0.3,0-0.5-0.2-0.5-0.5s0.2-0.5,0.5-0.5h92.6c0.3,0,0.5,0.2,0.5,0.5
		S151.7,191.6,151.4,191.6z"/>
	<path class="st1" d="M341.2,194.6h-84.1c-0.3,0-0.5-0.2-0.5-0.5s0.2-0.5,0.5-0.5h84.1c0.3,0,0.5,0.2,0.5,0.5
		S341.4,194.6,341.2,194.6z"/>
	<path class="st1" d="M309.6,218.9h-73c-0.3,0-0.5-0.2-0.5-0.5c0-0.3,0.2-0.5,0.5-0.5h73c0.3,0,0.5,0.2,0.5,0.5
		C310.1,218.7,309.9,218.9,309.6,218.9z"/>
	<path class="st1" d="M341.2,236.4h-83.4c-0.3,0-0.5-0.2-0.5-0.5s0.2-0.5,0.5-0.5h83.4c0.3,0,0.5,0.2,0.5,0.5
		S341.4,236.4,341.2,236.4z"/>
	<path class="st1" d="M138.4,236.4H76.3c-0.3,0-0.5-0.2-0.5-0.5s0.2-0.5,0.5-0.5h62.1c0.3,0,0.5,0.2,0.5,0.5
		S138.7,236.4,138.4,236.4z"/>
	<path class="st1" d="M128.1,205H90.3c-0.3,0-0.5-0.2-0.5-0.5c0-0.3,0.2-0.5,0.5-0.5h37.8c0.3,0,0.5,0.2,0.5,0.5
		C128.6,204.8,128.4,205,128.1,205z"/>
	<path class="st1" d="M270.3,205h-28.4c-0.3,0-0.5-0.2-0.5-0.5s0.2-0.5,0.5-0.5h28.4c0.3,0,0.5,0.2,0.5,0.5S270.6,205,270.3,205z"/>
</g>
<path class="st7" d="M303.3,105.9c0.2-0.1,0.4-0.2,0.5-0.4c0.1-0.2,0.2-0.4,0.2-0.6c0-0.2,0-0.4-0.1-0.6c-0.1-0.2-0.2-0.3-0.4-0.4
	c-0.1-0.1-0.3-0.2-0.5-0.2c0,0-0.1,0-0.1,0v-0.3c0-0.1-0.1-0.2-0.2-0.2h-0.4c-0.1,0-0.2,0.1-0.2,0.2v0.3h-0.4v-0.3
	c0-0.1-0.1-0.2-0.2-0.2h-0.4c-0.1,0-0.2,0.1-0.2,0.2v0.3h-0.7v4.9h0.7v0.2c0,0.1,0.1,0.2,0.2,0.2h0.4c0.1,0,0.2-0.1,0.2-0.2v-0.2
	h0.2c0.1,0,0.2,0,0.2,0v0.2c0,0.1,0.1,0.2,0.2,0.2h0.4c0.1,0,0.2-0.1,0.2-0.2v-0.3c0.1,0,0.1,0,0.1,0c0.3,0,0.5-0.1,0.7-0.2
	c0.2-0.1,0.3-0.3,0.4-0.5c0.1-0.2,0.2-0.4,0.2-0.6c0-0.3-0.1-0.5-0.2-0.7C303.9,106.1,303.6,105.9,303.3,105.9z M301.7,104.4
	c0.5,0,0.7,0,0.8,0c0.2,0,0.3,0.1,0.4,0.2s0.1,0.2,0.1,0.4c0,0.2,0,0.3-0.1,0.4c-0.1,0.1-0.2,0.2-0.4,0.2c-0.1,0-0.3,0-0.7,0h-0.6
	v-1.1H301.7z M303.1,107.4c-0.1,0.1-0.2,0.2-0.4,0.2c-0.1,0-0.3,0-0.7,0h-0.9v-1.3h0.8c0.4,0,0.7,0,0.9,0.1s0.2,0.1,0.3,0.2
	c0.1,0.1,0.1,0.2,0.1,0.4C303.2,107.2,303.2,107.3,303.1,107.4z"/>
<path class="st7" d="M269.7,121.8c0.2-0.1,0.4-0.2,0.5-0.4c0.1-0.2,0.2-0.4,0.2-0.6c0-0.2,0-0.4-0.1-0.6c-0.1-0.2-0.2-0.3-0.4-0.4
	c-0.1-0.1-0.3-0.2-0.5-0.2c0,0-0.1,0-0.1,0v-0.3c0-0.1-0.1-0.2-0.2-0.2h-0.4c-0.1,0-0.2,0.1-0.2,0.2v0.3H268v-0.3
	c0-0.1-0.1-0.2-0.2-0.2h-0.4c-0.1,0-0.2,0.1-0.2,0.2v0.3h-0.7v4.9h0.7v0.2c0,0.1,0.1,0.2,0.2,0.2h0.4c0.1,0,0.2-0.1,0.2-0.2v-0.2
	h0.2c0.1,0,0.2,0,0.2,0v0.2c0,0.1,0.1,0.2,0.2,0.2h0.4c0.1,0,0.2-0.1,0.2-0.2v-0.3c0.1,0,0.1,0,0.1,0c0.3,0,0.5-0.1,0.7-0.2
	c0.2-0.1,0.3-0.3,0.4-0.5c0.1-0.2,0.2-0.4,0.2-0.6c0-0.3-0.1-0.5-0.2-0.7C270.2,122,270,121.9,269.7,121.8z M268.1,120.3
	c0.5,0,0.7,0,0.8,0c0.2,0,0.3,0.1,0.4,0.2c0.1,0.1,0.1,0.2,0.1,0.4c0,0.2,0,0.3-0.1,0.4c-0.1,0.1-0.2,0.2-0.4,0.2
	c-0.1,0-0.3,0-0.7,0h-0.6v-1.1H268.1z M269.5,123.3c-0.1,0.1-0.2,0.2-0.4,0.2c-0.1,0-0.3,0-0.7,0h-0.9v-1.3h0.8c0.4,0,0.7,0,0.9,0.1
	c0.1,0,0.2,0.1,0.3,0.2c0.1,0.1,0.1,0.2,0.1,0.4C269.6,123.1,269.6,123.2,269.5,123.3z"/>
<path class="st7" d="M290.3,155.8c0.2-0.1,0.4-0.2,0.5-0.4c0.1-0.2,0.2-0.4,0.2-0.6c0-0.2,0-0.4-0.1-0.6c-0.1-0.2-0.2-0.3-0.4-0.4
	c-0.1-0.1-0.3-0.2-0.5-0.2c0,0-0.1,0-0.1,0v-0.3c0-0.1-0.1-0.2-0.2-0.2h-0.4c-0.1,0-0.2,0.1-0.2,0.2v0.3h-0.4v-0.3
	c0-0.1-0.1-0.2-0.2-0.2H288c-0.1,0-0.2,0.1-0.2,0.2v0.3h-0.7v4.9h0.7v0.2c0,0.1,0.1,0.2,0.2,0.2h0.4c0.1,0,0.2-0.1,0.2-0.2v-0.2h0.2
	c0.1,0,0.2,0,0.2,0v0.2c0,0.1,0.1,0.2,0.2,0.2h0.4c0.1,0,0.2-0.1,0.2-0.2v-0.3c0.1,0,0.1,0,0.1,0c0.3,0,0.5-0.1,0.7-0.2
	c0.2-0.1,0.3-0.3,0.4-0.5c0.1-0.2,0.2-0.4,0.2-0.6c0-0.3-0.1-0.5-0.2-0.7C290.8,156,290.6,155.9,290.3,155.8z M288.6,154.3
	c0.5,0,0.7,0,0.8,0c0.2,0,0.3,0.1,0.4,0.2s0.1,0.2,0.1,0.4c0,0.2,0,0.3-0.1,0.4c-0.1,0.1-0.2,0.2-0.4,0.2c-0.1,0-0.3,0-0.7,0h-0.6
	v-1.1H288.6z M290,157.4c-0.1,0.1-0.2,0.2-0.4,0.2c-0.1,0-0.3,0-0.7,0h-0.9v-1.3h0.8c0.4,0,0.7,0,0.9,0.1c0.1,0,0.2,0.1,0.3,0.2
	c0.1,0.1,0.1,0.2,0.1,0.4C290.2,157.1,290.1,157.2,290,157.4z"/>
</svg>
