<?xml version="1.0" encoding="utf-8"?>
<!-- Generator: Adobe Illustrator 24.0.1, SVG Export Plug-In . SVG Version: 6.00 Build 0)  -->
<svg version="1.1" id="Layer_1" xmlns="http://www.w3.org/2000/svg" xmlns:xlink="http://www.w3.org/1999/xlink" x="0px" y="0px"
	 viewBox="0 0 400 300" style="enable-background:new 0 0 400 300;" xml:space="preserve">
<style type="text/css">
	.st0{fill:#231F20;}
	.st1{fill:#FFFFFF;}
	.st2{fill:#2A30FE;}
	.st3{fill:#00E4C1;}
	.st4{fill:#E6E7E8;}
	.st5{fill:#00E4C1;stroke:#020202;stroke-miterlimit:10;}
</style>
<g id="_558_money_motivation_flatline">
	<path class="st0" d="M187.6,124.2h-0.1c-0.5-0.1-0.9-0.6-0.8-1.1c0,0,0,0,0,0c0.1-0.4,6.4-40.8,39.2-64.5
		c21.9-15.8,50.4-20.7,84.8-14.6c0.6,0.1,0.9,0.6,0.8,1.2c-0.1,0.6-0.6,0.9-1.2,0.8l0,0c-33.8-6-61.8-1.2-83.2,14.3
		c-32.2,23.2-38.4,62.8-38.4,63.2C188.5,123.8,188.1,124.2,187.6,124.2z"/>
	<polygon class="st1" points="120.2,199.4 108.7,195.9 104.4,203.8 115.2,207.7 	"/>
	<path class="st0" d="M115.2,208.2H115l-10.7-3.9c-0.1-0.1-0.2-0.2-0.2-0.3c-0.1-0.1-0.1-0.3,0-0.4l4.3-7.9c0.1-0.2,0.4-0.3,0.6-0.2
		l11.5,3.5c0.1,0.1,0.3,0.2,0.3,0.3c0.1,0.1,0.1,0.3,0,0.4l-5,8.3C115.6,208.1,115.4,208.2,115.2,208.2z M105.2,203.5l9.8,3.5
		l4.5-7.4l-10.5-3.2L105.2,203.5z"/>
	<polygon class="st1" points="185.8,233.8 180.1,242.7 191.2,245.9 199,236.6 	"/>
	<path class="st0" d="M191.2,246.4c0,0-0.1,0-0.1,0l-11.1-3.2c-0.2,0-0.3-0.2-0.3-0.3c-0.1-0.1-0.1-0.3,0-0.4l5.8-8.9
		c0.1-0.2,0.3-0.3,0.5-0.2l13.2,2.8c0.2,0,0.3,0.2,0.4,0.3c0.1,0.2,0,0.3-0.1,0.5l-7.8,9.3C191.5,246.3,191.4,246.4,191.2,246.4z
		 M180.9,242.4l10.1,2.9l7.1-8.4l-12-2.6L180.9,242.4z"/>
	<path class="st2" d="M180.1,242.7c0,0-5.4,6.3-5.1,7s23,9.3,24,7.7s-7.8-11.5-7.8-11.5L180.1,242.7z"/>
	<path class="st0" d="M198.3,258.1c-0.2,0-0.5,0-0.7,0c-4.4-0.5-22.7-7-23.1-8.2c-0.1-0.2-0.4-1,5.2-7.5c0.1-0.1,0.3-0.2,0.5-0.1
		l11.1,3.2c0.1,0,0.2,0.1,0.2,0.1c2.7,3,9,10.3,7.9,12.1C199.2,258,198.9,258.1,198.3,258.1z M175.5,249.5
		c2.4,1.6,21.6,8.3,23.1,7.5c0.3-0.7-3.2-5.7-7.7-10.7l-10.7-3.1C178.5,245.2,176.9,247.3,175.5,249.5L175.5,249.5z"/>
	<path class="st0" d="M190.6,177.3c0,0,25.1,24,25.8,29.7s-19.3,34.4-19.3,34.4l-15-6.4c0,0,16.8-21.3,13.4-27.7
		s-22.2-17.8-22.2-17.8s-12.1,26.6-20,30.8s-41.1-11-41.1-11l6.8-13.7c0,0,21.9,8.1,26.1,4.6s10.7-35.6,10.7-35.6L190.6,177.3z"/>
	<path class="st0" d="M197.1,241.9c-0.1,0-0.1,0-0.2,0l-14.9-6.4c-0.1-0.1-0.2-0.2-0.3-0.3c0-0.1,0-0.3,0.1-0.4
		c4.6-5.9,16-22.2,13.3-27.1c-3.1-5.6-18.6-15.4-21.5-17.3c-1.8,3.8-12.5,26.6-20,30.5c-8.1,4.2-40.1-10.4-41.5-11
		c-0.1-0.1-0.2-0.2-0.3-0.3c-0.1-0.1-0.1-0.3,0-0.4l6.8-13.7c0.1-0.2,0.4-0.3,0.6-0.2c6,2.2,22.4,7.4,25.6,4.7s8.7-26.4,10.6-35.3
		c0.1-0.3,0.3-0.4,0.6-0.4c0,0,0,0,0.1,0l34.7,12.8c0.1,0,0.1,0.1,0.2,0.1c1,1,25.2,24.2,26,30s-18.6,33.6-19.4,34.8
		C197.4,241.9,197.3,241.9,197.1,241.9z M183,234.8l14,6c5.7-8.2,19.5-29.3,19-33.7s-17-21.1-25.7-29.3l-34.1-12.6
		c-0.9,4.5-6.8,32-10.8,35.3s-22.5-3-26.1-4.3l-6.3,12.8c4,1.8,33,14.6,40.2,10.8c7.7-4,19.6-30.3,19.8-30.5
		c0.1-0.1,0.2-0.2,0.3-0.3c0.1-0.1,0.3-0.1,0.4,0c0.8,0.5,18.9,11.6,22.4,18C199.3,213.2,185.6,231.4,183,234.8z"/>
	<path class="st1" d="M246,116.4c1.8-1.2,3.7-2.3,5.7-3.1c2.3-0.8,5.2-1.3,4.6-2.3s-6.1,0.4-6.1,0.4s3.2-4.9,5-5.9s4.4-0.9,3.1-1.8
		s-5.1-1.1-6.4-0.4s-9,9.1-9.4,9.6S246,116.4,246,116.4z"/>
	<path class="st0" d="M246,116.9c-0.1,0-0.2,0-0.3-0.1c-2.5-1.9-3.8-3.1-3.9-3.7c0-0.2,0-0.3,0.1-0.5c0.1-0.1,8-8.9,9.6-9.7
		s5.5-0.6,7,0.4c0.1,0.1,0.6,0.5,0.5,1s-0.7,0.7-1.7,1c-0.7,0.2-1.4,0.4-2,0.7c-1.1,0.6-2.9,3-4.1,4.6c2.1-0.5,4.8-0.8,5.4,0.1
		c0.2,0.2,0.2,0.6,0.1,0.9c-0.3,0.8-1.4,1.1-3.4,1.7c-0.5,0.1-1,0.3-1.5,0.5c-2,0.8-3.8,1.8-5.6,3C246.2,116.9,246.1,117,246,116.9z
		 M242.9,113.1c1,1,2,1.9,3.1,2.7c1.7-1.2,3.6-2.2,5.5-3c0.5-0.2,1-0.3,1.6-0.5c1-0.3,2.6-0.8,2.8-1.1c-0.4-0.3-3,0-5.6,0.7
		c-0.3,0.1-0.5-0.1-0.6-0.4c0-0.1,0-0.3,0.1-0.4c0.1-0.2,3.3-5,5.2-6c0.7-0.4,1.5-0.6,2.2-0.8l0.7-0.2c-1.2-0.8-4.7-0.9-5.8-0.3
		S244.2,111.7,242.9,113.1L242.9,113.1z"/>
	<path class="st3" d="M195.5,119.6c0,0,31.3,6.7,34.3,5.9l11.8-13.3l6.9,4.5c0,0-3.6,10.9-8.6,17.2s-37.7,7.6-37.7,7.6L195.5,119.6z
		"/>
	<path class="st1" d="M200.5,113c-0.9-0.9-1.5-2.1-1.7-3.3c-0.9-4.2-1.3-8.7,0.4-12.7s5.8-7.1,10.1-6.4c2,0.3,3.7,1.4,5.6,2.2
		s3.9,1.4,5.8,0.7c0.9-0.3,1.8-1,2.7-0.9c1,0.2,1.8,1,2,2c0.2,1,0.1,2-0.2,3c-1.2,4.3-3.9,7.9-7.8,10.1c-3.5,2-6.3,5.2-10.3,6.2
		C204.3,114.5,202,114.4,200.5,113z"/>
	<path class="st0" d="M204,114.7c-1.4,0.1-2.8-0.4-3.9-1.3l0,0c-1-1-1.6-2.2-1.9-3.6c-1.2-5.3-1-9.5,0.4-13
		c1.6-3.8,5.9-7.5,10.6-6.7c1.5,0.3,3,0.8,4.4,1.6c0.4,0.2,0.9,0.4,1.3,0.6c2.2,1,4,1.2,5.4,0.7c0.2-0.1,0.5-0.2,0.7-0.3
		c0.7-0.4,1.4-0.6,2.2-0.6c1.2,0.2,2.2,1.1,2.5,2.4c0.2,1.1,0.1,2.2-0.3,3.2c-1.2,4.4-4.1,8.1-8,10.4c-1.2,0.7-2.4,1.5-3.6,2.4
		c-2.1,1.6-4.2,3.2-6.9,3.8C206.1,114.5,205.1,114.7,204,114.7z M208.1,91c-3.8,0-7.1,3-8.5,6.2s-1.5,7.3-0.4,12.4
		c0.2,1.2,0.7,2.2,1.6,3.1l0,0c1.3,1.2,3.2,1.4,6.1,0.7c2.4-0.6,4.4-2,6.5-3.6c1.2-0.9,2.4-1.8,3.7-2.5c3.7-2.2,6.4-5.7,7.5-9.8
		c0.3-0.9,0.4-1.8,0.2-2.7c-0.1-0.8-0.8-1.4-1.6-1.6c-0.6,0-1.2,0.2-1.7,0.5c-0.3,0.1-0.5,0.3-0.8,0.4c-1.7,0.6-3.7,0.4-6.2-0.7
		c-0.4-0.2-0.9-0.4-1.4-0.6c-1.3-0.7-2.6-1.2-4.1-1.5C208.8,91,208.5,91,208.1,91z"/>
	<path class="st1" d="M217.5,108.5c0,0,1.9,5.9,0.9,6.7s-3-0.5-3-0.5"/>
	<path class="st0" d="M217.6,116.1c-0.9-0.1-1.7-0.4-2.4-0.8c-0.2-0.1-0.3-0.4-0.2-0.7c0,0,0,0,0,0c0.1-0.2,0.5-0.3,0.7-0.2
		c0.6,0.4,1.9,1,2.4,0.5c0.4-0.4-0.1-3.3-1.1-6.2c-0.1-0.3,0-0.5,0.3-0.6c0,0,0,0,0,0c0.3-0.1,0.5,0.1,0.6,0.3
		c0.6,1.9,1.9,6.3,0.8,7.3C218.4,115.9,218,116.1,217.6,116.1z"/>
	<path class="st1" d="M218.6,101.8c1.6,2.3,0,5.7-0.7,8.1c-0.9,3.3-2,6.6-3.1,9.8c-0.7,2.1-6.1,0.6-6.9-0.3l-1.4,7.1
		c0,0-2.3,3.5-6.1,0.2s-4.1-6.3-4.1-6.3l3-9.4c0,0,3.6,1,6.9-2.7s5-10.2,5-10.2S217,99.5,218.6,101.8z"/>
	<path class="st0" d="M203.6,128.5c-1.3-0.1-2.5-0.6-3.5-1.5c-3.9-3.3-4.2-6.5-4.2-6.7c0-0.1,0-0.1,0-0.2l3-9.4
		c0.1-0.3,0.3-0.4,0.6-0.3c0,0,0,0,0,0c0.1,0,3.3,0.9,6.4-2.5c3.2-3.5,4.9-10,4.9-10c0.1-0.3,0.3-0.4,0.6-0.3c0.2,0.1,5.9,1.6,7.6,4
		c1.5,2.1,0.6,5-0.2,7.2c-0.1,0.4-0.3,0.9-0.4,1.2c-0.9,3.3-2,6.6-3.1,9.8c-0.3,0.7-0.9,1.2-1.7,1.3c-1.8,0.2-3.7-0.1-5.3-0.9
		l-1.3,6.3c0,0.1,0,0.1-0.1,0.2c-0.7,1-1.7,1.6-2.9,1.8C203.9,128.5,203.7,128.5,203.6,128.5z M196.9,120.4c0.1,0.5,0.6,3.1,3.9,5.9
		c0.8,0.9,2,1.3,3.2,1.2c0.8-0.2,1.6-0.6,2.1-1.3l1.4-7c0-0.2,0.2-0.3,0.4-0.4c0.2,0,0.4,0,0.5,0.2c1.5,0.9,3.3,1.3,5.1,1.1
		c0.4,0,0.8-0.3,1-0.6c1.1-3.2,2.1-6.5,3-9.8c0.1-0.4,0.3-0.8,0.4-1.3c0.7-2.1,1.5-4.7,0.3-6.4l0,0c-1.1-1.6-4.8-2.9-6.6-3.4
		c-0.5,1.6-2.2,6.8-5,10s-5.8,3.1-6.9,2.9L196.9,120.4z"/>
	<path class="st1" d="M209.5,106.7c0.1-0.9,0-1.7-0.3-2.5c-0.2-0.6-0.4-1.3-0.8-1.8c-0.4-0.6-1-0.9-1.6-1c-0.6,0-1.2,0.2-1.6,0.7
		c-0.4,0.4-0.7,1-0.9,1.5c-0.8,2.5-0.2,5.2,1.5,7.2l-0.1-0.2"/>
	<path class="st0" d="M205.8,111.2c-0.1,0-0.3-0.1-0.4-0.2c-1.9-2.1-2.5-5-1.6-7.7c0.2-0.6,0.5-1.2,1-1.7c0.5-0.6,1.2-0.9,2-0.8
		c0.8,0.1,1.6,0.5,2,1.2c0.4,0.6,0.7,1.3,0.9,2c0.4,0.9,0.5,1.9,0.3,2.8c-0.1,0.3-0.3,0.4-0.6,0.4s-0.4-0.3-0.4-0.6
		c0.1-0.8,0-1.5-0.3-2.2c-0.1-0.6-0.4-1.2-0.7-1.7c-0.3-0.4-0.7-0.8-1.2-0.8c-0.5,0-0.9,0.2-1.2,0.5c-0.3,0.4-0.6,0.8-0.8,1.3
		c-0.7,2.2-0.3,4.5,1.1,6.3c0.1,0,0.2,0.1,0.3,0.2l0.1,0.2c0.1,0.2,0.1,0.5-0.1,0.6C206,111.2,205.9,111.2,205.8,111.2z"/>
	<path class="st0" d="M208,119.4c-1.5-1-2.6-2.3-3.3-3.9c0,0-1.2,5.1,2.7,7.7L208,119.4z"/>
	<path class="st0" d="M207.3,123.7c-0.1,0-0.2,0-0.3-0.1c-4.1-2.8-2.9-8-2.9-8.3c0.1-0.2,0.2-0.4,0.5-0.4c0.2,0,0.4,0.1,0.5,0.3
		c0.7,1.5,1.8,2.8,3.1,3.7c0.2,0.1,0.3,0.3,0.2,0.5l-0.6,3.8c0,0.2-0.1,0.3-0.3,0.4C207.5,123.6,207.4,123.7,207.3,123.7z
		 M205,117.1c-0.1,1.9,0.6,3.8,2,5.1l0.4-2.7C206.5,118.9,205.7,118.1,205,117.1z"/>
	<path class="st0" d="M214,109l0.2-0.5c-0.2-0.1-0.3-0.2-0.5-0.3c-0.6-0.4-0.8-1.1-0.6-1.8l1,0.3c-0.1,0.3,0,0.7,0.4,0.9l0.4-1.3
		c-0.2-0.1-0.4-0.2-0.5-0.4c-0.2-0.1-0.3-0.3-0.4-0.5c-0.1-0.2-0.1-0.5-0.1-0.7c0-0.3,0.2-0.6,0.3-0.8c0.3-0.3,0.7-0.5,1.1-0.6
		c0.2,0,0.3,0,0.5,0h0.1l0.2-0.7l0.9,0.3v0.1c-0.1,0.2-0.1,0.4-0.2,0.6s0,0.1,0,0.1c0.3,0.2,0.5,0.4,0.7,0.7c0.2,0.3,0.3,0.7,0.2,1
		c0,0.1,0,0.2-0.1,0.3l-1-0.3c0.1-0.3,0-0.6-0.2-0.8l-0.4,1.2l0.1,0.1c0.2,0.1,0.5,0.3,0.7,0.5c0.3,0.3,0.5,0.7,0.4,1.2
		c-0.1,0.4-0.3,0.8-0.6,1c-0.3,0.2-0.6,0.3-0.9,0.3c-0.2,0-0.4,0-0.6,0l-0.2,0.5L214,109z M215.7,106.8l-0.4,1.1c0.1,0,0.3,0,0.4,0
		c0.3-0.1,0.4-0.4,0.3-0.7c0,0,0-0.1-0.1-0.1C216,107.1,215.9,106.9,215.7,106.8L215.7,106.8z M215.2,105.4l0.4-1.1
		c-0.1,0-0.3,0-0.4,0.1c-0.3,0.1-0.4,0.4-0.3,0.6c0,0.1,0.1,0.1,0.1,0.2C215.1,105.2,215.2,105.3,215.2,105.4L215.2,105.4z"/>
	<path class="st0" d="M213.7,117.5c-1,0-2-0.4-2.8-1.1c-0.8-1-1.1-2.3-0.8-3.6c0-0.3,0.3-0.5,0.6-0.4c0,0,0,0,0,0
		c0.3,0,0.5,0.3,0.4,0.6c-0.3,1-0.1,2,0.5,2.8c0.6,0.5,1.4,0.8,2.1,0.8c0.3,0,0.5,0.2,0.5,0.5s-0.2,0.5-0.5,0.5H213.7z"/>
	<path class="st0" d="M210.1,113.5c-0.2,0-0.5,0-0.7-0.1c-0.3-0.1-0.4-0.4-0.4-0.6c0.1-0.3,0.4-0.4,0.6-0.4c0.6,0.2,1.3-0.2,1.5-0.8
		c0-0.1,0-0.1,0-0.2c0.1-0.3,0.4-0.4,0.6-0.3c0.3,0.1,0.4,0.3,0.4,0.6c-0.2,0.6-0.6,1.1-1.1,1.5
		C210.8,113.3,210.4,113.4,210.1,113.5z"/>
	<path class="st3" d="M193.9,118.4c0,0,13.6,10.1,13.5,18.5s-15.3,39.7-15.6,40.1s-35.9-12.4-35.9-12.4s3.9-13.4,10.5-22.2
		C173.2,133.3,185.1,112.7,193.9,118.4z"/>
	<path class="st1" d="M243.7,140.7l5.3-4.4c1.7-1.4,3.3-5.2,4.8-5.2s-1.2,4.5-1.2,4.5s5.7-4.3,7.4-4.5s2.7,2.8,2.3,3.8
		s-5.2,3.2-7,4.9c-2.4,2.1-4.9,4-7.6,5.8"/>
	<path class="st0" d="M247.8,146.1c-0.3,0-0.5-0.2-0.5-0.5c0-0.2,0.1-0.3,0.2-0.4c2.6-1.7,5.1-3.6,7.5-5.7c1.3-1.1,2.7-2.1,4.2-2.9
		c1-0.5,1.9-1.2,2.7-1.9c0.1-0.8-0.1-1.6-0.6-2.3c-0.2-0.5-0.7-0.8-1.2-0.8c-1.2,0.1-5,2.7-7.1,4.4c-0.2,0.2-0.5,0.2-0.6,0
		c-0.2-0.2-0.2-0.4-0.1-0.6c1-1.7,1.7-3.4,1.6-3.8c-0.6,0.1-1.6,1.4-2.4,2.6c-0.6,0.9-1.3,1.8-2.1,2.5l-5.3,4.4l-0.6-0.8l5.3-4.4
		c0.7-0.7,1.4-1.5,1.9-2.4c1.1-1.5,2.1-2.9,3.2-2.9l0,0c0.3,0,0.7,0.2,0.8,0.5c0.3,0.6,0,1.8-0.5,2.8c1.9-1.3,4.6-3.1,5.9-3.2
		c0.9,0,1.7,0.4,2.1,1.2c0.7,0.9,0.9,2.1,0.6,3.3c-0.3,0.6-1.3,1.2-3.1,2.3c-1.4,0.8-2.8,1.7-4,2.8c-2.4,2.1-5,4-7.6,5.8
		C247.9,146.1,247.9,146.1,247.8,146.1z"/>
	<path class="st3" d="M202,127.5c0.3,0.4,14.4,22.9,14.4,22.9l28.1-13.5l6.9,7.9c0,0-23.7,17.9-32.9,20.9s-30.5-30-30.2-33.6
		S198,122.5,202,127.5z"/>
	<path class="st0" d="M216.4,150.9c-0.2,0-0.3-0.1-0.4-0.2l-12.8-20.3c-0.1-0.2-0.1-0.5,0.2-0.7c0.2-0.1,0.5-0.1,0.7,0.1l12.5,19.9
		l14.8-7.8c0.2-0.1,0.5,0,0.7,0.2c0.1,0.2,0,0.5-0.2,0.7c0,0,0,0,0,0l-15.2,8C216.6,150.9,216.5,150.9,216.4,150.9z"/>
	<path class="st0" d="M217.9,165.8c-5.9,0-12.3-5-19-14.9c-0.2-0.2-0.1-0.5,0.1-0.7c0,0,0,0,0,0c0.2-0.2,0.5-0.1,0.7,0.1
		c0,0,0,0,0,0c7.3,10.8,14.1,15.6,20.2,14.3s18.4-10.9,18.5-11c0.2-0.2,0.5-0.1,0.7,0.1c0.2,0.2,0.1,0.5-0.1,0.7
		c-0.5,0.4-12.5,9.9-18.9,11.2C219.3,165.8,218.6,165.8,217.9,165.8z"/>
	<path class="st2" d="M207.2,125.4l-1,1.8l1.2,2.4c0,0-6.3,15.8-28.3-1.8l-8.4,1.4l3.5,7.2c0,0,27.4,16.9,34.1-6.4l0.9-2.6
		L207.2,125.4z"/>
	<path class="st0" d="M192.8,142.9c-9.2,0-18.5-5.7-19-6c-0.1,0-0.1-0.1-0.2-0.2l-3.5-7.2c-0.1-0.1-0.1-0.3,0-0.4
		c0.1-0.1,0.2-0.2,0.4-0.3l8.4-1.4c0.1,0,0.3,0,0.4,0.1c8.3,6.7,15.3,9.3,20.7,7.9c3-0.8,5.4-2.9,6.8-5.6l-1.1-2.2
		c-0.1-0.1-0.1-0.3,0-0.5l1-1.8c0.1-0.1,0.2-0.2,0.4-0.2c0.2,0,0.3,0,0.4,0.2l1.9,2.1c0.1,0.1,0.2,0.3,0.1,0.5l-0.9,2.6
		c-1.7,5.9-4.9,9.8-9.4,11.5C197.1,142.5,195,142.9,192.8,142.9z M174.5,136.1c1.4,0.8,14.7,8.4,24.3,4.7c4.1-1.6,7-5,8.7-10.3
		c-1.5,2.8-4.1,4.9-7.2,5.8c-5.7,1.5-12.9-1.1-21.4-7.9l-7.5,1.2L174.5,136.1z M206.7,127.3l1.1,2.2v0.1l0.7-1.9l-1.2-1.3
		L206.7,127.3z"/>
	<path class="st2" d="M108.7,195.9c0,0-9.2-3.6-9.7-3.2s-11.2,16.3-9.1,16.6s14.6-5.5,14.6-5.5L108.7,195.9z"/>
	<path class="st0" d="M90,209.8h-0.2c-0.3,0-0.6-0.3-0.7-0.6c-0.6-2.5,9.5-16.8,9.6-16.9s0.7-0.5,10.2,3.2c0.1,0.1,0.2,0.2,0.3,0.3
		c0.1,0.1,0.1,0.3,0,0.4l-4.3,7.9c-0.1,0.1-0.1,0.2-0.2,0.2C103.4,204.8,92.5,209.8,90,209.8z M99.2,193.1c-0.5,0.6-2.8,3.9-5,7.5
		c-3.6,5.9-4.1,7.7-4.1,8.1c1.8-0.1,9.3-3.3,14-5.4l3.9-7.2C105.1,195,102.2,194,99.2,193.1L99.2,193.1z"/>
	<path class="st0" d="M293.2,107.3c-0.1,0-0.1,0-0.2,0c-0.3-0.1-0.4-0.4-0.3-0.6c12.7-38.3,13.4-61.5,13.4-61.8
		c0-0.3,0.2-0.5,0.5-0.5s0.5,0.2,0.5,0.5c0,0.2-0.7,23.6-13.5,62C293.6,107.1,293.4,107.3,293.2,107.3z"/>
	<path class="st4" d="M275.2,85.5c-0.3,0-0.5-0.2-0.5-0.5v-3.6c0-0.3,0.2-0.5,0.5-0.5s0.5,0.2,0.5,0.5V85
		C275.7,85.3,275.5,85.5,275.2,85.5z"/>
	<path class="st4" d="M275.2,93c-0.3,0-0.5-0.2-0.5-0.5v-3.6c0-0.3,0.2-0.5,0.5-0.5s0.5,0.2,0.5,0.5v3.6
		C275.8,92.7,275.5,93,275.2,93C275.3,93,275.2,93,275.2,93z"/>
	<path class="st4" d="M280.8,87.4h-3.6c-0.3,0-0.5-0.2-0.5-0.5s0.2-0.5,0.5-0.5h3.6c0.3,0,0.5,0.2,0.5,0.5S281,87.4,280.8,87.4z"/>
	<path class="st4" d="M273.3,87.4h-3.6c-0.3,0-0.5-0.2-0.5-0.5s0.2-0.5,0.5-0.5h3.6c0.3,0,0.5,0.2,0.5,0.5S273.5,87.4,273.3,87.4
		L273.3,87.4z"/>
	<path class="st4" d="M319.8,106.5c-0.3,0-0.5-0.2-0.5-0.5v-3.6c0-0.3,0.2-0.5,0.5-0.5s0.5,0.2,0.5,0.5v3.5
		C320.3,106.3,320.1,106.5,319.8,106.5C319.8,106.5,319.8,106.5,319.8,106.5z"/>
	<path class="st4" d="M319.8,114c-0.3,0-0.5-0.2-0.5-0.5v-3.6c0-0.3,0.2-0.5,0.5-0.5c0.3,0,0.5,0.2,0.5,0.5v3.6
		C320.3,113.8,320.1,114,319.8,114z"/>
	<path class="st4" d="M325.3,108.5h-3.6c-0.3,0-0.5-0.2-0.5-0.5s0.2-0.5,0.5-0.5h3.6c0.3,0,0.5,0.2,0.5,0.5S325.6,108.5,325.3,108.5
		z"/>
	<path class="st4" d="M317.9,108.5h-3.6c-0.3,0-0.5-0.2-0.5-0.5c0-0.3,0.2-0.5,0.5-0.5h3.6c0.3,0,0.5,0.2,0.5,0.5
		C318.4,108.2,318.1,108.5,317.9,108.5z"/>
	<path class="st4" d="M275.2,163.1c-0.3,0-0.5-0.2-0.5-0.5V159c0-0.3,0.2-0.5,0.5-0.5s0.5,0.2,0.5,0.5v3.6
		C275.7,162.8,275.5,163.1,275.2,163.1C275.2,163.1,275.2,163.1,275.2,163.1z"/>
	<path class="st4" d="M275.2,170.6c-0.3,0-0.5-0.2-0.5-0.5v-3.6c0-0.3,0.2-0.5,0.5-0.5c0.3,0,0.5,0.2,0.5,0.5v3.6
		C275.7,170.3,275.5,170.6,275.2,170.6z"/>
	<path class="st4" d="M280.8,165h-3.6c-0.3,0-0.5-0.2-0.5-0.5s0.2-0.5,0.5-0.5h3.6c0.3,0,0.5,0.2,0.5,0.5S281,165,280.8,165z"/>
	<path class="st4" d="M273.3,165h-3.6c-0.3,0-0.5-0.2-0.5-0.5c0-0.3,0.2-0.5,0.5-0.5h3.6c0.3,0,0.5,0.2,0.5,0.5
		C273.8,164.8,273.5,165,273.3,165L273.3,165z"/>
</g>
<g>
	<g>
		<path class="st5" d="M300.5,130c1.6-0.1,3-0.7,4.3-1.7c1.2-1,2.1-2.2,2.7-3.7c0.5-1.4,0.6-2.8,0.3-4.1c-0.3-1.3-0.8-2.5-1.5-3.5
			c-0.8-1-1.7-1.8-2.9-2.5c-0.2-0.1-0.4-0.2-0.6-0.3l0.7-2c0.3-0.7-0.1-1.5-0.9-1.8l-2.6-0.9c-0.7-0.3-1.5,0.1-1.8,0.9l-0.6,1.8
			l-2.8-1l0.6-1.8c0.3-0.7-0.1-1.5-0.9-1.8l-2.6-0.9c-0.7-0.3-1.5,0.1-1.8,0.9l-0.6,1.8l-4.5-1.6l-11.2,32.1l4.5,1.6l-0.5,1.5
			c-0.3,0.7,0.1,1.5,0.9,1.8l2.6,0.9c0.7,0.3,1.5-0.1,1.8-0.9l0.5-1.5l1.1,0.4c0.6,0.2,1.1,0.4,1.6,0.6l-0.5,1.6
			c-0.3,0.7,0.1,1.5,0.9,1.8l2.6,0.9c0.7,0.3,1.5-0.1,1.8-0.9l0.6-1.7c0.4,0.1,0.7,0.2,0.9,0.2c1.8,0.4,3.4,0.4,4.9,0
			c1.5-0.4,2.8-1.2,3.9-2.3c1.2-1.1,2-2.4,2.5-3.9c0.6-1.9,0.7-3.7,0.1-5.4C303.5,132.7,302.3,131.2,300.5,130z M293.3,116.6
			c3.1,1.1,4.9,1.7,5.5,2c1,0.5,1.7,1.2,2,2s0.3,1.7,0,2.7c-0.4,1-1,1.8-1.8,2.2c-0.9,0.4-1.9,0.5-3,0.2c-0.6-0.1-2.2-0.7-4.7-1.5
			l-4.2-1.5l2.6-7.4L293.3,116.6z M295.5,139.6c-0.8,0.5-1.8,0.6-2.8,0.5c-0.7-0.1-2.2-0.5-4.5-1.4l-6-2.1l3-8.6l5.2,1.8
			c2.9,1,4.8,1.9,5.6,2.5c0.8,0.6,1.3,1.3,1.5,2.2c0.2,0.8,0.2,1.7-0.2,2.7C296.9,138.4,296.3,139.2,295.5,139.6z"/>
	</g>
</g>
</svg>
