<?xml version="1.0" encoding="utf-8"?>
<!-- Generator: Adobe Illustrator 24.0.1, SVG Export Plug-In . SVG Version: 6.00 Build 0)  -->
<svg version="1.1" id="Layer_1" xmlns="http://www.w3.org/2000/svg" xmlns:xlink="http://www.w3.org/1999/xlink" x="0px" y="0px"
	 viewBox="0 0 400 300" style="enable-background:new 0 0 400 300;" xml:space="preserve">
<style type="text/css">
	.st0{fill:#FFFFFF;}
	.st1{fill:#231F20;}
	.st2{fill:#00E4C1;}
	.st3{fill:#D1D3D4;}
	.st4{fill:#2A30FE;}
</style>
<path class="st0" d="M145.8,59.9h79.8l0,0v49.5c0,2.1-1.7,3.8-3.8,3.8l0,0h-72.2c-2.1,0-3.8-1.7-3.8-3.8v0V59.9L145.8,59.9z"/>
<path class="st1" d="M221.8,113.7h-72.2c-2.3,0-4.2-1.9-4.2-4.3V59.9c0-0.3,0.2-0.5,0.4-0.5h79.8c0.3,0,0.5,0.2,0.5,0.5c0,0,0,0,0,0
	v49.5C226,111.8,224.1,113.7,221.8,113.7C221.8,113.7,221.8,113.7,221.8,113.7z M146.2,60.4v49c0,1.8,1.5,3.3,3.3,3.3h72.2
	c1.9,0,3.4-1.5,3.4-3.3c0,0,0,0,0,0v-49H146.2z"/>
<path class="st0" d="M149.6,52.9h72.2c2.1,0,3.8,1.7,3.8,3.8c0,0,0,0,0,0v3.3l0,0h-79.8l0,0v-3.3C145.8,54.6,147.5,52.9,149.6,52.9
	L149.6,52.9z"/>
<path class="st1" d="M225.6,60.4h-79.8c-0.3,0-0.5-0.2-0.4-0.5v-3.3c0-2.3,1.9-4.2,4.2-4.2h72.2c2.3,0,4.2,1.9,4.2,4.2v3.3
	C226,60.2,225.8,60.4,225.6,60.4z M146.2,59.5h78.9v-2.8c0-1.8-1.5-3.3-3.4-3.3h-72.2c-1.8,0-3.3,1.5-3.3,3.3V59.5z"/>
<circle class="st2" cx="165.4" cy="74.6" r="5.1"/>
<path class="st2" d="M156.1,90.2c0.2-5.2,4.5-9.2,9.7-9c4.9,0.2,8.9,4.1,9,9H156.1z"/>
<circle class="st2" cx="205.9" cy="74.6" r="5.1"/>
<path class="st2" d="M196.6,90.2c0.2-5.2,4.5-9.2,9.7-9c4.9,0.2,8.9,4.1,9,9H196.6z"/>
<path class="st1" d="M194.4,75.1h-12c-0.3,0-0.5-0.2-0.5-0.5s0.2-0.5,0.5-0.5c0,0,0,0,0,0h10.9l-2.4-2.5c-0.2-0.2-0.2-0.5,0-0.6
	c0,0,0,0,0,0c0.2-0.2,0.5-0.2,0.6,0l3.1,3.3c0.1,0.1,0.2,0.3,0.1,0.5C194.8,74.9,194.6,75.1,194.4,75.1z"/>
<path class="st1" d="M191.4,78c-0.1,0-0.2-0.1-0.3-0.1c-0.2-0.2-0.2-0.5,0-0.7l3-2.9c0.2-0.2,0.5-0.2,0.6,0c0.2,0.2,0.2,0.5,0,0.6
	l-3,2.9C191.7,78,191.6,78,191.4,78z"/>
<path class="st1" d="M188.8,78.9h-12c-0.2,0-0.3-0.1-0.4-0.3c-0.1-0.2,0-0.4,0.1-0.5l3.1-3.3c0.2-0.2,0.5-0.2,0.6,0
	c0.2,0.2,0.2,0.5,0,0.6c0,0,0,0,0,0l-2.4,2.5h10.9c0.3,0,0.5,0.2,0.5,0.5C189.2,78.7,189,78.9,188.8,78.9L188.8,78.9z"/>
<path class="st1" d="M179.8,81.8c-0.1,0-0.2,0-0.3-0.1l-3-2.9c-0.2-0.2-0.2-0.5,0-0.7c0.2-0.2,0.5-0.2,0.6,0l3,2.9
	c0.2,0.2,0.2,0.5,0,0.6c0,0,0,0,0,0C180,81.8,179.9,81.8,179.8,81.8z"/>
<path class="st3" d="M209.5,96.2h-47.6c-0.3,0-0.5-0.2-0.5-0.5c0-0.3,0.2-0.5,0.5-0.5h47.6c0.3,0,0.5,0.2,0.5,0.5
	C210,96,209.7,96.2,209.5,96.2z"/>
<path class="st3" d="M209.5,99.6h-47.6c-0.3,0-0.5-0.2-0.5-0.5c0-0.3,0.2-0.5,0.5-0.5h47.6c0.3,0,0.5,0.2,0.5,0.5
	C210,99.4,209.7,99.6,209.5,99.6z"/>
<path class="st3" d="M204.6,103h-42.7c-0.3,0-0.5-0.2-0.5-0.5c0-0.3,0.2-0.5,0.5-0.5h42.7c0.3,0,0.5,0.2,0.5,0.5
	C205.1,102.8,204.8,103,204.6,103z"/>
<circle class="st2" cx="151.4" cy="56.4" r="1.2"/>
<circle class="st3" cx="155.7" cy="56.4" r="1.2"/>
<circle class="st3" cx="160" cy="56.4" r="1.2"/>
<path class="st0" d="M237.9,55.4h102.9l0,0v121.5c0,2.8-2.2,5-5,5h-93c-2.8,0-5-2.2-5-5L237.9,55.4L237.9,55.4z"/>
<path class="st1" d="M335.9,182.4h-93c-3,0-5.5-2.5-5.5-5.5V55.4c0-0.3,0.2-0.5,0.5-0.5h103c0.3,0,0.5,0.2,0.5,0.5v121.5
	C341.3,179.9,338.9,182.3,335.9,182.4z M238.4,55.9v121c0,2.5,2,4.5,4.5,4.5h93c2.5,0,4.5-2,4.5-4.5v-121L238.4,55.9z"/>
<path class="st1" d="M319.9,171.8h-61c-2.7,0-4.8-2.2-4.9-4.8v-2.9c0-2.7,2.2-4.9,4.9-4.9h61c2.7,0,4.9,2.2,4.9,4.9v0v2.9
	C324.8,169.7,322.6,171.9,319.9,171.8z M258.9,160.2c-2.1,0-3.9,1.8-3.9,3.9v2.9c0,2.1,1.7,3.9,3.9,3.9h61c2.1,0,3.9-1.7,3.9-3.9
	v-2.9c0-2.1-1.7-3.9-3.9-3.9l0,0L258.9,160.2z"/>
<rect x="252.6" y="88.7" class="st2" width="8.2" height="58.8"/>
<rect x="267.7" y="102.4" class="st2" width="8.2" height="45"/>
<rect x="282.7" y="93.5" class="st2" width="8.2" height="54"/>
<rect x="297.8" y="109.7" class="st2" width="8.2" height="37.7"/>
<rect x="312.9" y="93.5" class="st2" width="8.2" height="54"/>
<path class="st1" d="M320.8,66H307c-0.3,0-0.5-0.2-0.5-0.5s0.2-0.5,0.5-0.5h13.8c0.3,0,0.5,0.2,0.5,0.5
	C321.3,65.8,321.1,66,320.8,66z"/>
<path class="st1" d="M316,71.2h-9c-0.3,0-0.5-0.2-0.5-0.5s0.2-0.5,0.5-0.5h9c0.3,0,0.5,0.2,0.5,0.5S316.3,71.2,316,71.2z"/>
<path class="st3" d="M302.9,94.1c-4.4,0-8.2-4.9-11.2-8.8c-2-2.5-3.9-5-5.1-5l0,0c-1.4,0-3.4,1.2-5.5,2.4c-2.8,1.6-6,3.5-9,3.3
	c-5.6-0.3-16.1-12.7-16.6-13.2c-0.2-0.2-0.2-0.5,0-0.7c0,0,0,0,0,0c0.2-0.2,0.5-0.2,0.7,0c0.1,0.1,10.7,12.6,15.9,12.9
	c2.7,0.2,5.8-1.6,8.5-3.2c2.2-1.3,4.2-2.4,5.9-2.5s3.6,2.3,5.9,5.3c3,3.8,6.7,8.6,10.7,8.4c3.5-0.2,5.1-3.2,6.9-6.4s3.4-6.3,6.9-6.9
	c0.3,0,0.5,0.2,0.5,0.4c0,0.2-0.1,0.4-0.3,0.5c-3.1,0.6-4.6,3.4-6.3,6.4c-1.8,3.3-3.7,6.7-7.7,6.9L302.9,94.1z"/>
<path class="st3" d="M328,147.9h-82c-0.3,0-0.5-0.2-0.5-0.5c0,0,0,0,0,0c0-0.3,0.2-0.5,0.5-0.5h82c0.3,0,0.5,0.2,0.5,0.5l0,0
	C328.5,147.7,328.3,147.9,328,147.9C328,147.9,328,147.9,328,147.9z"/>
<path class="st3" d="M256,74.3c-1,0-1.8-0.8-1.8-1.8c0-1,0.8-1.8,1.8-1.8s1.8,0.8,1.8,1.8v0C257.8,73.5,257,74.3,256,74.3z
	 M256,71.6c-0.5,0-0.9,0.4-0.9,0.9c0,0.5,0.4,0.9,0.9,0.9c0.5,0,0.9-0.4,0.9-0.9c0,0,0,0,0,0C256.9,72,256.5,71.6,256,71.6
	C256,71.6,256,71.6,256,71.6z"/>
<path class="st3" d="M317,82.1c-1,0-1.8-0.8-1.8-1.8c0-1,0.8-1.8,1.8-1.8c1,0,1.8,0.8,1.8,1.8C318.8,81.3,318,82.1,317,82.1z
	 M317,79.4c-0.5,0-0.9,0.4-0.9,0.9s0.4,0.9,0.9,0.9c0.5,0,0.9-0.4,0.9-0.9S317.5,79.4,317,79.4C317,79.4,317,79.4,317,79.4z"/>
<path class="st0" d="M242.9,45h92.9c2.8,0,5,2.2,5,5v5.3l0,0H237.9l0,0V50C237.9,47.2,240.1,45,242.9,45z"/>
<path class="st1" d="M340.9,55.9H237.9c-0.3,0-0.5-0.2-0.5-0.5V50c0-3,2.5-5.5,5.5-5.5h93c3,0,5.5,2.5,5.5,5.5v5.3
	C341.4,55.6,341.2,55.9,340.9,55.9C340.9,55.9,340.9,55.9,340.9,55.9z M238.4,54.9h101.9V50c0-2.5-2-4.5-4.5-4.5h-93
	c-2.5,0-4.5,2-4.5,4.5L238.4,54.9z"/>
<path class="st0" d="M62.8,106.8h68.9c2,0,3.7,1.6,3.7,3.7v86.3c0,2-1.6,3.7-3.7,3.7H62.8c-2,0-3.7-1.6-3.7-3.7v-86.3
	C59.2,108.5,60.8,106.8,62.8,106.8z"/>
<path class="st1" d="M131.7,201H62.8c-2.3,0-4.2-1.9-4.2-4.2v-86.3c0-2.3,1.9-4.2,4.2-4.2h68.9c2.3,0,4.2,1.9,4.2,4.2v86.3
	C135.9,199.1,134,201,131.7,201C131.7,201,131.7,201,131.7,201z M62.8,107.3c-1.7,0-3.2,1.4-3.2,3.2v86.3c0,1.8,1.4,3.2,3.1,3.2
	c0,0,0,0,0,0h68.9c1.8,0,3.2-1.4,3.2-3.2v-86.3c0-1.7-1.4-3.2-3.2-3.2H62.8z"/>
<path class="st3" d="M116.2,180.7H75.1c-0.3,0-0.5-0.2-0.5-0.5c0-0.3,0.2-0.5,0.5-0.5h41.1c0.3,0,0.5,0.2,0.5,0.5
	S116.4,180.7,116.2,180.7z"/>
<path class="st3" d="M96.3,187.4H75.1c-0.3,0-0.5-0.2-0.5-0.5c0-0.3,0.2-0.5,0.5-0.5h21.2c0.3,0,0.5,0.2,0.5,0.5
	C96.8,187.2,96.6,187.4,96.3,187.4z"/>
<path class="st2" d="M77.6,127.9c6,6,12,12,17.9,17.9c0.2,0.2,0.4,0.3,0.7,0.3h27.5c-0.5,14.6-12.8,26.1-27.4,25.5
	c-14.6-0.5-26.1-12.8-25.5-27.4c0.2-6.1,2.5-12,6.6-16.6L77.6,127.9z"/>
<path class="st3" d="M98.2,118.7v25.6h0.3l24.8-0.1c0.6,0,0.6,0,0.5-0.6c-0.6-9.9-6.7-18.7-15.8-22.7c-2.7-1.2-5.6-1.9-8.6-2.2
	L98.2,118.7z"/>
<path class="st3" d="M96.3,143.9v-25.2c-3,0.2-5.9,0.8-8.7,1.8c-3.3,1.3-6.4,3.3-8.9,5.8L96.3,143.9z"/>
<path class="st0" d="M175.7,130.3c-5.9-1.8-9-8.7-10.6-14.1c-1.8-6.2-3.8-11.3-1.3-17.8c0.6-1.5,1.5-3,3-3.5
	c0.4-0.1,0.7-0.2,1.1-0.4c0.3-0.3,0.5-0.6,0.6-0.9c3.6-8.4,13.7-8.7,21.3-7.5c4.4,0.7,10.1,2.7,11.5,7.2c2.5,8.3,0.4,17.4-4.2,24.6
	C192.7,124.7,184.5,133,175.7,130.3z"/>
<path class="st1" d="M179.1,131.3c-1.2,0-2.4-0.2-3.5-0.5l0,0c-6.1-1.9-9.3-8.9-10.9-14.5c-0.2-0.7-0.4-1.4-0.6-2.1
	c-1.6-5.4-3-10.1-0.7-16c0.8-2.1,1.9-3.4,3.4-3.8l0.3-0.1c0.5,0,0.9-0.4,1-0.9c3.7-8.8,14-9.1,21.9-7.8c3,0.5,10.3,2.2,11.9,7.6
	c2.4,7.9,0.8,17-4.3,25C193.1,124.9,186.3,131.3,179.1,131.3z M183.5,86.1c-6,0-12,1.7-14.6,7.7c-0.1,0.4-0.4,0.8-0.7,1.1
	c-0.3,0.2-0.6,0.3-1,0.4l-0.2,0.1c-1.1,0.3-2,1.4-2.7,3.2c-2.2,5.6-0.8,10.1,0.7,15.4c0.2,0.7,0.4,1.4,0.6,2.1
	c1.5,5.3,4.5,12.1,10.2,13.8l0,0c8,2.4,16-4.7,20.8-12.2c4.9-7.7,6.5-16.5,4.2-24.2c-1.5-4.9-8.2-6.4-11.1-6.9
	C187.7,86.2,185.6,86.1,183.5,86.1L183.5,86.1z"/>
<path class="st0" d="M202.5,113.4c0,0,6.3,7.9,5.3,9.7s-4.9,1-4.9,1"/>
<path class="st1" d="M204.7,124.9c-0.7,0-1.3-0.1-2-0.2c-0.3-0.1-0.5-0.3-0.4-0.6c0.1-0.3,0.3-0.5,0.6-0.4c1,0.2,3.7,0.5,4.4-0.8
	c0.5-1-2.3-5.5-5.3-9.2c-0.2-0.2-0.1-0.5,0.1-0.7c0.2-0.2,0.5-0.1,0.7,0.1c1.5,1.9,6.4,8.3,5.4,10.3
	C207.6,124.6,206,124.9,204.7,124.9z"/>
<path class="st0" d="M200.3,102.4c3.8,2.6,3.3,8.8,3.7,12.7c0.5,5.6,0.8,11.2,1,16.8c0.1,3.6-9,4.5-10.7,3.6l2.7,13.9l-19.9-5.6
	l-0.9-16.2c0,0,6-0.5,9-8s1.8-18.6,1.8-18.6S196.6,99.9,200.3,102.4z"/>
<path class="st1" d="M196.9,149.9h-0.1l-19.9-5.6c-0.2-0.1-0.4-0.2-0.4-0.4l-0.9-16.2c0-0.3,0.2-0.5,0.4-0.5c0.2,0,5.8-0.6,8.6-7.7
	c2.9-7.3,1.8-18.3,1.7-18.4c0-0.1,0-0.3,0.1-0.4c0.1-0.1,0.2-0.2,0.3-0.2c0.4,0,9.9-0.9,13.7,1.6l0,0c3.4,2.3,3.6,7.1,3.8,11
	c0,0.8,0.1,1.5,0.1,2.2c0.5,5.6,0.8,11.2,1,16.8c0,1.2-0.7,2.2-1.7,2.7c-2.3,1.5-6.7,1.9-8.9,1.6l2.6,13c0,0.2,0,0.3-0.1,0.5
	C197.1,149.8,197,149.9,196.9,149.9z M177.4,143.3l18.8,5.3l-2.5-13.1c0-0.2,0-0.4,0.2-0.5c0.2-0.1,0.4-0.1,0.5,0
	c1.1,0.6,6.2,0.3,8.8-1.3c0.9-0.5,1.3-1.1,1.2-1.8c-0.2-5.6-0.5-11.2-1-16.8c-0.1-0.7-0.1-1.4-0.1-2.2c-0.2-3.6-0.4-8.2-3.3-10.2
	l0,0c-3-2.1-10.6-1.7-12.6-1.5c0.2,2.3,0.8,11.6-1.9,18.3s-7.4,8-8.9,8.3L177.4,143.3z"/>
<path class="st0" d="M204.4,127.8c0,0-5.5,0-6.8-7.4"/>
<path class="st1" d="M204.4,128.3c-0.1,0-5.9-0.1-7.3-7.8c0-0.3,0.1-0.5,0.4-0.6c0.3,0,0.5,0.1,0.6,0.4c1.2,6.9,6.1,7,6.3,7
	c0.3,0,0.5,0.2,0.5,0.5C204.9,128.1,204.7,128.3,204.4,128.3z"/>
<path class="st0" d="M192.1,118c-0.3-1.4-0.9-2.7-1.9-3.7c-0.6-0.9-1.4-1.7-2.3-2.3c-0.9-0.7-2-0.9-3.1-0.7c-0.9,0.3-1.6,1-2,1.9
	c-0.4,0.9-0.5,1.9-0.4,2.8c0.2,4.3,2.7,8.2,6.5,10.1l-0.3-0.3"/>
<path class="st1" d="M188.8,126.7c-0.1,0-0.2,0-0.2-0.1c-4-2.1-6.5-6.1-6.8-10.6c-0.1-1,0.1-2,0.5-3c0.4-1,1.3-1.8,2.4-2.2
	c1.2-0.3,2.5,0,3.5,0.7c0.9,0.7,1.7,1.5,2.4,2.4c1,1.1,1.7,2.5,2,3.9c0,0.3-0.2,0.5-0.4,0.6c-0.3,0-0.5-0.2-0.6-0.4
	c-0.3-1.3-0.9-2.5-1.8-3.4c-0.6-0.8-1.3-1.6-2.1-2.2c-0.8-0.6-1.7-0.8-2.7-0.6c-0.8,0.3-1.4,0.9-1.7,1.7c-0.3,0.8-0.5,1.7-0.4,2.6
	c0.2,3.8,2.3,7.3,5.6,9.3c0.1,0,0.3,0,0.4,0.1l0.3,0.3c0.2,0.2,0.2,0.5,0.1,0.7C189.1,126.7,189,126.7,188.8,126.7L188.8,126.7z"/>
<path class="st1" d="M194.2,135.5c0,0-4.9-1-7.4-4.1c0,0,0.9,7.4,8.4,9.2L194.2,135.5z"/>
<path class="st1" d="M195.2,141.1h-0.1c-7.8-1.9-8.8-9.5-8.8-9.6c0-0.2,0.1-0.4,0.3-0.5c0.2-0.1,0.4,0,0.6,0.1
	c2.4,2.9,7.1,3.9,7.1,3.9c0.2,0,0.4,0.2,0.4,0.4l1,5.1c0.1,0.3-0.1,0.5-0.4,0.6C195.3,141.1,195.2,141.1,195.2,141.1L195.2,141.1z
	 M187.7,133c1,3.3,3.6,5.9,6.9,6.9l-0.8-4C191.6,135.4,189.5,134.4,187.7,133L187.7,133z"/>
<ellipse transform="matrix(7.706703e-02 -0.997 0.997 7.706703e-02 74.0615 299.7436)" class="st1" cx="198.9" cy="109.9" rx="2" ry="0.8"/>
<path class="st0" d="M146.9,176.8l-10.3,18l-26.7-27.4c0,0,2.2-11.6-0.7-10.7c-1.8,0.6-3.4,1.8-4.5,3.4c0,0-2.4-16-8.6-10.7
	s-3.4,14.5,1.4,23.4c3.5,6.6,34.7,54.7,43.3,52.7s29.2-45.6,29.2-45.6L146.9,176.8z"/>
<path class="st1" d="M140.3,226c-9.8,0-40.2-47.2-43.3-53c-3.9-7.4-8.4-18-1.2-24c1.3-1.1,2.6-1.5,3.8-1c3.3,1.2,4.9,8.2,5.4,11
	c1.1-1.2,2.5-2.2,4.1-2.7c0.4-0.2,0.9-0.1,1.3,0.2c1.7,1.5,0.5,8.8,0.1,10.8l26.1,26.7l9.9-17.4c0.1-0.2,0.3-0.3,0.5-0.2l23,3
	c0.2,0,0.3,0.1,0.4,0.3c0.1,0.1,0.1,0.3,0,0.4c-0.9,1.8-20.8,43.9-29.5,45.9C140.6,225.9,140.4,226,140.3,226z M98.5,148.8
	c-0.8,0.1-1.5,0.4-2.1,1c-5,4.2-4.5,11.5,1.5,22.8c3.8,7.2,34.8,54.2,42.8,52.5c7.8-1.7,26-39.4,28.6-44.7l-22-2.9l-10.1,17.7
	c-0.1,0.1-0.2,0.2-0.4,0.2c-0.2,0-0.3,0-0.4-0.1l-26.7-27.4c-0.1-0.1-0.2-0.3-0.1-0.4c0.7-3.7,1.2-9.3,0.2-10.1c0,0-0.1-0.1-0.3,0
	c-1.7,0.6-3.2,1.7-4.3,3.2c-0.1,0.2-0.3,0.3-0.5,0.2c-0.2,0-0.3-0.2-0.4-0.4c-0.4-2.8-2.1-10.2-5-11.3
	C99,148.9,98.7,148.8,98.5,148.8z"/>
<path class="st0" d="M225.1,168.8c0,0,20.7-5.4,28.4-9.9c8.5-5,24.5-36.6,29.7-44.4c2.8-4.3,4.9-9.1,6.2-14.1c0.6-2.2,0.9-3.9-0.2-6
	c-0.2-0.4-3.9-4.5-4.1-4c1-2.8,2-5.5,3.1-8.3c0.3-0.8,0.5-1.7-0.1-2.3c-0.5-0.4-1.3-0.4-1.8,0c-0.5,0.4-0.9,0.9-1.2,1.5L276.5,96
	c0.1-1.8-0.3-3.6-1.1-5.3c-0.1-0.3-0.3-0.6-0.6-0.8c-0.9-0.5-1.8,0.8-2.1,1.8c-1.5,5.3-0.4,11.7-3.7,16.4c-2.5,3.6-24.5,30-24.5,30
	l-19.4,5"/>
<path class="st2" d="M225.1,169.3c-0.3,0-0.5-0.2-0.6-0.4s0.2-0.5,0.4-0.6c0.2-0.1,20.7-5.4,28.3-9.9c6.2-3.6,16.6-21.9,23.5-34.1
	c2.5-4.4,4.6-8.2,6-10.2c2.8-4.3,4.9-9,6.1-14c0.6-2.1,0.9-3.6-0.2-5.7c-1.1-1.3-2.3-2.6-3.6-3.7c-0.1,0-0.1,0-0.2,0
	c-0.3-0.1-0.4-0.4-0.3-0.6l0,0c0.6-1.8,1.3-3.6,1.9-5.3c0.4-1,0.8-2,1.1-3s0.3-1.5,0-1.8c-0.4-0.3-0.8-0.3-1.2,0
	c-0.4,0.4-0.8,0.8-1.1,1.4l-8.5,14.8c-0.1,0.2-0.3,0.3-0.6,0.2c-0.2-0.1-0.3-0.2-0.3-0.4c0.1-1.7-0.3-3.4-1-5
	c-0.1-0.2-0.2-0.4-0.4-0.6c-0.1-0.1-0.2-0.1-0.4,0c-0.5,0.4-0.9,0.9-1,1.5c-0.5,2-0.8,4.1-1,6.2c-0.3,3.6-0.7,7.3-2.8,10.4
	c-2.5,3.6-23.6,28.9-24.5,30c-0.1,0.1-0.2,0.1-0.3,0.2l-19.4,5c-0.3,0.1-0.5-0.1-0.6-0.4c-0.1-0.3,0.1-0.5,0.4-0.6c0,0,0,0,0,0
	l19.3-5c1.6-2,22-26.4,24.4-29.8c2-2.8,2.3-6.4,2.6-9.9c0.1-2.2,0.5-4.3,1-6.4c0.2-0.9,0.8-1.7,1.6-2.1c0.4-0.2,0.9-0.1,1.2,0.1
	c0.4,0.2,0.7,0.6,0.8,1c0.6,1.2,0.9,2.4,1,3.7l7.6-13.2c0.3-0.7,0.8-1.2,1.4-1.7c0.7-0.5,1.7-0.5,2.4,0.1c0.6,0.6,0.7,1.6,0.2,2.8
	c-0.4,1-0.8,2-1.1,3c-0.6,1.6-1.2,3.2-1.8,4.8c1.4,1.2,2.7,2.5,3.9,4c1.2,2.4,0.9,4.1,0.3,6.4c-1.3,5.1-3.4,9.9-6.3,14.2
	c-1.4,2.1-3.5,5.8-6,10.2c-7.4,12.9-17.5,30.7-23.9,34.4c-7.7,4.5-27.7,9.7-28.6,10L225.1,169.3z"/>
<path class="st4" d="M230,255l-6.5-29.4L159,242.9c0,0,0.1,4.8,0.3,12.1L230,255z"/>
<path class="st2" d="M243,136c0,0-73.4-1.6-82.7,11.6c-7.3,10.9-13.3,22.6-18.1,34.8l13.2,12.3c-0.1,17.5,0.8,34.9,2.7,52.2
	c22.8,4,69.9-14.2,69.5-14.4l-6-61l28.1-8.7L243,136z"/>
<path class="st1" d="M154.5,190.2L154.5,190.2c-0.3,0-0.5-0.2-0.5-0.5c0,0,0,0,0,0c0-1.1,0.9-27.1,4.4-36.2c0.1-0.3,0.4-0.4,0.6-0.3
	c0,0,0,0,0,0c0.2,0.1,0.4,0.4,0.3,0.6c0,0,0,0,0,0c-3.5,8.9-4.4,35.6-4.4,35.9C155,190,154.8,190.2,154.5,190.2z"/>
<path class="st1" d="M211.4,174.8c-0.2,0-0.4-0.1-0.5-0.4c-0.1-0.3,0.1-0.5,0.4-0.6l20.8-5.9c0.3-0.1,0.6,0.1,0.6,0.4
	s-0.1,0.6-0.4,0.6l0,0l-20.8,5.9C211.5,174.8,211.5,174.8,211.4,174.8z"/>
<path class="st0" d="M292.5,244.8h-36.3c-2.1,0-3.8-1.7-3.8-3.8c0,0,0,0,0,0v-40.1c0-2.1,1.7-3.8,3.8-3.8l0,0h32l8.1,7.9v36
	C296.4,243.1,294.7,244.8,292.5,244.8C292.6,244.8,292.6,244.8,292.5,244.8z"/>
<path class="st1" d="M292.5,245.3h-36.3c-2.4,0-4.3-1.9-4.3-4.3l0,0v-40.1c0-2.4,1.9-4.3,4.3-4.3h32c0.1,0,0.3,0,0.4,0.1l8.1,7.9
	c0.1,0.1,0.1,0.2,0.1,0.4v36C296.9,243.4,294.9,245.3,292.5,245.3z M256.3,197.6c-1.8,0-3.3,1.5-3.3,3.3V241c0,1.8,1.5,3.3,3.3,3.3
	l0,0h36.3c1.8,0,3.3-1.5,3.3-3.3v-35.8l-7.8-7.6H256.3z"/>
<circle class="st2" cx="244.1" cy="50.3" r="1.7"/>
<circle class="st3" cx="250" cy="50.3" r="1.7"/>
<circle class="st3" cx="255.8" cy="50.3" r="1.7"/>
<path class="st3" d="M288,76.7c-0.1,0-0.2,0-0.3-0.1c-0.2-0.2-0.2-0.5-0.1-0.7l4.3-5.1c0.1-0.1,0.2-0.2,0.4-0.2h10.8
	c0.3,0,0.5,0.2,0.5,0.5s-0.2,0.5-0.5,0.5h-10.6l-4.2,5C288.2,76.7,288.1,76.7,288,76.7z"/>
<polygon class="st2" points="288.3,197.1 288.3,205.2 296.4,205 "/>
<path class="st1" d="M288.3,205.7c-0.1,0-0.2-0.1-0.3-0.1c-0.1-0.1-0.2-0.2-0.2-0.4v-8.1c0-0.2,0.1-0.4,0.3-0.5
	c0.2-0.1,0.4,0,0.5,0.1l8.1,7.9c0.2,0.2,0.2,0.5,0,0.7c-0.1,0.1-0.2,0.1-0.3,0.1L288.3,205.7L288.3,205.7z M288.8,198.3v6.4l6.4-0.2
	L288.8,198.3z"/>
<path class="st2" d="M103.1,218.2h10.3c1.5,0,2.7,1.2,2.7,2.7v10.3c0,1.5-1.2,2.7-2.7,2.7h-10.3c-1.5,0-2.7-1.2-2.7-2.7v-10.3
	C100.4,219.4,101.6,218.2,103.1,218.2z"/>
<path class="st0" d="M100.1,213.2h10.6c1.4,0,2.6,1.1,2.6,2.6v10.6c0,1.4-1.1,2.6-2.6,2.6h-10.6c-1.4,0-2.6-1.1-2.6-2.6v-10.6
	C97.5,214.3,98.7,213.2,100.1,213.2z"/>
<path class="st1" d="M110.7,229.4h-10.6c-1.7,0-3.1-1.3-3.1-3c0,0,0,0,0,0v-10.6c0-1.7,1.4-3.1,3.1-3.1h10.6c1.7,0,3.1,1.4,3.1,3.1
	v10.6C113.7,228,112.4,229.4,110.7,229.4z M100.1,213.7c-1.1,0-2.1,0.9-2.1,2c0,0,0,0,0,0v10.6c0,1.1,0.9,2.1,2.1,2.1h10.6
	c1.1,0,2.1-0.9,2.1-2.1v-10.6c0-1.1-0.9-2.1-2.1-2.1H100.1z"/>
<path class="st2" d="M271.9,80.3v-0.9c-0.3-0.1-0.6-0.2-0.9-0.3c-0.6-0.2-1.1-0.6-1.4-1.1c-0.3-0.4-0.4-1-0.4-1.5h1.7
	c0,0.6,0.5,1.1,1.1,1.3v-2.3c-0.3-0.1-0.7-0.2-1-0.3c-0.4-0.1-0.7-0.3-1-0.6c-0.3-0.3-0.5-0.7-0.6-1.1c-0.1-0.5-0.1-1,0.1-1.5
	c0.3-0.7,0.8-1.2,1.5-1.5c0.3-0.1,0.6-0.2,0.9-0.2l0.1,0v-1.2h1.6v0.1c0,0.3,0,0.7,0,1c0,0.1,0,0.1,0.1,0.1c0.5,0.1,1.1,0.3,1.5,0.7
	c0.5,0.4,0.8,0.9,0.9,1.5c0,0.2,0,0.3,0.1,0.5h-1.8c0-0.5-0.3-0.9-0.7-1.1v2.2l0.2,0c0.5,0.1,0.9,0.2,1.4,0.4
	c0.7,0.3,1.1,0.9,1.2,1.7c0.1,0.7-0.1,1.4-0.5,1.9c-0.3,0.4-0.8,0.8-1.3,1c-0.3,0.1-0.7,0.2-1,0.3v0.9L271.9,80.3z M273.5,75.9v2
	c0.3,0,0.5-0.1,0.7-0.3c0.4-0.3,0.4-0.9,0.1-1.2c0-0.1-0.1-0.1-0.2-0.2C273.9,76,273.7,75.9,273.5,75.9z M271.9,73.8v-2
	c-0.2,0.1-0.4,0.2-0.6,0.3c-0.4,0.3-0.5,0.8-0.2,1.2c0.1,0.1,0.2,0.2,0.3,0.2C271.5,73.6,271.7,73.7,271.9,73.8L271.9,73.8z"/>
<rect x="83.4" y="66.3" class="st3" width="44" height="26.2"/>
<g>
	<g>
		<path class="st2" d="M281.4,220.3c1-0.5,1.9-1.2,2.5-2.1c0.6-0.9,0.9-2,0.9-3.1c0-1-0.2-2-0.7-2.8c-0.5-0.8-1.1-1.5-1.9-2
			c-0.7-0.5-1.6-0.8-2.5-1c-0.2,0-0.3,0-0.5-0.1v-1.5c0-0.5-0.4-1-1-1h-2c-0.5,0-1,0.4-1,1v1.3h-2.1v-1.3c0-0.5-0.4-1-1-1h-2
			c-0.5,0-1,0.4-1,1v1.3h-3.4v24.2h3.4v1.2c0,0.5,0.4,1,1,1h2c0.5,0,1-0.4,1-1v-1.2h0.8c0.4,0,0.8,0,1.2,0v1.2c0,0.5,0.4,1,1,1h2
			c0.5,0,1-0.4,1-1V233c0.3,0,0.5,0,0.7-0.1c1.3-0.1,2.4-0.5,3.3-1.1c0.9-0.6,1.6-1.5,2.1-2.5c0.5-1,0.8-2.1,0.8-3.2
			c0-1.4-0.4-2.6-1.2-3.6S282.9,220.7,281.4,220.3z M273.4,213c2.3,0,3.7,0,4.2,0.1c0.8,0.1,1.4,0.4,1.8,0.8
			c0.4,0.5,0.6,1.1,0.6,1.8c0,0.8-0.2,1.4-0.7,1.9c-0.5,0.5-1.1,0.8-2,0.9c-0.5,0.1-1.6,0.1-3.5,0.1h-3.2V213H273.4z M280.2,227.9
			c-0.5,0.5-1,0.8-1.8,1c-0.5,0.1-1.6,0.1-3.3,0.1h-4.5v-6.5h3.9c2.2,0,3.7,0.1,4.3,0.3c0.7,0.2,1.2,0.6,1.5,1.1
			c0.4,0.5,0.5,1.1,0.5,1.8C280.9,226.7,280.7,227.4,280.2,227.9z"/>
	</g>
</g>
</svg>
