<?xml version="1.0" standalone="no"?><svg xmlns:xlink="http://www.w3.org/1999/xlink" xmlns="http://www.w3.org/2000/svg" viewBox="0 0 1000 615.3846153846154" preserveAspectRatio="xMaxYMax slice"><g transform="scale(0.9295840111550081)"><rect x="0" y="0" width="1075.75" height="662" fill="#ffffff"/><rect x="0" y="0" width="82.75" height="82.75" fill="#ffffff"/><rect x="0" y="0" width="41.38" height="41.38" fill="#f6f7fb"/><polygon points="0,0 41.38,0 0,41.38" fill="#ffffff"/><rect x="41.38" y="0" width="41.38" height="41.38" fill="#f6f7fb"/><polygon points="41.38,0 82.76,0 82.76,41.38" fill="#f6f7fb"/><rect x="0" y="41.38" width="41.38" height="41.38" fill="#f6f7fb"/><polygon points="41.38,41.38 41.38,82.76 0,82.76" fill="#f6f7fb"/><rect x="41.38" y="41.38" width="41.38" height="41.38" fill="#f6f7fb"/><polygon points="41.38,41.38 82.76,82.76 41.38,82.76" fill="#ffffff"/><rect x="82.75" y="0" width="82.75" height="82.75" fill="#f6f7fb"/><path d="M 82.75 0 A 82.75 82.75 0 0 0 165.5 82.75 L 165.5 0" fill="#ffffff"/><rect x="165.5" y="0" width="82.75" height="82.75" fill="#ffffff"/><polygon points="165.5,0 248.25,0 248.25,82.75" fill="#ffffff"/><rect x="248.25" y="0" width="82.75" height="82.75" fill="#ffffff"/><polygon points="248.25,0 331,0 331,82.75" fill="#f6f7fb"/><rect x="331" y="0" width="82.75" height="82.75" fill="#ffffff"/><polygon points="331,0 413.75,0 331,82.75" fill="#ffffff"/><rect x="413.75" y="0" width="82.75" height="82.75" fill="#f6f7fb"/><path d="M 413.75 82.75 A 82.75 82.75 0 0 0 496.5 0 L 413.75 0" fill="#ffffff"/><rect x="496.5" y="0" width="82.75" height="82.75" fill="#ffffff"/><path d="M 496.5 82.75 A 82.75 82.75 0 0 0 579.25 0 L 496.5 0" fill="#ffffff"/><rect x="579.25" y="0" width="82.75" height="82.75" fill="#ffffff"/><rect x="579.25" y="0" width="41.38" height="41.38" fill="#f6f7fb"/><path d="M 579.25 41.38 A 41.38 41.38 0 0 1 620.63 0 L 620.63 10.345 A 31.035000000000004 31.035000000000004 0 0 0 589.595 41.38" fill="#f6f7fb"/><rect x="620.63" y="0" width="41.38" height="41.38" fill="#ffffff"/><path d="M 620.63 0 A 41.38 41.38 0 0 1 662.01 41.38 L 651.665 41.38 A 31.035000000000004 31.035000000000004 0 0 0 620.63 10.345" fill="#ffffff"/><rect x="579.25" y="41.38" width="41.38" height="41.38" fill="#f6f7fb"/><path d="M 579.25 41.38 A 41.38 41.38 0 0 0 620.63 82.76 L 620.63 72.415 A 31.035000000000004 31.035000000000004 0 0 1 589.595 41.38" fill="#f6f7fb"/><rect x="620.63" y="41.38" width="41.38" height="41.38" fill="#f6f7fb"/><path d="M 620.63 82.76 A 41.38 41.38 0 0 0 662.01 41.38 L 651.665 41.38 A 31.035000000000004 31.035000000000004 0 0 1 620.63 72.415" fill="#ffffff"/><rect x="662" y="0" width="82.75" height="82.75" fill="#ffffff"/><rect x="662" y="0" width="41.38" height="41.38" fill="#ffffff"/><path d="M 662 41.38 A 41.38 41.38 0 0 0 703.38 0 L 662 0" fill="#ffffff"/><rect x="703.38" y="0" width="41.38" height="41.38" fill="#ffffff"/><path d="M 703.38 0 A 41.38 41.38 0 0 0 744.76 41.38 L 744.76 0" fill="#f6f7fb"/><rect x="662" y="41.38" width="41.38" height="41.38" fill="#ffffff"/><path d="M 662 41.38 A 41.38 41.38 0 0 1 703.38 82.76 L 662 82.76" fill="#f6f7fb"/><rect x="703.38" y="41.38" width="41.38" height="41.38" fill="#f6f7fb"/><path d="M 703.38 82.76 A 41.38 41.38 0 0 1  744.76 41.38 L 744.76 82.76" fill="#f6f7fb"/><rect x="744.75" y="0" width="82.75" height="82.75" fill="#ffffff"/><rect x="744.75" y="0" width="41.38" height="41.38" fill="#f6f7fb"/><circle cx="765.44" cy="20.69" r="20.69" fill="#f6f7fb"/><rect x="786.13" y="0" width="41.38" height="41.38" fill="#ffffff"/><rect x="786.13" y="0" width="41.38" height="41.38" fill="#ffffff"/><rect x="744.75" y="41.38" width="41.38" height="41.38" fill="#ffffff"/><circle cx="765.44" cy="62.07000000000001" r="20.69" fill="#f6f7fb"/><rect x="786.13" y="41.38" width="41.38" height="41.38" fill="#f6f7fb"/><rect x="786.13" y="41.38" width="41.38" height="41.38" fill="#f6f7fb"/><rect x="827.5" y="0" width="82.75" height="82.75" fill="#ffffff"/><rect x="827.5" y="0" width="41.38" height="41.38" fill="#f6f7fb"/><path d="M 827.5 0 A 41.38 41.38 0 0 1 868.88 41.38 L 827.5 41.38" fill="#ffffff"/><rect x="868.88" y="0" width="41.38" height="41.38" fill="#f6f7fb"/><path d="M 868.88 41.38 A 41.38 41.38 0 0 1  910.26 0 L 910.26 41.38" fill="#f6f7fb"/><rect x="827.5" y="41.38" width="41.38" height="41.38" fill="#ffffff"/><path d="M 827.5 82.76 A 41.38 41.38 0 0 0 868.88 41.38 L 827.5 41.38" fill="#ffffff"/><rect x="868.88" y="41.38" width="41.38" height="41.38" fill="#ffffff"/><path d="M 868.88 41.38 A 41.38 41.38 0 0 0 910.26 82.76 L 910.26 41.38" fill="#f6f7fb"/><rect x="910.25" y="0" width="82.75" height="82.75" fill="#ffffff"/><rect x="910.25" y="0" width="41.38" height="41.38" fill="#ffffff"/><path d="M 910.25 41.38 A 41.38 41.38 0 0 0 951.63 0 L 910.25 0" fill="#f6f7fb"/><rect x="951.63" y="0" width="41.38" height="41.38" fill="#f6f7fb"/><path d="M 951.63 0 A 41.38 41.38 0 0 0 993.01 41.38 L 993.01 0" fill="#ffffff"/><rect x="910.25" y="41.38" width="41.38" height="41.38" fill="#ffffff"/><path d="M 910.25 41.38 A 41.38 41.38 0 0 1 951.63 82.76 L 910.25 82.76" fill="#ffffff"/><rect x="951.63" y="41.38" width="41.38" height="41.38" fill="#ffffff"/><path d="M 951.63 82.76 A 41.38 41.38 0 0 1  993.01 41.38 L 993.01 82.76" fill="#f6f7fb"/><rect x="993" y="0" width="82.75" height="82.75" fill="#f6f7fb"/><polygon points="993,0 1075.75,82.75 993,82.75" fill="#ffffff"/><rect x="0" y="82.75" width="82.75" height="82.75" fill="#ffffff"/><rect x="0" y="82.75" width="41.38" height="41.38" fill="#ffffff"/><circle cx="20.69" cy="103.44" r="20.69" fill="#ffffff"/><rect x="41.38" y="82.75" width="41.38" height="41.38" fill="#f6f7fb"/><rect x="41.38" y="82.75" width="41.38" height="41.38" fill="#ffffff"/><rect x="0" y="124.13" width="41.38" height="41.38" fill="#f6f7fb"/><circle cx="20.69" cy="144.82" r="20.69" fill="#ffffff"/><rect x="41.38" y="124.13" width="41.38" height="41.38" fill="#ffffff"/><rect x="41.38" y="124.13" width="41.38" height="41.38" fill="#f6f7fb"/><rect x="82.75" y="82.75" width="82.75" height="82.75" fill="#f6f7fb"/><path d="M 82.75 82.75 A 82.75 82.75 0 0 1 165.5 165.5 L 82.75 165.5" fill="#ffffff"/><rect x="165.5" y="82.75" width="82.75" height="82.75" fill="#f6f7fb"/><rect x="165.5" y="82.75" width="82.75" height="82.75" fill="#f6f7fb"/><rect x="248.25" y="82.75" width="82.75" height="82.75" fill="#f6f7fb"/><polygon points="248.25,82.75 331,165.5 248.25,165.5" fill="#ffffff"/><rect x="331" y="82.75" width="82.75" height="82.75" fill="#f6f7fb"/><rect x="331" y="82.75" width="82.75" height="82.75" fill="#f6f7fb"/><rect x="413.75" y="82.75" width="82.75" height="82.75" fill="#ffffff"/><rect x="413.75" y="82.75" width="82.75" height="82.75" fill="#f6f7fb"/><rect x="496.5" y="82.75" width="82.75" height="82.75" fill="#f6f7fb"/><polygon points="496.5,82.75 579.25,82.75 496.5,165.5" fill="#ffffff"/><rect x="579.25" y="82.75" width="82.75" height="82.75" fill="#ffffff"/><polygon points="579.25,82.75 662,82.75 579.25,165.5" fill="#f6f7fb"/><rect x="662" y="82.75" width="82.75" height="82.75" fill="#f6f7fb"/><path d="M 662 165.5 A 82.75 82.75 0 0 1  744.75 82.75 L 662 165.5 A 82.75 82.75 0 0 0 744.75 82.75" fill="#f6f7fb"/><rect x="744.75" y="82.75" width="82.75" height="82.75" fill="#f6f7fb"/><rect x="744.75" y="82.75" width="82.75" height="82.75" fill="#ffffff"/><rect x="827.5" y="82.75" width="82.75" height="82.75" fill="#ffffff"/><rect x="827.5" y="82.75" width="41.38" height="41.38" fill="#ffffff"/><path d="M 827.5 124.13 A 41.38 41.38 0 0 0 868.88 82.75 L 827.5 82.75" fill="#f6f7fb"/><rect x="868.88" y="82.75" width="41.38" height="41.38" fill="#ffffff"/><path d="M 868.88 82.75 A 41.38 41.38 0 0 0 910.26 124.13 L 910.26 82.75" fill="#f6f7fb"/><rect x="827.5" y="124.13" width="41.38" height="41.38" fill="#f6f7fb"/><path d="M 827.5 124.13 A 41.38 41.38 0 0 1 868.88 165.51 L 827.5 165.51" fill="#f6f7fb"/><rect x="868.88" y="124.13" width="41.38" height="41.38" fill="#f6f7fb"/><path d="M 868.88 165.51 A 41.38 41.38 0 0 1  910.26 124.13 L 910.26 165.51" fill="#ffffff"/><rect x="910.25" y="82.75" width="82.75" height="82.75" fill="#ffffff"/><path d="M 910.25 165.5 A 82.75 82.75 0 0 1  993 82.75 L 993 165.5" fill="#ffffff"/><rect x="993" y="82.75" width="82.75" height="82.75" fill="#ffffff"/><rect x="993" y="82.75" width="82.75" height="82.75" fill="#ffffff"/><rect x="0" y="165.5" width="82.75" height="82.75" fill="#ffffff"/><rect x="0" y="165.5" width="41.38" height="41.38" fill="#ffffff"/><path d="M 0 206.88 A 41.38 41.38 0 0 1  41.38 165.5 L 41.38 206.88" fill="#f6f7fb"/><rect x="41.38" y="165.5" width="41.38" height="41.38" fill="#ffffff"/><path d="M 41.38 165.5 A 41.38 41.38 0 0 1 82.76 206.88 L 41.38 206.88" fill="#ffffff"/><rect x="0" y="206.88" width="41.38" height="41.38" fill="#ffffff"/><path d="M 0 206.88 A 41.38 41.38 0 0 0 41.38 248.26 L 41.38 206.88" fill="#f6f7fb"/><rect x="41.38" y="206.88" width="41.38" height="41.38" fill="#ffffff"/><path d="M 41.38 248.26 A 41.38 41.38 0 0 0 82.76 206.88 L 41.38 206.88" fill="#ffffff"/><rect x="82.75" y="165.5" width="82.75" height="82.75" fill="#ffffff"/><rect x="82.75" y="165.5" width="41.38" height="41.38" fill="#ffffff"/><circle cx="103.44" cy="186.19" r="20.69" fill="#f6f7fb"/><rect x="124.13" y="165.5" width="41.38" height="41.38" fill="#ffffff"/><rect x="124.13" y="165.5" width="41.38" height="41.38" fill="#ffffff"/><rect x="82.75" y="206.88" width="41.38" height="41.38" fill="#ffffff"/><circle cx="103.44" cy="227.57" r="20.69" fill="#f6f7fb"/><rect x="124.13" y="206.88" width="41.38" height="41.38" fill="#ffffff"/><rect x="124.13" y="206.88" width="41.38" height="41.38" fill="#ffffff"/><rect x="165.5" y="165.5" width="82.75" height="82.75" fill="#ffffff"/><rect x="165.5" y="165.5" width="41.38" height="41.38" fill="#ffffff"/><polygon points="165.5,165.5 206.88,165.5 165.5,206.88" fill="#f6f7fb"/><rect x="206.88" y="165.5" width="41.38" height="41.38" fill="#f6f7fb"/><polygon points="206.88,165.5 248.26,165.5 248.26,206.88" fill="#ffffff"/><rect x="165.5" y="206.88" width="41.38" height="41.38" fill="#f6f7fb"/><polygon points="165.5,206.88 206.88,248.26 165.5,248.26" fill="#ffffff"/><rect x="206.88" y="206.88" width="41.38" height="41.38" fill="#ffffff"/><polygon points="248.26,206.88 248.26,248.26 206.88,248.26" fill="#f6f7fb"/><rect x="248.25" y="165.5" width="82.75" height="82.75" fill="#ffffff"/><rect x="248.25" y="165.5" width="41.38" height="41.38" fill="#ffffff"/><polygon points="248.25,165.5 289.63,165.5 248.25,206.88" fill="#ffffff"/><rect x="289.63" y="165.5" width="41.38" height="41.38" fill="#ffffff"/><polygon points="331.01,165.5 331.01,206.88 289.63,206.88" fill="#f6f7fb"/><rect x="248.25" y="206.88" width="41.38" height="41.38" fill="#f6f7fb"/><polygon points="248.25,206.88 289.63,206.88 289.63,248.26" fill="#f6f7fb"/><rect x="289.63" y="206.88" width="41.38" height="41.38" fill="#f6f7fb"/><polygon points="289.63,206.88 331.01,248.26 289.63,248.26" fill="#f6f7fb"/><rect x="331" y="165.5" width="82.75" height="82.75" fill="#f6f7fb"/><rect x="331" y="165.5" width="82.75" height="82.75" fill="#ffffff"/><rect x="413.75" y="165.5" width="82.75" height="82.75" fill="#ffffff"/><polygon points="413.75,165.5 496.5,165.5 496.5,248.25" fill="#f6f7fb"/><rect x="496.5" y="165.5" width="82.75" height="82.75" fill="#ffffff"/><rect x="496.5" y="165.5" width="41.38" height="41.38" fill="#f6f7fb"/><polygon points="496.5,165.5 537.88,165.5 496.5,206.88" fill="#f6f7fb"/><rect x="537.88" y="165.5" width="41.38" height="41.38" fill="#f6f7fb"/><polygon points="579.26,165.5 579.26,206.88 537.88,206.88" fill="#f6f7fb"/><rect x="496.5" y="206.88" width="41.38" height="41.38" fill="#ffffff"/><polygon points="496.5,206.88 537.88,206.88 537.88,248.26" fill="#ffffff"/><rect x="537.88" y="206.88" width="41.38" height="41.38" fill="#f6f7fb"/><polygon points="537.88,206.88 579.26,248.26 537.88,248.26" fill="#f6f7fb"/><rect x="579.25" y="165.5" width="82.75" height="82.75" fill="#f6f7fb"/><polygon points="579.25,165.5 662,248.25 579.25,248.25" fill="#f6f7fb"/><rect x="662" y="165.5" width="82.75" height="82.75" fill="#f6f7fb"/><path d="M 662 165.5 A 82.75 82.75 0 0 0 744.75 248.25 L 744.75 165.5" fill="#ffffff"/><rect x="744.75" y="165.5" width="82.75" height="82.75" fill="#ffffff"/><rect x="744.75" y="165.5" width="41.38" height="41.38" fill="#f6f7fb"/><circle cx="765.44" cy="186.19" r="20.69" fill="#f6f7fb"/><rect x="786.13" y="165.5" width="41.38" height="41.38" fill="#f6f7fb"/><rect x="786.13" y="165.5" width="41.38" height="41.38" fill="#f6f7fb"/><rect x="744.75" y="206.88" width="41.38" height="41.38" fill="#f6f7fb"/><circle cx="765.44" cy="227.57" r="20.69" fill="#f6f7fb"/><rect x="786.13" y="206.88" width="41.38" height="41.38" fill="#ffffff"/><rect x="786.13" y="206.88" width="41.38" height="41.38" fill="#ffffff"/><rect x="827.5" y="165.5" width="82.75" height="82.75" fill="#ffffff"/><rect x="827.5" y="165.5" width="41.38" height="41.38" fill="#ffffff"/><path d="M 827.5 165.5 A 41.38 41.38 0 0 1 868.88 206.88 L 827.5 206.88" fill="#ffffff"/><rect x="868.88" y="165.5" width="41.38" height="41.38" fill="#f6f7fb"/><path d="M 868.88 206.88 A 41.38 41.38 0 0 1  910.26 165.5 L 910.26 206.88" fill="#f6f7fb"/><rect x="827.5" y="206.88" width="41.38" height="41.38" fill="#ffffff"/><path d="M 827.5 248.26 A 41.38 41.38 0 0 0 868.88 206.88 L 827.5 206.88" fill="#f6f7fb"/><rect x="868.88" y="206.88" width="41.38" height="41.38" fill="#ffffff"/><path d="M 868.88 206.88 A 41.38 41.38 0 0 0 910.26 248.26 L 910.26 206.88" fill="#ffffff"/><rect x="910.25" y="165.5" width="82.75" height="82.75" fill="#ffffff"/><path d="M 910.25 165.5 A 82.75 82.75 0 0 1  993 248.25 L 910.25 165.5 A 82.75 82.75 0 0 0 993 248.25" fill="#ffffff"/><rect x="993" y="165.5" width="82.75" height="82.75" fill="#f6f7fb"/><path d="M 993 165.5 A 82.75 82.75 0 0 1 1075.75 248.25 L 993 248.25" fill="#ffffff"/><rect x="0" y="248.25" width="82.75" height="82.75" fill="#ffffff"/><rect x="0" y="248.25" width="41.38" height="41.38" fill="#f6f7fb"/><path d="M 0 289.63 A 41.38 41.38 0 0 1 41.38 248.25 L 41.38 258.595 A 31.035000000000004 31.035000000000004 0 0 0 10.345 289.63" fill="#f6f7fb"/><rect x="41.38" y="248.25" width="41.38" height="41.38" fill="#f6f7fb"/><path d="M 41.38 248.25 A 41.38 41.38 0 0 1 82.76 289.63 L 72.415 289.63 A 31.035000000000004 31.035000000000004 0 0 0 41.38 258.595" fill="#f6f7fb"/><rect x="0" y="289.63" width="41.38" height="41.38" fill="#ffffff"/><path d="M 0 289.63 A 41.38 41.38 0 0 0 41.38 331.01 L 41.38 320.665 A 31.035000000000004 31.035000000000004 0 0 1 10.345 289.63" fill="#f6f7fb"/><rect x="41.38" y="289.63" width="41.38" height="41.38" fill="#ffffff"/><path d="M 41.38 331.01 A 41.38 41.38 0 0 0 82.76 289.63 L 72.415 289.63 A 31.035000000000004 31.035000000000004 0 0 1 41.38 320.665" fill="#ffffff"/><rect x="82.75" y="248.25" width="82.75" height="82.75" fill="#f6f7fb"/><polygon points="82.75,248.25 165.5,248.25 82.75,331" fill="#f6f7fb"/><rect x="165.5" y="248.25" width="82.75" height="82.75" fill="#ffffff"/><rect x="165.5" y="248.25" width="41.38" height="41.38" fill="#f6f7fb"/><path d="M 165.5 248.25 A 41.38 41.38 0 0 1 206.88 289.63 L 165.5 289.63" fill="#ffffff"/><rect x="206.88" y="248.25" width="41.38" height="41.38" fill="#f6f7fb"/><path d="M 206.88 289.63 A 41.38 41.38 0 0 1  248.26 248.25 L 248.26 289.63" fill="#ffffff"/><rect x="165.5" y="289.63" width="41.38" height="41.38" fill="#f6f7fb"/><path d="M 165.5 331.01 A 41.38 41.38 0 0 0 206.88 289.63 L 165.5 289.63" fill="#ffffff"/><rect x="206.88" y="289.63" width="41.38" height="41.38" fill="#f6f7fb"/><path d="M 206.88 289.63 A 41.38 41.38 0 0 0 248.26 331.01 L 248.26 289.63" fill="#f6f7fb"/><rect x="248.25" y="248.25" width="82.75" height="82.75" fill="#ffffff"/><rect x="248.25" y="248.25" width="41.38" height="41.38" fill="#ffffff"/><path d="M 248.25 289.63 A 41.38 41.38 0 0 1 289.63 248.25 L 289.63 258.595 A 31.035000000000004 31.035000000000004 0 0 0 258.595 289.63" fill="#ffffff"/><rect x="289.63" y="248.25" width="41.38" height="41.38" fill="#ffffff"/><path d="M 289.63 248.25 A 41.38 41.38 0 0 1 331.01 289.63 L 320.665 289.63 A 31.035000000000004 31.035000000000004 0 0 0 289.63 258.595" fill="#f6f7fb"/><rect x="248.25" y="289.63" width="41.38" height="41.38" fill="#ffffff"/><path d="M 248.25 289.63 A 41.38 41.38 0 0 0 289.63 331.01 L 289.63 320.665 A 31.035000000000004 31.035000000000004 0 0 1 258.595 289.63" fill="#ffffff"/><rect x="289.63" y="289.63" width="41.38" height="41.38" fill="#f6f7fb"/><path d="M 289.63 331.01 A 41.38 41.38 0 0 0 331.01 289.63 L 320.665 289.63 A 31.035000000000004 31.035000000000004 0 0 1 289.63 320.665" fill="#ffffff"/><rect x="331" y="248.25" width="82.75" height="82.75" fill="#ffffff"/><rect x="331" y="248.25" width="41.38" height="41.38" fill="#ffffff"/><polygon points="331,248.25 372.38,248.25 331,289.63" fill="#f6f7fb"/><rect x="372.38" y="248.25" width="41.38" height="41.38" fill="#f6f7fb"/><polygon points="413.76,248.25 413.76,289.63 372.38,289.63" fill="#ffffff"/><rect x="331" y="289.63" width="41.38" height="41.38" fill="#f6f7fb"/><polygon points="331,289.63 372.38,289.63 372.38,331.01" fill="#ffffff"/><rect x="372.38" y="289.63" width="41.38" height="41.38" fill="#f6f7fb"/><polygon points="372.38,289.63 413.76,331.01 372.38,331.01" fill="#f6f7fb"/><rect x="413.75" y="248.25" width="82.75" height="82.75" fill="#ffffff"/><polygon points="413.75,248.25 496.5,248.25 496.5,331" fill="#f6f7fb"/><rect x="496.5" y="248.25" width="82.75" height="82.75" fill="#ffffff"/><polygon points="496.5,248.25 579.25,248.25 579.25,331" fill="#f6f7fb"/><rect x="579.25" y="248.25" width="82.75" height="82.75" fill="#ffffff"/><rect x="579.25" y="248.25" width="82.75" height="82.75" fill="#ffffff"/><rect x="662" y="248.25" width="82.75" height="82.75" fill="#f6f7fb"/><polygon points="744.75,248.25 744.75,331 662,331" fill="#ffffff"/><rect x="744.75" y="248.25" width="82.75" height="82.75" fill="#ffffff"/><rect x="744.75" y="248.25" width="41.38" height="41.38" fill="#f6f7fb"/><path d="M 744.75 248.25 A 41.38 41.38 0 0 1 786.13 289.63 L 744.75 289.63" fill="#ffffff"/><rect x="786.13" y="248.25" width="41.38" height="41.38" fill="#ffffff"/><path d="M 786.13 289.63 A 41.38 41.38 0 0 1  827.51 248.25 L 827.51 289.63" fill="#f6f7fb"/><rect x="744.75" y="289.63" width="41.38" height="41.38" fill="#ffffff"/><path d="M 744.75 331.01 A 41.38 41.38 0 0 0 786.13 289.63 L 744.75 289.63" fill="#f6f7fb"/><rect x="786.13" y="289.63" width="41.38" height="41.38" fill="#f6f7fb"/><path d="M 786.13 289.63 A 41.38 41.38 0 0 0 827.51 331.01 L 827.51 289.63" fill="#f6f7fb"/><rect x="827.5" y="248.25" width="82.75" height="82.75" fill="#ffffff"/><rect x="827.5" y="248.25" width="41.38" height="41.38" fill="#f6f7fb"/><path d="M 827.5 248.25 A 41.38 41.38 0 0 0 868.88 289.63 L 868.88 248.25" fill="#f6f7fb"/><rect x="868.88" y="248.25" width="41.38" height="41.38" fill="#ffffff"/><path d="M 868.88 289.63 A 41.38 41.38 0 0 0 910.26 248.25 L 868.88 248.25" fill="#ffffff"/><rect x="827.5" y="289.63" width="41.38" height="41.38" fill="#f6f7fb"/><path d="M 827.5 331.01 A 41.38 41.38 0 0 1  868.88 289.63 L 868.88 331.01" fill="#f6f7fb"/><rect x="868.88" y="289.63" width="41.38" height="41.38" fill="#ffffff"/><path d="M 868.88 289.63 A 41.38 41.38 0 0 1 910.26 331.01 L 868.88 331.01" fill="#f6f7fb"/><rect x="910.25" y="248.25" width="82.75" height="82.75" fill="#ffffff"/><rect x="910.25" y="248.25" width="41.38" height="41.38" fill="#ffffff"/><polygon points="910.25,248.25 951.63,248.25 910.25,289.63" fill="#f6f7fb"/><rect x="951.63" y="248.25" width="41.38" height="41.38" fill="#f6f7fb"/><polygon points="993.01,248.25 993.01,289.63 951.63,289.63" fill="#ffffff"/><rect x="910.25" y="289.63" width="41.38" height="41.38" fill="#f6f7fb"/><polygon points="910.25,289.63 951.63,289.63 951.63,331.01" fill="#ffffff"/><rect x="951.63" y="289.63" width="41.38" height="41.38" fill="#ffffff"/><polygon points="951.63,289.63 993.01,331.01 951.63,331.01" fill="#f6f7fb"/><rect x="993" y="248.25" width="82.75" height="82.75" fill="#ffffff"/><path d="M 993 331 A 82.75 82.75 0 0 0 1075.75 248.25 L 993 248.25" fill="#ffffff"/><rect x="0" y="331" width="82.75" height="82.75" fill="#ffffff"/><rect x="0" y="331" width="41.38" height="41.38" fill="#ffffff"/><path d="M 0 331 A 41.38 41.38 0 0 1 41.38 372.38 L 0 372.38" fill="#f6f7fb"/><rect x="41.38" y="331" width="41.38" height="41.38" fill="#f6f7fb"/><path d="M 41.38 372.38 A 41.38 41.38 0 0 1  82.76 331 L 82.76 372.38" fill="#f6f7fb"/><rect x="0" y="372.38" width="41.38" height="41.38" fill="#f6f7fb"/><path d="M 0 413.76 A 41.38 41.38 0 0 0 41.38 372.38 L 0 372.38" fill="#f6f7fb"/><rect x="41.38" y="372.38" width="41.38" height="41.38" fill="#f6f7fb"/><path d="M 41.38 372.38 A 41.38 41.38 0 0 0 82.76 413.76 L 82.76 372.38" fill="#ffffff"/><rect x="82.75" y="331" width="82.75" height="82.75" fill="#ffffff"/><path d="M 82.75 413.75 A 82.75 82.75 0 0 1  165.5 331 L 165.5 413.75" fill="#f6f7fb"/><rect x="165.5" y="331" width="82.75" height="82.75" fill="#ffffff"/><rect x="165.5" y="331" width="41.38" height="41.38" fill="#f6f7fb"/><path d="M 165.5 372.38 A 41.38 41.38 0 0 0 206.88 331 L 165.5 331" fill="#f6f7fb"/><rect x="206.88" y="331" width="41.38" height="41.38" fill="#f6f7fb"/><path d="M 206.88 331 A 41.38 41.38 0 0 0 248.26 372.38 L 248.26 331" fill="#f6f7fb"/><rect x="165.5" y="372.38" width="41.38" height="41.38" fill="#ffffff"/><path d="M 165.5 372.38 A 41.38 41.38 0 0 1 206.88 413.76 L 165.5 413.76" fill="#f6f7fb"/><rect x="206.88" y="372.38" width="41.38" height="41.38" fill="#f6f7fb"/><path d="M 206.88 413.76 A 41.38 41.38 0 0 1  248.26 372.38 L 248.26 413.76" fill="#f6f7fb"/><rect x="248.25" y="331" width="82.75" height="82.75" fill="#ffffff"/><rect x="248.25" y="331" width="41.38" height="41.38" fill="#f6f7fb"/><path d="M 248.25 331 A 41.38 41.38 0 0 0 289.63 372.38 L 289.63 331" fill="#f6f7fb"/><rect x="289.63" y="331" width="41.38" height="41.38" fill="#ffffff"/><path d="M 289.63 372.38 A 41.38 41.38 0 0 0 331.01 331 L 289.63 331" fill="#f6f7fb"/><rect x="248.25" y="372.38" width="41.38" height="41.38" fill="#ffffff"/><path d="M 248.25 413.76 A 41.38 41.38 0 0 1  289.63 372.38 L 289.63 413.76" fill="#ffffff"/><rect x="289.63" y="372.38" width="41.38" height="41.38" fill="#f6f7fb"/><path d="M 289.63 372.38 A 41.38 41.38 0 0 1 331.01 413.76 L 289.63 413.76" fill="#ffffff"/><rect x="331" y="331" width="82.75" height="82.75" fill="#f6f7fb"/><polygon points="331,331 413.75,331 331,413.75" fill="#ffffff"/><rect x="413.75" y="331" width="82.75" height="82.75" fill="#ffffff"/><path d="M 413.75 413.75 A 82.75 82.75 0 0 1  496.5 331 L 496.5 413.75" fill="#ffffff"/><rect x="496.5" y="331" width="82.75" height="82.75" fill="#f6f7fb"/><path d="M 496.5 331 A 82.75 82.75 0 0 0 579.25 413.75 L 579.25 331" fill="#f6f7fb"/><rect x="579.25" y="331" width="82.75" height="82.75" fill="#ffffff"/><rect x="579.25" y="331" width="41.38" height="41.38" fill="#f6f7fb"/><circle cx="599.94" cy="351.69" r="20.69" fill="#ffffff"/><rect x="620.63" y="331" width="41.38" height="41.38" fill="#f6f7fb"/><rect x="620.63" y="331" width="41.38" height="41.38" fill="#f6f7fb"/><rect x="579.25" y="372.38" width="41.38" height="41.38" fill="#f6f7fb"/><circle cx="599.94" cy="393.07" r="20.69" fill="#f6f7fb"/><rect x="620.63" y="372.38" width="41.38" height="41.38" fill="#f6f7fb"/><rect x="620.63" y="372.38" width="41.38" height="41.38" fill="#ffffff"/><rect x="662" y="331" width="82.75" height="82.75" fill="#ffffff"/><path d="M 662 413.75 A 82.75 82.75 0 0 1  744.75 331 L 744.75 413.75" fill="#ffffff"/><rect x="744.75" y="331" width="82.75" height="82.75" fill="#ffffff"/><polygon points="827.5,331 827.5,413.75 744.75,413.75" fill="#f6f7fb"/><rect x="827.5" y="331" width="82.75" height="82.75" fill="#f6f7fb"/><path d="M 827.5 413.75 A 82.75 82.75 0 0 1  910.25 331 L 827.5 413.75 A 82.75 82.75 0 0 0 910.25 331" fill="#ffffff"/><rect x="910.25" y="331" width="82.75" height="82.75" fill="#ffffff"/><rect x="910.25" y="331" width="41.38" height="41.38" fill="#f6f7fb"/><path d="M 910.25 372.38 A 41.38 41.38 0 0 0 951.63 331 L 910.25 331" fill="#ffffff"/><rect x="951.63" y="331" width="41.38" height="41.38" fill="#f6f7fb"/><path d="M 951.63 331 A 41.38 41.38 0 0 0 993.01 372.38 L 993.01 331" fill="#f6f7fb"/><rect x="910.25" y="372.38" width="41.38" height="41.38" fill="#ffffff"/><path d="M 910.25 372.38 A 41.38 41.38 0 0 1 951.63 413.76 L 910.25 413.76" fill="#ffffff"/><rect x="951.63" y="372.38" width="41.38" height="41.38" fill="#ffffff"/><path d="M 951.63 413.76 A 41.38 41.38 0 0 1  993.01 372.38 L 993.01 413.76" fill="#ffffff"/><rect x="993" y="331" width="82.75" height="82.75" fill="#ffffff"/><rect x="993" y="331" width="41.38" height="41.38" fill="#f6f7fb"/><polygon points="993,331 1034.38,331 993,372.38" fill="#f6f7fb"/><rect x="1034.38" y="331" width="41.38" height="41.38" fill="#ffffff"/><polygon points="1034.38,331 1075.7600000000002,331 1075.7600000000002,372.38" fill="#ffffff"/><rect x="993" y="372.38" width="41.38" height="41.38" fill="#f6f7fb"/><polygon points="1034.38,372.38 1034.38,413.76 993,413.76" fill="#ffffff"/><rect x="1034.38" y="372.38" width="41.38" height="41.38" fill="#ffffff"/><polygon points="1034.38,372.38 1075.7600000000002,413.76 1034.38,413.76" fill="#ffffff"/><rect x="0" y="413.75" width="82.75" height="82.75" fill="#ffffff"/><rect x="0" y="413.75" width="41.38" height="41.38" fill="#f6f7fb"/><circle cx="20.69" cy="434.44" r="20.69" fill="#f6f7fb"/><rect x="41.38" y="413.75" width="41.38" height="41.38" fill="#ffffff"/><rect x="41.38" y="413.75" width="41.38" height="41.38" fill="#f6f7fb"/><rect x="0" y="455.13" width="41.38" height="41.38" fill="#f6f7fb"/><circle cx="20.69" cy="475.82" r="20.69" fill="#ffffff"/><rect x="41.38" y="455.13" width="41.38" height="41.38" fill="#ffffff"/><rect x="41.38" y="455.13" width="41.38" height="41.38" fill="#ffffff"/><rect x="82.75" y="413.75" width="82.75" height="82.75" fill="#f6f7fb"/><rect x="82.75" y="413.75" width="82.75" height="82.75" fill="#f6f7fb"/><rect x="165.5" y="413.75" width="82.75" height="82.75" fill="#f6f7fb"/><path d="M 165.5 496.5 A 82.75 82.75 0 0 0 248.25 413.75 L 165.5 413.75" fill="#ffffff"/><rect x="248.25" y="413.75" width="82.75" height="82.75" fill="#f6f7fb"/><rect x="248.25" y="413.75" width="82.75" height="82.75" fill="#f6f7fb"/><rect x="331" y="413.75" width="82.75" height="82.75" fill="#ffffff"/><rect x="331" y="413.75" width="82.75" height="82.75" fill="#ffffff"/><rect x="413.75" y="413.75" width="82.75" height="82.75" fill="#ffffff"/><rect x="413.75" y="413.75" width="41.38" height="41.38" fill="#ffffff"/><path d="M 413.75 413.75 A 41.38 41.38 0 0 0 455.13 455.13 L 455.13 413.75" fill="#f6f7fb"/><rect x="455.13" y="413.75" width="41.38" height="41.38" fill="#ffffff"/><path d="M 455.13 455.13 A 41.38 41.38 0 0 0 496.51 413.75 L 455.13 413.75" fill="#ffffff"/><rect x="413.75" y="455.13" width="41.38" height="41.38" fill="#ffffff"/><path d="M 413.75 496.51 A 41.38 41.38 0 0 1  455.13 455.13 L 455.13 496.51" fill="#f6f7fb"/><rect x="455.13" y="455.13" width="41.38" height="41.38" fill="#ffffff"/><path d="M 455.13 455.13 A 41.38 41.38 0 0 1 496.51 496.51 L 455.13 496.51" fill="#f6f7fb"/><rect x="496.5" y="413.75" width="82.75" height="82.75" fill="#ffffff"/><rect x="496.5" y="413.75" width="41.38" height="41.38" fill="#ffffff"/><path d="M 496.5 413.75 A 41.38 41.38 0 0 1 537.88 455.13 L 496.5 455.13" fill="#f6f7fb"/><rect x="537.88" y="413.75" width="41.38" height="41.38" fill="#f6f7fb"/><path d="M 537.88 455.13 A 41.38 41.38 0 0 1  579.26 413.75 L 579.26 455.13" fill="#ffffff"/><rect x="496.5" y="455.13" width="41.38" height="41.38" fill="#ffffff"/><path d="M 496.5 496.51 A 41.38 41.38 0 0 0 537.88 455.13 L 496.5 455.13" fill="#f6f7fb"/><rect x="537.88" y="455.13" width="41.38" height="41.38" fill="#ffffff"/><path d="M 537.88 455.13 A 41.38 41.38 0 0 0 579.26 496.51 L 579.26 455.13" fill="#f6f7fb"/><rect x="579.25" y="413.75" width="82.75" height="82.75" fill="#f6f7fb"/><path d="M 579.25 496.5 A 82.75 82.75 0 0 1  662 413.75 L 662 496.5" fill="#f6f7fb"/><rect x="662" y="413.75" width="82.75" height="82.75" fill="#f6f7fb"/><rect x="662" y="413.75" width="82.75" height="82.75" fill="#ffffff"/><rect x="744.75" y="413.75" width="82.75" height="82.75" fill="#ffffff"/><rect x="744.75" y="413.75" width="41.38" height="41.38" fill="#ffffff"/><path d="M 744.75 413.75 A 41.38 41.38 0 0 1 786.13 455.13 L 744.75 455.13" fill="#f6f7fb"/><rect x="786.13" y="413.75" width="41.38" height="41.38" fill="#f6f7fb"/><path d="M 786.13 455.13 A 41.38 41.38 0 0 1  827.51 413.75 L 827.51 455.13" fill="#ffffff"/><rect x="744.75" y="455.13" width="41.38" height="41.38" fill="#ffffff"/><path d="M 744.75 496.51 A 41.38 41.38 0 0 0 786.13 455.13 L 744.75 455.13" fill="#ffffff"/><rect x="786.13" y="455.13" width="41.38" height="41.38" fill="#f6f7fb"/><path d="M 786.13 455.13 A 41.38 41.38 0 0 0 827.51 496.51 L 827.51 455.13" fill="#f6f7fb"/><rect x="827.5" y="413.75" width="82.75" height="82.75" fill="#ffffff"/><rect x="827.5" y="413.75" width="41.38" height="41.38" fill="#f6f7fb"/><polygon points="827.5,413.75 868.88,413.75 827.5,455.13" fill="#ffffff"/><rect x="868.88" y="413.75" width="41.38" height="41.38" fill="#ffffff"/><polygon points="910.26,413.75 910.26,455.13 868.88,455.13" fill="#f6f7fb"/><rect x="827.5" y="455.13" width="41.38" height="41.38" fill="#ffffff"/><polygon points="827.5,455.13 868.88,455.13 868.88,496.51" fill="#f6f7fb"/><rect x="868.88" y="455.13" width="41.38" height="41.38" fill="#ffffff"/><polygon points="868.88,455.13 910.26,496.51 868.88,496.51" fill="#ffffff"/><rect x="910.25" y="413.75" width="82.75" height="82.75" fill="#ffffff"/><rect x="910.25" y="413.75" width="41.38" height="41.38" fill="#f6f7fb"/><path d="M 910.25 413.75 A 41.38 41.38 0 0 1 951.63 455.13 L 910.25 455.13" fill="#ffffff"/><rect x="951.63" y="413.75" width="41.38" height="41.38" fill="#f6f7fb"/><path d="M 951.63 455.13 A 41.38 41.38 0 0 1  993.01 413.75 L 993.01 455.13" fill="#f6f7fb"/><rect x="910.25" y="455.13" width="41.38" height="41.38" fill="#f6f7fb"/><path d="M 910.25 496.51 A 41.38 41.38 0 0 0 951.63 455.13 L 910.25 455.13" fill="#ffffff"/><rect x="951.63" y="455.13" width="41.38" height="41.38" fill="#f6f7fb"/><path d="M 951.63 455.13 A 41.38 41.38 0 0 0 993.01 496.51 L 993.01 455.13" fill="#f6f7fb"/><rect x="993" y="413.75" width="82.75" height="82.75" fill="#ffffff"/><rect x="993" y="413.75" width="41.38" height="41.38" fill="#f6f7fb"/><polygon points="993,413.75 1034.38,413.75 993,455.13" fill="#f6f7fb"/><rect x="1034.38" y="413.75" width="41.38" height="41.38" fill="#f6f7fb"/><polygon points="1075.7600000000002,413.75 1075.7600000000002,455.13 1034.38,455.13" fill="#ffffff"/><rect x="993" y="455.13" width="41.38" height="41.38" fill="#f6f7fb"/><polygon points="993,455.13 1034.38,455.13 1034.38,496.51" fill="#f6f7fb"/><rect x="1034.38" y="455.13" width="41.38" height="41.38" fill="#f6f7fb"/><polygon points="1034.38,455.13 1075.7600000000002,496.51 1034.38,496.51" fill="#f6f7fb"/><rect x="0" y="496.5" width="82.75" height="82.75" fill="#ffffff"/><rect x="0" y="496.5" width="41.38" height="41.38" fill="#f6f7fb"/><circle cx="20.69" cy="517.19" r="20.69" fill="#ffffff"/><rect x="41.38" y="496.5" width="41.38" height="41.38" fill="#f6f7fb"/><rect x="41.38" y="496.5" width="41.38" height="41.38" fill="#f6f7fb"/><rect x="0" y="537.88" width="41.38" height="41.38" fill="#ffffff"/><circle cx="20.69" cy="558.57" r="20.69" fill="#ffffff"/><rect x="41.38" y="537.88" width="41.38" height="41.38" fill="#ffffff"/><rect x="41.38" y="537.88" width="41.38" height="41.38" fill="#f6f7fb"/><rect x="82.75" y="496.5" width="82.75" height="82.75" fill="#ffffff"/><rect x="82.75" y="496.5" width="41.38" height="41.38" fill="#ffffff"/><path d="M 82.75 537.88 A 41.38 41.38 0 0 1  124.13 496.5 L 124.13 537.88" fill="#f6f7fb"/><rect x="124.13" y="496.5" width="41.38" height="41.38" fill="#f6f7fb"/><path d="M 124.13 496.5 A 41.38 41.38 0 0 1 165.51 537.88 L 124.13 537.88" fill="#ffffff"/><rect x="82.75" y="537.88" width="41.38" height="41.38" fill="#ffffff"/><path d="M 82.75 537.88 A 41.38 41.38 0 0 0 124.13 579.26 L 124.13 537.88" fill="#f6f7fb"/><rect x="124.13" y="537.88" width="41.38" height="41.38" fill="#ffffff"/><path d="M 124.13 579.26 A 41.38 41.38 0 0 0 165.51 537.88 L 124.13 537.88" fill="#f6f7fb"/><rect x="165.5" y="496.5" width="82.75" height="82.75" fill="#f6f7fb"/><rect x="165.5" y="496.5" width="82.75" height="82.75" fill="#f6f7fb"/><rect x="248.25" y="496.5" width="82.75" height="82.75" fill="#ffffff"/><rect x="248.25" y="496.5" width="82.75" height="82.75" fill="#ffffff"/><rect x="331" y="496.5" width="82.75" height="82.75" fill="#ffffff"/><rect x="331" y="496.5" width="41.38" height="41.38" fill="#f6f7fb"/><polygon points="331,496.5 372.38,496.5 331,537.88" fill="#ffffff"/><rect x="372.38" y="496.5" width="41.38" height="41.38" fill="#f6f7fb"/><polygon points="413.76,496.5 413.76,537.88 372.38,537.88" fill="#f6f7fb"/><rect x="331" y="537.88" width="41.38" height="41.38" fill="#ffffff"/><polygon points="331,537.88 372.38,537.88 372.38,579.26" fill="#ffffff"/><rect x="372.38" y="537.88" width="41.38" height="41.38" fill="#ffffff"/><polygon points="372.38,537.88 413.76,579.26 372.38,579.26" fill="#ffffff"/><rect x="413.75" y="496.5" width="82.75" height="82.75" fill="#ffffff"/><rect x="413.75" y="496.5" width="41.38" height="41.38" fill="#f6f7fb"/><circle cx="434.44" cy="517.19" r="20.69" fill="#f6f7fb"/><rect x="455.13" y="496.5" width="41.38" height="41.38" fill="#f6f7fb"/><rect x="455.13" y="496.5" width="41.38" height="41.38" fill="#f6f7fb"/><rect x="413.75" y="537.88" width="41.38" height="41.38" fill="#ffffff"/><circle cx="434.44" cy="558.57" r="20.69" fill="#ffffff"/><rect x="455.13" y="537.88" width="41.38" height="41.38" fill="#f6f7fb"/><rect x="455.13" y="537.88" width="41.38" height="41.38" fill="#f6f7fb"/><rect x="496.5" y="496.5" width="82.75" height="82.75" fill="#ffffff"/><rect x="496.5" y="496.5" width="41.38" height="41.38" fill="#f6f7fb"/><path d="M 496.5 537.88 A 41.38 41.38 0 0 1  537.88 496.5 L 537.88 537.88" fill="#ffffff"/><rect x="537.88" y="496.5" width="41.38" height="41.38" fill="#ffffff"/><path d="M 537.88 496.5 A 41.38 41.38 0 0 1 579.26 537.88 L 537.88 537.88" fill="#ffffff"/><rect x="496.5" y="537.88" width="41.38" height="41.38" fill="#ffffff"/><path d="M 496.5 537.88 A 41.38 41.38 0 0 0 537.88 579.26 L 537.88 537.88" fill="#f6f7fb"/><rect x="537.88" y="537.88" width="41.38" height="41.38" fill="#f6f7fb"/><path d="M 537.88 579.26 A 41.38 41.38 0 0 0 579.26 537.88 L 537.88 537.88" fill="#f6f7fb"/><rect x="579.25" y="496.5" width="82.75" height="82.75" fill="#f6f7fb"/><path d="M 579.25 579.25 A 82.75 82.75 0 0 1  662 496.5 L 579.25 579.25 A 82.75 82.75 0 0 0 662 496.5" fill="#ffffff"/><rect x="662" y="496.5" width="82.75" height="82.75" fill="#ffffff"/><rect x="662" y="496.5" width="41.38" height="41.38" fill="#f6f7fb"/><polygon points="662,496.5 703.38,496.5 662,537.88" fill="#f6f7fb"/><rect x="703.38" y="496.5" width="41.38" height="41.38" fill="#ffffff"/><polygon points="703.38,496.5 744.76,496.5 744.76,537.88" fill="#f6f7fb"/><rect x="662" y="537.88" width="41.38" height="41.38" fill="#ffffff"/><polygon points="662,537.88 703.38,579.26 662,579.26" fill="#ffffff"/><rect x="703.38" y="537.88" width="41.38" height="41.38" fill="#ffffff"/><polygon points="744.76,537.88 744.76,579.26 703.38,579.26" fill="#f6f7fb"/><rect x="744.75" y="496.5" width="82.75" height="82.75" fill="#ffffff"/><rect x="744.75" y="496.5" width="41.38" height="41.38" fill="#ffffff"/><path d="M 744.75 496.5 A 41.38 41.38 0 0 1 786.13 537.88 L 744.75 537.88" fill="#f6f7fb"/><rect x="786.13" y="496.5" width="41.38" height="41.38" fill="#f6f7fb"/><path d="M 786.13 537.88 A 41.38 41.38 0 0 1  827.51 496.5 L 827.51 537.88" fill="#f6f7fb"/><rect x="744.75" y="537.88" width="41.38" height="41.38" fill="#ffffff"/><path d="M 744.75 579.26 A 41.38 41.38 0 0 0 786.13 537.88 L 744.75 537.88" fill="#f6f7fb"/><rect x="786.13" y="537.88" width="41.38" height="41.38" fill="#f6f7fb"/><path d="M 786.13 537.88 A 41.38 41.38 0 0 0 827.51 579.26 L 827.51 537.88" fill="#f6f7fb"/><rect x="827.5" y="496.5" width="82.75" height="82.75" fill="#ffffff"/><rect x="827.5" y="496.5" width="82.75" height="82.75" fill="#ffffff"/><rect x="910.25" y="496.5" width="82.75" height="82.75" fill="#ffffff"/><rect x="910.25" y="496.5" width="41.38" height="41.38" fill="#f6f7fb"/><path d="M 910.25 537.88 A 41.38 41.38 0 0 1 951.63 496.5 L 951.63 506.845 A 31.035000000000004 31.035000000000004 0 0 0 920.595 537.88" fill="#f6f7fb"/><rect x="951.63" y="496.5" width="41.38" height="41.38" fill="#ffffff"/><path d="M 951.63 496.5 A 41.38 41.38 0 0 1 993.01 537.88 L 982.665 537.88 A 31.035000000000004 31.035000000000004 0 0 0 951.63 506.845" fill="#ffffff"/><rect x="910.25" y="537.88" width="41.38" height="41.38" fill="#f6f7fb"/><path d="M 910.25 537.88 A 41.38 41.38 0 0 0 951.63 579.26 L 951.63 568.915 A 31.035000000000004 31.035000000000004 0 0 1 920.595 537.88" fill="#f6f7fb"/><rect x="951.63" y="537.88" width="41.38" height="41.38" fill="#ffffff"/><path d="M 951.63 579.26 A 41.38 41.38 0 0 0 993.01 537.88 L 982.665 537.88 A 31.035000000000004 31.035000000000004 0 0 1 951.63 568.915" fill="#ffffff"/><rect x="993" y="496.5" width="82.75" height="82.75" fill="#f6f7fb"/><path d="M 993 579.25 A 82.75 82.75 0 0 1  1075.75 496.5 L 1075.75 579.25" fill="#f6f7fb"/><rect x="0" y="579.25" width="82.75" height="82.75" fill="#ffffff"/><polygon points="0,579.25 82.75,579.25 0,662" fill="#ffffff"/><rect x="82.75" y="579.25" width="82.75" height="82.75" fill="#f6f7fb"/><polygon points="82.75,579.25 165.5,579.25 82.75,662" fill="#f6f7fb"/><rect x="165.5" y="579.25" width="82.75" height="82.75" fill="#ffffff"/><rect x="165.5" y="579.25" width="41.38" height="41.38" fill="#ffffff"/><path d="M 165.5 620.63 A 41.38 41.38 0 0 1  206.88 579.25 L 206.88 620.63" fill="#f6f7fb"/><rect x="206.88" y="579.25" width="41.38" height="41.38" fill="#ffffff"/><path d="M 206.88 579.25 A 41.38 41.38 0 0 1 248.26 620.63 L 206.88 620.63" fill="#ffffff"/><rect x="165.5" y="620.63" width="41.38" height="41.38" fill="#ffffff"/><path d="M 165.5 620.63 A 41.38 41.38 0 0 0 206.88 662.01 L 206.88 620.63" fill="#f6f7fb"/><rect x="206.88" y="620.63" width="41.38" height="41.38" fill="#f6f7fb"/><path d="M 206.88 662.01 A 41.38 41.38 0 0 0 248.26 620.63 L 206.88 620.63" fill="#ffffff"/><rect x="248.25" y="579.25" width="82.75" height="82.75" fill="#ffffff"/><rect x="248.25" y="579.25" width="82.75" height="82.75" fill="#f6f7fb"/><rect x="331" y="579.25" width="82.75" height="82.75" fill="#ffffff"/><path d="M 331 662 A 82.75 82.75 0 0 1  413.75 579.25 L 413.75 662" fill="#ffffff"/><rect x="413.75" y="579.25" width="82.75" height="82.75" fill="#ffffff"/><rect x="413.75" y="579.25" width="41.38" height="41.38" fill="#ffffff"/><polygon points="413.75,579.25 455.13,579.25 413.75,620.63" fill="#ffffff"/><rect x="455.13" y="579.25" width="41.38" height="41.38" fill="#f6f7fb"/><polygon points="455.13,579.25 496.51,579.25 496.51,620.63" fill="#ffffff"/><rect x="413.75" y="620.63" width="41.38" height="41.38" fill="#f6f7fb"/><polygon points="455.13,620.63 455.13,662.01 413.75,662.01" fill="#f6f7fb"/><rect x="455.13" y="620.63" width="41.38" height="41.38" fill="#ffffff"/><polygon points="455.13,620.63 496.51,662.01 455.13,662.01" fill="#f6f7fb"/><rect x="496.5" y="579.25" width="82.75" height="82.75" fill="#f6f7fb"/><path d="M 496.5 579.25 A 82.75 82.75 0 0 1 579.25 662 L 496.5 662" fill="#f6f7fb"/><rect x="579.25" y="579.25" width="82.75" height="82.75" fill="#ffffff"/><polygon points="579.25,579.25 662,662 579.25,662" fill="#ffffff"/><rect x="662" y="579.25" width="82.75" height="82.75" fill="#ffffff"/><rect x="662" y="579.25" width="41.38" height="41.38" fill="#ffffff"/><path d="M 662 620.63 A 41.38 41.38 0 0 0 703.38 579.25 L 662 579.25" fill="#f6f7fb"/><rect x="703.38" y="579.25" width="41.38" height="41.38" fill="#ffffff"/><path d="M 703.38 579.25 A 41.38 41.38 0 0 0 744.76 620.63 L 744.76 579.25" fill="#ffffff"/><rect x="662" y="620.63" width="41.38" height="41.38" fill="#ffffff"/><path d="M 662 620.63 A 41.38 41.38 0 0 1 703.38 662.01 L 662 662.01" fill="#ffffff"/><rect x="703.38" y="620.63" width="41.38" height="41.38" fill="#f6f7fb"/><path d="M 703.38 662.01 A 41.38 41.38 0 0 1  744.76 620.63 L 744.76 662.01" fill="#f6f7fb"/><rect x="744.75" y="579.25" width="82.75" height="82.75" fill="#ffffff"/><rect x="744.75" y="579.25" width="82.75" height="82.75" fill="#f6f7fb"/><rect x="827.5" y="579.25" width="82.75" height="82.75" fill="#ffffff"/><rect x="827.5" y="579.25" width="41.38" height="41.38" fill="#ffffff"/><path d="M 827.5 620.63 A 41.38 41.38 0 0 0 868.88 579.25 L 827.5 579.25" fill="#f6f7fb"/><rect x="868.88" y="579.25" width="41.38" height="41.38" fill="#ffffff"/><path d="M 868.88 579.25 A 41.38 41.38 0 0 0 910.26 620.63 L 910.26 579.25" fill="#f6f7fb"/><rect x="827.5" y="620.63" width="41.38" height="41.38" fill="#ffffff"/><path d="M 827.5 620.63 A 41.38 41.38 0 0 1 868.88 662.01 L 827.5 662.01" fill="#ffffff"/><rect x="868.88" y="620.63" width="41.38" height="41.38" fill="#f6f7fb"/><path d="M 868.88 662.01 A 41.38 41.38 0 0 1  910.26 620.63 L 910.26 662.01" fill="#ffffff"/><rect x="910.25" y="579.25" width="82.75" height="82.75" fill="#ffffff"/><rect x="910.25" y="579.25" width="41.38" height="41.38" fill="#ffffff"/><path d="M 910.25 579.25 A 41.38 41.38 0 0 0 951.63 620.63 L 951.63 579.25" fill="#f6f7fb"/><rect x="951.63" y="579.25" width="41.38" height="41.38" fill="#ffffff"/><path d="M 951.63 620.63 A 41.38 41.38 0 0 0 993.01 579.25 L 951.63 579.25" fill="#ffffff"/><rect x="910.25" y="620.63" width="41.38" height="41.38" fill="#f6f7fb"/><path d="M 910.25 662.01 A 41.38 41.38 0 0 1  951.63 620.63 L 951.63 662.01" fill="#ffffff"/><rect x="951.63" y="620.63" width="41.38" height="41.38" fill="#ffffff"/><path d="M 951.63 620.63 A 41.38 41.38 0 0 1 993.01 662.01 L 951.63 662.01" fill="#ffffff"/><rect x="993" y="579.25" width="82.75" height="82.75" fill="#ffffff"/><rect x="993" y="579.25" width="41.38" height="41.38" fill="#f6f7fb"/><path d="M 993 620.63 A 41.38 41.38 0 0 0 1034.38 579.25 L 993 579.25" fill="#ffffff"/><rect x="1034.38" y="579.25" width="41.38" height="41.38" fill="#ffffff"/><path d="M 1034.38 579.25 A 41.38 41.38 0 0 0 1075.7600000000002 620.63 L 1075.7600000000002 579.25" fill="#f6f7fb"/><rect x="993" y="620.63" width="41.38" height="41.38" fill="#f6f7fb"/><path d="M 993 620.63 A 41.38 41.38 0 0 1 1034.38 662.01 L 993 662.01" fill="#f6f7fb"/><rect x="1034.38" y="620.63" width="41.38" height="41.38" fill="#ffffff"/><path d="M 1034.38 662.01 A 41.38 41.38 0 0 1  1075.7600000000002 620.63 L 1075.7600000000002 662.01" fill="#f6f7fb"/></g></svg>